<svg xmlns="http://www.w3.org/2000/svg" width="101" height="101" viewBox="0 0 101 101">
    <g id="prefix__noun_bookmark_1766595" transform="translate(11 -1)">
        <g id="prefix__Group_269" data-name="Group 269" transform="translate(-11 1)">
            <path id="prefix__Path_252" d="M15.729 102H102V1H15.729A14.747 14.747 0 0 0 1 15.729v71.542A14.747 14.747 0 0 0 15.729 102zm0-96.792h82.063V26.25H51.5V13.625H22.042V26.25h-6.313a10.521 10.521 0 0 1 0-21.042zm31.562 25.25v24.966l-10.52-8.768-10.521 8.768V17.833h21.042v12.625zM5.208 26.029c.019.021.042.038.061.057.164.166.341.318.513.476s.349.332.537.486.379.29.568.433.372.29.568.425.417.259.627.387.389.248.593.36.45.223.678.332c.206.1.406.208.617.3.238.1.486.183.73.271.21.076.415.164.629.231.269.084.547.145.821.215.2.05.393.112.6.154.322.067.654.107.985.154.162.023.322.057.486.074a14.952 14.952 0 0 0 1.513.078h6.312v33.947l14.725-12.274L51.5 64.409V30.458h46.292v67.334H15.729A10.533 10.533 0 0 1 5.208 87.271z" data-name="Path 252" transform="translate(-1 -1)" style="fill:#fff"/>
        </g>
    </g>
</svg>
