<svg xmlns="http://www.w3.org/2000/svg" width="391.246" height="288.167" viewBox="0 0 391.246 288.167">
  <g id="Group_731" data-name="Group 731" transform="translate(-86.334)">
    <g id="Background_Complete" data-name="Background Complete" transform="translate(100.214)">
      <g id="Group_501" data-name="Group 501" transform="translate(0 79.528)">
        <g id="Group_485" data-name="Group 485">
          <rect id="Rectangle_1597" data-name="Rectangle 1597" width="87.798" height="129.279" transform="matrix(0.831, -0.556, 0.556, 0.831, 0, 48.812)" fill="#f5f5f5"/>
        </g>
        <g id="Group_488" data-name="Group 488" transform="translate(70.044 84.077)">
          <g id="Group_486" data-name="Group 486" transform="translate(0 13.058)">
            <path id="Path_295" data-name="Path 295" d="M252.474,276.85l-.828,5.126-36.278-5.226.828-5.126Z" transform="translate(-215.368 -271.624)" fill="#e0e0e0"/>
          </g>
          <g id="Group_487" data-name="Group 487" transform="translate(13.064)">
            <path id="Path_296" data-name="Path 296" d="M241.226,251.547l5.206.75-5.772,35.718-5.206-.75Z" transform="translate(-235.454 -251.547)" fill="#e0e0e0"/>
          </g>
        </g>
        <g id="Group_490" data-name="Group 490" transform="translate(78.563 40.793)">
          <g id="Group_489" data-name="Group 489">
            <path id="Path_297" data-name="Path 297" d="M228.466,184.995" transform="translate(-228.466 -184.995)" fill="none" stroke="#fff" stroke-miterlimit="10" stroke-width="1"/>
          </g>
        </g>
        <g id="Group_492" data-name="Group 492" transform="translate(22.609 38.678)">
          <g id="Group_491" data-name="Group 491">
            <path id="Path_298" data-name="Path 298" d="M175.291,181.745c.052.078-7.262,5.061-16.333,11.128S142.488,203.8,142.436,203.72s7.26-5.059,16.334-11.129S175.239,181.667,175.291,181.745Z" transform="translate(-142.436 -181.744)" fill="#e0e0e0"/>
          </g>
        </g>
        <g id="Group_494" data-name="Group 494" transform="translate(27.791 31.941)">
          <g id="Group_493" data-name="Group 493">
            <path id="Path_299" data-name="Path 299" d="M204.915,171.387c.052.078-12.11,8.3-27.161,18.37s-27.3,18.168-27.351,18.09,12.107-8.3,27.163-18.372S204.863,171.309,204.915,171.387Z" transform="translate(-150.403 -171.386)" fill="#e0e0e0"/>
          </g>
        </g>
        <g id="Group_496" data-name="Group 496" transform="translate(33.171 39.984)">
          <g id="Group_495" data-name="Group 495">
            <path id="Path_300" data-name="Path 300" d="M213.186,183.753c.052.078-12.11,8.3-27.16,18.37s-27.3,18.168-27.351,18.09,12.107-8.3,27.163-18.372S213.134,183.675,213.186,183.753Z" transform="translate(-158.675 -183.752)" fill="#e0e0e0"/>
          </g>
        </g>
        <g id="Group_498" data-name="Group 498" transform="translate(38.55 48.028)">
          <g id="Group_497" data-name="Group 497">
            <path id="Path_301" data-name="Path 301" d="M221.457,196.12c.052.077-12.109,8.3-27.16,18.37s-27.3,18.168-27.351,18.09,12.107-8.3,27.163-18.372S221.405,196.042,221.457,196.12Z" transform="translate(-166.946 -196.119)" fill="#e0e0e0"/>
          </g>
        </g>
        <g id="Group_500" data-name="Group 500" transform="translate(43.93 56.07)">
          <g id="Group_499" data-name="Group 499">
            <path id="Path_302" data-name="Path 302" d="M229.729,208.486c.052.078-12.11,8.3-27.161,18.37s-27.3,18.168-27.351,18.09,12.107-8.3,27.163-18.371S229.677,208.408,229.729,208.486Z" transform="translate(-175.217 -208.485)" fill="#e0e0e0"/>
          </g>
        </g>
      </g>
      <g id="Group_518" data-name="Group 518" transform="translate(255.715 151.545)">
        <g id="Group_502" data-name="Group 502">
          <rect id="Rectangle_1598" data-name="Rectangle 1598" width="73.735" height="108.572" transform="translate(0 40.994) rotate(-33.777)" fill="#f5f5f5"/>
        </g>
        <g id="Group_505" data-name="Group 505" transform="translate(58.825 70.611)">
          <g id="Group_503" data-name="Group 503" transform="translate(0 10.967)">
            <path id="Path_303" data-name="Path 303" d="M622.448,362.82l-.7,4.3-30.467-4.389.7-4.3Z" transform="translate(-591.285 -358.431)" fill="#e0e0e0"/>
          </g>
          <g id="Group_504" data-name="Group 504" transform="translate(10.972)">
            <path id="Path_304" data-name="Path 304" d="M613,341.569l4.372.63-4.847,30-4.372-.63Z" transform="translate(-608.155 -341.569)" fill="#e0e0e0"/>
          </g>
        </g>
        <g id="Group_507" data-name="Group 507" transform="translate(65.979 34.259)">
          <g id="Group_506" data-name="Group 506">
            <path id="Path_305" data-name="Path 305" d="M602.285,285.678" transform="translate(-602.285 -285.678)" fill="none" stroke="#fff" stroke-miterlimit="10" stroke-width="1"/>
          </g>
        </g>
        <g id="Group_509" data-name="Group 509" transform="translate(18.987 32.482)">
          <g id="Group_508" data-name="Group 508">
            <path id="Path_306" data-name="Path 306" d="M557.628,282.947c.052.078-6.083,4.272-13.7,9.368s-13.839,9.165-13.891,9.087,6.082-4.271,13.7-9.369S557.576,282.87,557.628,282.947Z" transform="translate(-530.034 -282.946)" fill="#e0e0e0"/>
          </g>
        </g>
        <g id="Group_511" data-name="Group 511" transform="translate(23.339 26.825)">
          <g id="Group_510" data-name="Group 510">
            <path id="Path_307" data-name="Path 307" d="M582.506,274.249c.052.078-10.155,7-22.794,15.45s-22.934,15.248-22.986,15.171,10.153-6.994,22.8-15.452S582.454,274.171,582.506,274.249Z" transform="translate(-536.726 -274.248)" fill="#e0e0e0"/>
          </g>
        </g>
        <g id="Group_513" data-name="Group 513" transform="translate(27.858 33.58)">
          <g id="Group_512" data-name="Group 512">
            <path id="Path_308" data-name="Path 308" d="M589.453,284.635c.052.077-10.155,7-22.8,15.45s-22.933,15.248-22.985,15.17,10.153-6.994,22.8-15.452S589.4,284.557,589.453,284.635Z" transform="translate(-543.673 -284.634)" fill="#e0e0e0"/>
          </g>
        </g>
        <g id="Group_515" data-name="Group 515" transform="translate(32.375 40.334)">
          <g id="Group_514" data-name="Group 514">
            <path id="Path_309" data-name="Path 309" d="M596.4,295.02c.052.078-10.155,7-22.794,15.45s-22.934,15.248-22.986,15.171,10.153-6.994,22.8-15.452S596.347,294.942,596.4,295.02Z" transform="translate(-550.619 -295.019)" fill="#e0e0e0"/>
          </g>
        </g>
        <g id="Group_517" data-name="Group 517" transform="translate(36.894 47.089)">
          <g id="Group_516" data-name="Group 516">
            <path id="Path_310" data-name="Path 310" d="M603.346,305.406c.052.078-10.155,7-22.8,15.45s-22.933,15.248-22.985,15.17,10.153-6.994,22.8-15.452S603.294,305.328,603.346,305.406Z" transform="translate(-557.566 -305.405)" fill="#e0e0e0"/>
          </g>
        </g>
      </g>
      <g id="Group_535" data-name="Group 535" transform="translate(100.507 47.702)">
        <g id="Group_519" data-name="Group 519">
          <rect id="Rectangle_1599" data-name="Rectangle 1599" width="75.836" height="111.666" transform="matrix(0.882, 0.472, -0.472, 0.882, 52.662, 0)" fill="#f5f5f5"/>
        </g>
        <g id="Group_522" data-name="Group 522" transform="translate(32.363 73.659)">
          <g id="Group_520" data-name="Group 520" transform="translate(8.05 0)">
            <path id="Path_311" data-name="Path 311" d="M339.353,216.365l-4.243,1.453-10.769-29.771,4.243-1.453Z" transform="translate(-324.341 -186.594)" fill="#e0e0e0"/>
          </g>
          <g id="Group_521" data-name="Group 521" transform="translate(0 8.413)">
            <path id="Path_312" data-name="Path 312" d="M341.531,199.529l1.545,4.272L313.51,213.927l-1.545-4.272Z" transform="translate(-311.964 -199.529)" fill="#e0e0e0"/>
          </g>
        </g>
        <g id="Group_524" data-name="Group 524" transform="translate(90.72 56.609)">
          <g id="Group_523" data-name="Group 523">
            <path id="Path_313" data-name="Path 313" d="M401.689,160.379" transform="translate(-401.689 -160.379)" fill="none" stroke="#fff" stroke-miterlimit="10" stroke-width="1"/>
          </g>
        </g>
        <g id="Group_526" data-name="Group 526" transform="translate(52.831 22.043)">
          <g id="Group_525" data-name="Group 525">
            <path id="Path_314" data-name="Path 314" d="M373.541,123.337c-.052.1-6.835-3.427-15.147-7.873s-15.012-8.131-14.96-8.228,6.834,3.427,15.149,7.874S373.593,123.24,373.541,123.337Z" transform="translate(-343.434 -107.234)" fill="#e0e0e0"/>
          </g>
        </g>
        <g id="Group_528" data-name="Group 528" transform="translate(49.035 29.144)">
          <g id="Group_527" data-name="Group 527">
            <path id="Path_315" data-name="Path 315" d="M387.547,144.867c-.052.1-11.277-5.8-25.069-13.18S337.544,118.25,337.6,118.152s11.275,5.8,25.071,13.18S387.6,144.769,387.547,144.867Z" transform="translate(-337.597 -118.151)" fill="#e0e0e0"/>
          </g>
        </g>
        <g id="Group_530" data-name="Group 530" transform="translate(45.092 36.513)">
          <g id="Group_529" data-name="Group 529">
            <path id="Path_316" data-name="Path 316" d="M381.487,156.2c-.053.1-11.278-5.8-25.07-13.18s-24.934-13.437-24.882-13.535,11.275,5.8,25.072,13.181S381.539,156.1,381.487,156.2Z" transform="translate(-331.536 -129.482)" fill="#e0e0e0"/>
          </g>
        </g>
        <g id="Group_532" data-name="Group 532" transform="translate(41.151 43.884)">
          <g id="Group_531" data-name="Group 531">
            <path id="Path_317" data-name="Path 317" d="M375.426,167.53c-.052.1-11.277-5.8-25.069-13.179s-24.934-13.437-24.882-13.535,11.275,5.8,25.072,13.181S375.479,167.432,375.426,167.53Z" transform="translate(-325.476 -140.814)" fill="#e0e0e0"/>
          </g>
        </g>
        <g id="Group_534" data-name="Group 534" transform="translate(37.209 51.254)">
          <g id="Group_533" data-name="Group 533">
            <path id="Path_318" data-name="Path 318" d="M369.366,178.862c-.053.1-11.278-5.8-25.069-13.179s-24.934-13.437-24.882-13.535,11.275,5.8,25.072,13.181S369.418,178.764,369.366,178.862Z" transform="translate(-319.415 -152.146)" fill="#e0e0e0"/>
          </g>
        </g>
      </g>
      <rect id="Rectangle_1600" data-name="Rectangle 1600" width="1.68" height="28.606" transform="translate(186.337)" opacity="0.2"/>
    </g>
    <g id="Lamp" transform="translate(248.217)">
      <g id="Group_538" data-name="Group 538">
        <g id="Group_537" data-name="Group 537" transform="translate(0 28.588)">
          <g id="Group_536" data-name="Group 536">
            <path id="Path_319" data-name="Path 319" d="M335.233,78.578h78.348s-7.234-34.623-39.768-34.623C344.875,43.955,335.233,78.578,335.233,78.578Z" transform="translate(-335.233 -43.955)" fill="#d81f29"/>
          </g>
        </g>
        <rect id="Rectangle_1601" data-name="Rectangle 1601" width="1.68" height="28.606" transform="translate(38.334)" fill="#d81f29"/>
      </g>
    </g>
    <g id="Floor" transform="translate(86.334 285.894)">
      <g id="Group_540" data-name="Group 540">
        <g id="Group_539" data-name="Group 539">
          <path id="Path_320" data-name="Path 320" d="M461.83,439.737c0,.094-84.064.17-187.739.17-103.711,0-187.757-.076-187.757-.17s84.046-.169,187.757-.169C377.766,439.568,461.83,439.644,461.83,439.737Z" transform="translate(-86.334 -439.568)" fill="#263238"/>
        </g>
      </g>
    </g>
    <g id="Plant" transform="translate(100.214 245.331)">
      <g id="Group_550" data-name="Group 550">
        <g id="Group_541" data-name="Group 541" transform="translate(4.497)">
          <path id="Path_321" data-name="Path 321" d="M116.994,377.2a8.2,8.2,0,0,1,5.714,2.926,14.474,14.474,0,0,1,2.909,5.861c1.1,4.113.424,8.966-.749,13.059-4.452-1.592-7.2-6.34-8.44-8.836-1.962-3.945-3.113-12.268.566-13.01" transform="translate(-114.589 -377.201)" fill="#e8505b"/>
        </g>
        <g id="Group_542" data-name="Group 542" transform="translate(20.07 15.036)">
          <path id="Path_322" data-name="Path 322" d="M139.644,412.114a7,7,0,0,1-.328-7.015,9.292,9.292,0,0,1,5.594-4.5,3.913,3.913,0,0,1,3.292.157,2.993,2.993,0,0,1,1.151,2.8,6.061,6.061,0,0,1-1.281,2.878c-2.165,2.931-4.8,5.37-8.429,5.671" transform="translate(-138.532 -400.32)" fill="#e8505b"/>
        </g>
        <g id="Group_544" data-name="Group 544" transform="translate(20.376 20.006)">
          <g id="Group_543" data-name="Group 543">
            <path id="Path_323" data-name="Path 323" d="M140.3,428.529a4.913,4.913,0,0,1-.2-.854l-.458-2.344a24.547,24.547,0,0,1-.487-7.872,15.026,15.026,0,0,1,2.92-7.3,10.237,10.237,0,0,1,1.689-1.707,6.282,6.282,0,0,1,.53-.38c.124-.082.193-.12.2-.112a16.038,16.038,0,0,0-2.245,2.332,15.515,15.515,0,0,0-2.788,7.205,26.433,26.433,0,0,0,.4,7.793c.159,1,.288,1.8.362,2.362A4.634,4.634,0,0,1,140.3,428.529Z" transform="translate(-139.003 -407.961)" fill="#263238"/>
          </g>
        </g>
        <g id="Group_546" data-name="Group 546" transform="translate(8.336 6.26)">
          <g id="Group_545" data-name="Group 545">
            <path id="Path_324" data-name="Path 324" d="M120.493,386.826a1.794,1.794,0,0,1,.179.338l.459.991c.393.863.946,2.119,1.617,3.677,1.341,3.115,3.134,7.444,5.006,12.268s3.466,9.234,4.576,12.439c.555,1.6.993,2.9,1.285,3.8.135.427.244.773.329,1.041a1.732,1.732,0,0,1,.095.37,1.823,1.823,0,0,1-.153-.35l-.384-1.022-1.376-3.772c-1.162-3.185-2.788-7.576-4.657-12.4s-3.631-9.161-4.92-12.3l-1.526-3.714c-.166-.416-.3-.753-.405-1.014A1.767,1.767,0,0,1,120.493,386.826Z" transform="translate(-120.492 -386.826)" fill="#263238"/>
          </g>
        </g>
        <g id="Group_547" data-name="Group 547" transform="translate(0 23.573)">
          <path id="Path_325" data-name="Path 325" d="M124.061,421.353a16.359,16.359,0,0,0-12.7-7.889c-1.316-.1-2.9.125-3.486,1.307s.2,2.585,1.095,3.557a13.979,13.979,0,0,0,15.137,3.379" transform="translate(-107.674 -413.445)" fill="#e8505b"/>
        </g>
        <g id="Group_549" data-name="Group 549" transform="translate(5.694 27.106)">
          <g id="Group_548" data-name="Group 548">
            <path id="Path_326" data-name="Path 326" d="M116.429,418.887a4.27,4.27,0,0,1,.824.031,7.985,7.985,0,0,1,.961.111c.371.07.8.11,1.262.237a14.478,14.478,0,0,1,1.5.417,16.267,16.267,0,0,1,1.673.635,18.22,18.22,0,0,1,3.523,2.089,17.832,17.832,0,0,1,2.912,2.882,15.559,15.559,0,0,1,1.026,1.467,13.083,13.083,0,0,1,.763,1.358,12.107,12.107,0,0,1,.524,1.172,7.376,7.376,0,0,1,.327.911,4.276,4.276,0,0,1,.215.8c-.066.023-.382-1.114-1.259-2.779a14.289,14.289,0,0,0-.785-1.32,16.479,16.479,0,0,0-1.032-1.427,18.5,18.5,0,0,0-2.879-2.815,18.909,18.909,0,0,0-3.452-2.074,16.979,16.979,0,0,0-1.637-.652,15.329,15.329,0,0,0-1.471-.447C117.6,419.017,116.422,418.954,116.429,418.887Z" transform="translate(-116.429 -418.876)" fill="#263238"/>
          </g>
        </g>
      </g>
    </g>
    <g id="Character" transform="translate(349.067 44.282)">
      <g id="Group_716" data-name="Group 716">
        <g id="Group_554" data-name="Group 554" transform="translate(42.332 22.969)">
          <g id="Group_551" data-name="Group 551">
            <path id="Path_327" data-name="Path 327" d="M565.123,104.749c-1.912.44-2.844,2.641-3.025,4.6s.068,4.018-.753,5.8c-.924,2.006-3.13,3.485-3.2,5.693-.045,1.346.755,2.612.716,3.958-.063,2.211-2.317,3.882-2.436,6.09-.085,1.59.974,3.117.719,4.689-.2,1.223-1.151,2.187-1.553,3.359-.8,2.337.8,4.909,2.894,6.225a9.484,9.484,0,0,0,13.819-4.416c1.157-2.809.9-5.972.653-9q-1.176-14.152-1.747-28.345" transform="translate(-555.378 -103.399)" fill="#263238"/>
          </g>
          <g id="Group_553" data-name="Group 553" transform="translate(4.191 2.097)">
            <g id="Group_552" data-name="Group 552">
              <path id="Path_328" data-name="Path 328" d="M561.823,139.17a2.293,2.293,0,0,0,.874-1.039,3.687,3.687,0,0,0,.222-1.588,8.792,8.792,0,0,0-.474-2.106,6.008,6.008,0,0,1-.339-2.667,6.081,6.081,0,0,1,1.55-2.662,5.938,5.938,0,0,0,.878-1.335,2.156,2.156,0,0,0,.1-1.56c-.336-1.063-1.377-1.845-1.855-3.071a3.315,3.315,0,0,1-.1-1.9,7.709,7.709,0,0,1,.628-1.7,14.567,14.567,0,0,0,1.292-3.06c.457-2.063.243-4.032.554-5.65a6.273,6.273,0,0,1,1.644-3.466,3.706,3.706,0,0,1,.86-.613,1.483,1.483,0,0,1,.344-.129,5.254,5.254,0,0,0-1.11.834,6.328,6.328,0,0,0-1.5,3.413,21.276,21.276,0,0,0-.181,2.628,16.071,16.071,0,0,1-.306,3.053,14.517,14.517,0,0,1-1.3,3.132,4.278,4.278,0,0,0-.505,3.34c.413,1.107,1.461,1.893,1.854,3.089a2.483,2.483,0,0,1-.121,1.788,6.21,6.21,0,0,1-.933,1.4,4.266,4.266,0,0,0-1.223,5.066,8.673,8.673,0,0,1,.433,2.163,3.711,3.711,0,0,1-.291,1.649,1.978,1.978,0,0,1-.667.821A1.074,1.074,0,0,1,561.823,139.17Z" transform="translate(-561.821 -106.624)" fill="#455a64"/>
            </g>
          </g>
        </g>
        <path id="Path_329" data-name="Path 329" d="M535.441,180.366l-5.871,16.925L505.087,198.6,501,207.688l25.561,2.587a9.658,9.658,0,0,0,12.781-5.668l6.821-19.04Z" transform="translate(-494.036 -107.338)" fill="#b78876"/>
        <g id="Group_559" data-name="Group 559" transform="translate(46.548 120.46)">
          <g id="Group_557" data-name="Group 557">
            <g id="Group_555" data-name="Group 555">
              <path id="Path_330" data-name="Path 330" d="M607.358,365.424s-17.943-56.986-18.323-58.836c-.344-1.672,6.512-42.681,7.375-53.295l-24.243.9,0,.177-10.3.571,9.229,116.547h11.156l-1.106-38.667a376.566,376.566,0,0,0,16.737,37.291Z" transform="translate(-561.86 -253.293)" fill="#b78876"/>
            </g>
            <g id="Group_556" data-name="Group 556" transform="translate(15.421 68.779)">
              <path id="Path_331" data-name="Path 331" d="M589.884,383.654c.01-.354-.135-12.955-.135-12.955-.139.754-4.277-10.942-4.177-11.653C585.623,358.678,589.884,383.654,589.884,383.654Z" transform="translate(-585.57 -359.042)" fill="#a36957"/>
            </g>
          </g>
          <g id="Group_558" data-name="Group 558" transform="translate(14.861 63.246)">
            <path id="Path_332" data-name="Path 332" d="M584.8,350.535a2.611,2.611,0,0,0-.072.706,18.646,18.646,0,0,0,.015,1.932c.016.409.058.855.111,1.333s.126.989.237,1.518a25.9,25.9,0,0,0,.912,3.4c.81,2.358,1.7,4.419,2.338,5.916l.777,1.762a2.61,2.61,0,0,0,.331.628,2.664,2.664,0,0,0-.2-.682c-.15-.43-.377-1.047-.667-1.806-.573-1.521-1.428-3.6-2.231-5.936a29.458,29.458,0,0,1-.928-3.345c-.118-.52-.193-1.022-.267-1.49s-.122-.909-.155-1.312c-.077-.805-.111-1.461-.131-1.914A2.643,2.643,0,0,0,584.8,350.535Z" transform="translate(-584.709 -350.535)" fill="#a36957"/>
          </g>
        </g>
        <g id="Group_591" data-name="Group 591" transform="translate(47.889 237.688)">
          <g id="Group_590" data-name="Group 590">
            <g id="Group_561" data-name="Group 561" transform="translate(0.001)">
              <g id="Group_560" data-name="Group 560">
                <path id="Path_333" data-name="Path 333" d="M571.6,435.079l0-1.048,11.427-.5.031,4.322-.705.047c-3.136.183-15.961.712-18.061.083C561.948,437.284,571.6,435.079,571.6,435.079Z" transform="translate(-563.923 -433.534)" fill="#455a64"/>
              </g>
            </g>
            <g id="Group_563" data-name="Group 563" transform="translate(0 4.054)">
              <g id="Group_562" data-name="Group 562">
                <path id="Path_334" data-name="Path 334" d="M583.214,439.773a.984.984,0,0,1-.2.022l-.561.036-2.066.1c-1.745.069-4.157.132-6.822.144s-5.078-.031-6.824-.085l-2.067-.078-.561-.031a1,1,0,0,1-.2-.02,1.067,1.067,0,0,1,.2-.007l.563.005,2.067.034c1.746.029,4.157.055,6.821.044s5.074-.06,6.82-.1l2.067-.053.562-.01A1.093,1.093,0,0,1,583.214,439.773Z" transform="translate(-563.921 -439.767)" fill="#263238"/>
              </g>
            </g>
            <g id="Group_565" data-name="Group 565" transform="translate(2.88 2.651)">
              <g id="Group_564" data-name="Group 564">
                <path id="Path_335" data-name="Path 335" d="M569.446,439.388a3,3,0,0,0-1.1-1.774,1.836,1.836,0,0,1,1.1,1.774Z" transform="translate(-568.349 -437.611)" fill="#263238"/>
              </g>
            </g>
            <g id="Group_567" data-name="Group 567" transform="translate(6.716 1.769)">
              <g id="Group_566" data-name="Group 566">
                <path id="Path_336" data-name="Path 336" d="M574.857,437.2c-.033.02-.194-.174-.36-.435s-.276-.488-.244-.509.193.174.36.434S574.889,437.179,574.857,437.2Z" transform="translate(-574.247 -436.254)" fill="#263238"/>
              </g>
            </g>
            <g id="Group_569" data-name="Group 569" transform="translate(7.53 1.585)">
              <g id="Group_568" data-name="Group 568">
                <path id="Path_337" data-name="Path 337" d="M576.213,436.61c-.025.029-.2-.09-.4-.265s-.336-.341-.31-.369.206.09.4.265S576.238,436.582,576.213,436.61Z" transform="translate(-575.498 -435.971)" fill="#263238"/>
              </g>
            </g>
            <g id="Group_571" data-name="Group 571" transform="translate(7.635 1.088)">
              <g id="Group_570" data-name="Group 570">
                <path id="Path_338" data-name="Path 338" d="M576.848,435.268a1.326,1.326,0,0,1-.593.078,1.352,1.352,0,0,1-.594-.06,1.335,1.335,0,0,1,.593-.078A1.354,1.354,0,0,1,576.848,435.268Z" transform="translate(-575.66 -435.207)" fill="#263238"/>
              </g>
            </g>
            <g id="Group_573" data-name="Group 573" transform="translate(7.675 0.38)">
              <g id="Group_572" data-name="Group 572">
                <path id="Path_339" data-name="Path 339" d="M577.066,434.13a1.674,1.674,0,0,1-1.345.106,3.721,3.721,0,0,1,.673-.049A3.675,3.675,0,0,1,577.066,434.13Z" transform="translate(-575.721 -434.119)" fill="#263238"/>
              </g>
            </g>
            <g id="Group_575" data-name="Group 575" transform="translate(4.792 0.707)">
              <g id="Group_574" data-name="Group 574">
                <path id="Path_340" data-name="Path 340" d="M573.433,435.638a2.1,2.1,0,0,1-.73,0,4.285,4.285,0,0,1-.779-.168,2.135,2.135,0,0,1-.446-.182.393.393,0,0,1-.181-.226.287.287,0,0,1,.11-.293,1.339,1.339,0,0,1,1.658.386,1.3,1.3,0,0,1,.24.486.414.414,0,0,1,.02.2,2.072,2.072,0,0,0-.336-.622,1.316,1.316,0,0,0-.625-.4,1.137,1.137,0,0,0-.871.062c-.116.086-.07.223.059.3a2.215,2.215,0,0,0,.412.174,5.054,5.054,0,0,0,.753.193C573.155,435.615,573.433,435.615,573.433,435.638Z" transform="translate(-571.288 -434.621)" fill="#263238"/>
              </g>
            </g>
            <g id="Group_577" data-name="Group 577" transform="translate(6.655 0.344)">
              <g id="Group_576" data-name="Group 576">
                <path id="Path_341" data-name="Path 341" d="M574.246,435.48a.721.721,0,0,1-.086-.507,1.19,1.19,0,0,1,.2-.535.732.732,0,0,1,.607-.375.291.291,0,0,1,.226.336.808.808,0,0,1-.123.327,2.2,2.2,0,0,1-.343.443,1.05,1.05,0,0,1-.417.3c-.013-.018.145-.131.345-.364a2.555,2.555,0,0,0,.3-.439c.1-.155.167-.432-.016-.465-.183-.017-.369.166-.48.312a1.216,1.216,0,0,0-.2.476A2.734,2.734,0,0,0,574.246,435.48Z" transform="translate(-574.154 -434.063)" fill="#263238"/>
              </g>
            </g>
            <g id="Group_579" data-name="Group 579" transform="translate(15.02 0.876)">
              <g id="Group_578" data-name="Group 578">
                <path id="Path_342" data-name="Path 342" d="M591.044,434.955c0,.025-.326-.03-.839.033a3.561,3.561,0,0,0-2.97,2.384c-.172.488-.187.816-.213.812a.65.65,0,0,1,0-.229,2.974,2.974,0,0,1,.122-.614,3.454,3.454,0,0,1,3.052-2.451,2.987,2.987,0,0,1,.625.014A.644.644,0,0,1,591.044,434.955Z" transform="translate(-587.014 -434.881)" fill="#263238"/>
              </g>
            </g>
            <g id="Group_581" data-name="Group 581" transform="translate(10.254 3.14)">
              <g id="Group_580" data-name="Group 580">
                <path id="Path_343" data-name="Path 343" d="M583.01,438.376a9.34,9.34,0,0,1-3.323.018c0-.04.746.008,1.662,0S583.005,438.337,583.01,438.376Z" transform="translate(-579.687 -438.362)" fill="#263238"/>
              </g>
            </g>
            <g id="Group_583" data-name="Group 583" transform="translate(15.481 3.126)">
              <g id="Group_582" data-name="Group 582">
                <path id="Path_344" data-name="Path 344" d="M588.047,438.345c.027.027-.06.157-.136.328s-.116.322-.155.32-.059-.18.029-.376S588.023,438.317,588.047,438.345Z" transform="translate(-587.724 -438.34)" fill="#263238"/>
              </g>
            </g>
            <g id="Group_585" data-name="Group 585" transform="translate(16.21 2.077)">
              <g id="Group_584" data-name="Group 584">
                <path id="Path_345" data-name="Path 345" d="M589.275,436.732c.027.027-.046.146-.163.265s-.234.2-.261.168.046-.145.163-.265S589.247,436.705,589.275,436.732Z" transform="translate(-588.845 -436.727)" fill="#263238"/>
              </g>
            </g>
            <g id="Group_587" data-name="Group 587" transform="translate(17.192 1.536)">
              <g id="Group_586" data-name="Group 586">
                <path id="Path_346" data-name="Path 346" d="M591,435.959c-.008.039-.159.038-.326.1s-.287.148-.317.123.064-.183.272-.254S591.014,435.924,591,435.959Z" transform="translate(-590.354 -435.895)" fill="#263238"/>
              </g>
            </g>
            <g id="Group_589" data-name="Group 589" transform="translate(18.352 1.346)">
              <g id="Group_588" data-name="Group 588">
                <path id="Path_347" data-name="Path 347" d="M592.48,435.629c.014.036-.051.094-.146.131s-.181.038-.2,0,.051-.094.146-.131S592.466,435.594,592.48,435.629Z" transform="translate(-592.137 -435.604)" fill="#263238"/>
              </g>
            </g>
          </g>
        </g>
        <g id="Group_623" data-name="Group 623" transform="translate(76.4 232.136)">
          <g id="Group_622" data-name="Group 622">
            <g id="Group_593" data-name="Group 593">
              <g id="Group_592" data-name="Group 592">
                <path id="Path_348" data-name="Path 348" d="M613.7,431.087l-.434-.953L623.487,425l1.8,3.93-.624.332c-2.786,1.452-14.27,7.188-16.442,7.474C605.8,437.052,613.7,431.087,613.7,431.087Z" transform="translate(-607.758 -424.998)" fill="#455a64"/>
              </g>
            </g>
            <g id="Group_595" data-name="Group 595" transform="translate(0.001 3.626)">
              <g id="Group_594" data-name="Group 594">
                <path id="Path_349" data-name="Path 349" d="M625.324,430.573a1.146,1.146,0,0,1-.17.1l-.5.263-1.845.934c-1.564.778-3.738,1.824-6.164,2.927s-4.646,2.051-6.26,2.717l-1.917.775-.525.2a1.033,1.033,0,0,1-.187.062.993.993,0,0,1,.176-.087l.515-.226,1.9-.816c1.6-.689,3.815-1.652,6.241-2.754s4.6-2.133,6.179-2.888l1.864-.895.509-.239A1.091,1.091,0,0,1,625.324,430.573Z" transform="translate(-607.759 -430.572)" fill="#263238"/>
              </g>
            </g>
            <g id="Group_597" data-name="Group 597" transform="translate(2.017 9.051)">
              <g id="Group_596" data-name="Group 596">
                <path id="Path_350" data-name="Path 350" d="M612.587,440.1a3.007,3.007,0,0,0-1.727-1.169,1.837,1.837,0,0,1,1.727,1.169Z" transform="translate(-610.86 -438.914)" fill="#263238"/>
              </g>
            </g>
            <g id="Group_599" data-name="Group 599" transform="translate(5.158 6.681)">
              <g id="Group_598" data-name="Group 598">
                <path id="Path_351" data-name="Path 351" d="M616.628,435.889c-.021.032-.248-.08-.507-.249s-.452-.333-.431-.365.248.08.507.25S616.649,435.857,616.628,435.889Z" transform="translate(-615.689 -435.27)" fill="#263238"/>
              </g>
            </g>
            <g id="Group_601" data-name="Group 601" transform="translate(5.825 6.175)">
              <g id="Group_600" data-name="Group 600">
                <path id="Path_352" data-name="Path 352" d="M617.624,434.794c-.012.036-.224,0-.475-.078s-.445-.173-.434-.209.224,0,.475.078S617.635,434.757,617.624,434.794Z" transform="translate(-616.714 -434.492)" fill="#263238"/>
              </g>
            </g>
            <g id="Group_603" data-name="Group 603" transform="translate(5.745 5.251)">
              <g id="Group_602" data-name="Group 602">
                <path id="Path_353" data-name="Path 353" d="M617.668,433.08c.016.034-.212.175-.509.313a1.339,1.339,0,0,1-.567.189c-.016-.034.211-.175.509-.314A1.341,1.341,0,0,1,617.668,433.08Z" transform="translate(-616.591 -433.072)" fill="#263238"/>
              </g>
            </g>
            <g id="Group_605" data-name="Group 605" transform="translate(5.507 4.484)">
              <g id="Group_604" data-name="Group 604">
                <path id="Path_354" data-name="Path 354" d="M617.41,431.9c.025.026-.184.264-.524.449a1.158,1.158,0,0,1-.66.2,3.59,3.59,0,0,1,.594-.321A3.712,3.712,0,0,1,617.41,431.9Z" transform="translate(-616.226 -431.892)" fill="#263238"/>
              </g>
            </g>
            <g id="Group_607" data-name="Group 607" transform="translate(3.094 6.106)">
              <g id="Group_606" data-name="Group 606">
                <path id="Path_355" data-name="Path 355" d="M614.758,434.836a2.1,2.1,0,0,1-.667.3,4.258,4.258,0,0,1-.779.165,2.106,2.106,0,0,1-.481.017.4.4,0,0,1-.258-.132.286.286,0,0,1-.019-.312,1.339,1.339,0,0,1,1.67-.327,1.3,1.3,0,0,1,.419.345c.078.1.105.168.1.172a2.061,2.061,0,0,0-.56-.43,1.313,1.313,0,0,0-.736-.112,1.132,1.132,0,0,0-.768.414c-.07.126.027.232.176.248a2.191,2.191,0,0,0,.447-.01,4.97,4.97,0,0,0,.766-.133C614.494,434.93,614.749,434.815,614.758,434.836Z" transform="translate(-612.515 -434.386)" fill="#263238"/>
              </g>
            </g>
            <g id="Group_609" data-name="Group 609" transform="translate(4.837 5.076)">
              <g id="Group_608" data-name="Group 608">
                <path id="Path_356" data-name="Path 356" d="M615.537,434.394a.72.72,0,0,1-.286-.427,1.206,1.206,0,0,1-.039-.568.735.735,0,0,1,.4-.591c.163-.05.544.278.57.4.041.122-.192.059-.2.162a2.242,2.242,0,0,1-.132.545,1.042,1.042,0,0,1-.259.442c-.019-.011.079-.18.167-.473a2.548,2.548,0,0,0,.1-.526c.028-.181-.024-.462-.2-.418s-.269.3-.31.481a1.206,1.206,0,0,0,.008.518A2.7,2.7,0,0,0,615.537,434.394Z" transform="translate(-615.195 -432.802)" fill="#263238"/>
              </g>
            </g>
            <g id="Group_611" data-name="Group 611" transform="translate(13.46 0.886)">
              <g id="Group_610" data-name="Group 610">
                <path id="Path_357" data-name="Path 357" d="M631.063,426.363c.008.025-.31.107-.753.374a3.561,3.561,0,0,0-1.732,3.391c.043.516.163.821.139.829a.666.666,0,0,1-.095-.209,2.982,2.982,0,0,1-.14-.609,3.456,3.456,0,0,1,1.78-3.486,3,3,0,0,1,.576-.244A.677.677,0,0,1,631.063,426.363Z" transform="translate(-628.453 -426.361)" fill="#263238"/>
              </g>
            </g>
            <g id="Group_613" data-name="Group 613" transform="translate(8.956 5.139)">
              <g id="Group_612" data-name="Group 612">
                <path id="Path_358" data-name="Path 358" d="M624.553,432.9a9.325,9.325,0,0,1-3.024,1.377c-.013-.038.684-.3,1.517-.678S624.532,432.867,624.553,432.9Z" transform="translate(-621.529 -432.899)" fill="#263238"/>
              </g>
            </g>
            <g id="Group_615" data-name="Group 615" transform="translate(13.876 4.206)">
              <g id="Group_614" data-name="Group 614">
                <path id="Path_359" data-name="Path 359" d="M629.219,431.465c.036.014.01.168.011.354s.026.341-.011.355-.128-.139-.127-.354S629.185,431.451,629.219,431.465Z" transform="translate(-629.092 -431.464)" fill="#263238"/>
              </g>
            </g>
            <g id="Group_617" data-name="Group 617" transform="translate(14.108 2.907)">
              <g id="Group_616" data-name="Group 616">
                <path id="Path_360" data-name="Path 360" d="M629.677,429.468c.036.013.018.152-.04.308s-.134.274-.17.261-.018-.151.04-.308S629.641,429.455,629.677,429.468Z" transform="translate(-629.449 -429.467)" fill="#263238"/>
              </g>
            </g>
            <g id="Group_619" data-name="Group 619" transform="translate(14.722 1.959)">
              <g id="Group_618" data-name="Group 618">
                <path id="Path_361" data-name="Path 361" d="M630.9,428.028c.008.038-.129.1-.258.222s-.2.253-.238.242-.016-.193.144-.342S630.9,427.991,630.9,428.028Z" transform="translate(-630.393 -428.009)" fill="#263238"/>
              </g>
            </g>
            <g id="Group_621" data-name="Group 621" transform="translate(15.654 1.41)">
              <g id="Group_620" data-name="Group 620">
                <path id="Path_362" data-name="Path 362" d="M632.091,427.174c.027.027-.008.107-.079.179s-.15.109-.177.083.008-.107.079-.18S632.064,427.148,632.091,427.174Z" transform="translate(-631.826 -427.166)" fill="#263238"/>
              </g>
            </g>
          </g>
        </g>
        <g id="Group_646" data-name="Group 646" transform="translate(35.407 55.612)">
          <g id="Group_636" data-name="Group 636" transform="translate(0.126)">
            <g id="Group_635" data-name="Group 635">
              <g id="Group_628" data-name="Group 628">
                <g id="Group_627" data-name="Group 627">
                  <g id="Group_626" data-name="Group 626">
                    <g id="Group_625" data-name="Group 625">
                      <g id="Group_624" data-name="Group 624">
                        <path id="Path_363" data-name="Path 363" d="M588.917,199.147l-1.9-23.217,9.775.174s.453-3.423-.987-10.933a12.672,12.672,0,0,0-7.389-9.106V156l-.3-.078a27.932,27.932,0,0,0-8.953-2.336l-12,.139s-9.165-1.143-14.238,5.391c-1.954,2.516-8,19.743-8,19.743l14.4,6.936-1.37-9.552s.272,6.925,1.156,9.12c.492,1.223,1.918,5.019,1.918,5.019l-.186,11.456Z" transform="translate(-544.924 -153.589)" fill="#d81f29"/>
                      </g>
                    </g>
                  </g>
                </g>
              </g>
              <g id="Group_629" data-name="Group 629" transform="translate(35.593 13.837)">
                <path id="Path_364" data-name="Path 364" d="M601.43,180l-1.781,7.587h16.8l-1.1-12.72Z" transform="translate(-599.649 -174.864)" fill="#db3a3a"/>
              </g>
              <g id="Group_631" data-name="Group 631" transform="translate(37.176 26.197)">
                <g id="Group_630" data-name="Group 630">
                  <path id="Path_365" data-name="Path 365" d="M617.3,194.228a12.507,12.507,0,0,0-2.224-.22c-1.377-.081-3.282-.148-5.388-.139s-4.012.1-5.387.211a12,12,0,0,0-2.219.274,15.007,15.007,0,0,0,2.233-.012c1.376-.042,3.275-.092,5.375-.1s4,.018,5.377.031A14.264,14.264,0,0,0,617.3,194.228Z" transform="translate(-602.083 -193.868)" fill="#263238"/>
                </g>
              </g>
              <g id="Group_633" data-name="Group 633" transform="translate(36.59 13.775)">
                <g id="Group_632" data-name="Group 632">
                  <path id="Path_366" data-name="Path 366" d="M601.241,174.768a10.075,10.075,0,0,0-.056,1.93c.013,1.19.056,2.834.126,4.648s.155,3.457.235,4.645a9.987,9.987,0,0,0,.206,1.919,9.936,9.936,0,0,0,.056-1.93c-.012-1.19-.055-2.834-.126-4.649s-.155-3.457-.234-4.644A9.965,9.965,0,0,0,601.241,174.768Z" transform="translate(-601.181 -174.768)" fill="#263238"/>
                </g>
              </g>
              <g id="Group_634" data-name="Group 634" transform="translate(21.362 20.346)" opacity="0.3">
                <path id="Path_367" data-name="Path 367" d="M577.768,184.872S581.5,212.558,592,211.825c0,0,4.726-.056,6.246-3.2v-1.236Z" transform="translate(-577.768 -184.872)"/>
              </g>
            </g>
          </g>
          <g id="Group_637" data-name="Group 637" transform="translate(34.766 15.407)" opacity="0.3">
            <path id="Path_368" data-name="Path 368" d="M600.193,177.277l-2.01,13.572,1.3,2.382,2.142-4.657-.906-.022Z" transform="translate(-598.184 -177.277)"/>
          </g>
          <g id="Group_639" data-name="Group 639" transform="translate(12.87 19.251)">
            <g id="Group_638" data-name="Group 638">
              <path id="Path_369" data-name="Path 369" d="M567.879,200.731a2.839,2.839,0,0,1-.284-.648c-.163-.424-.38-1.045-.631-1.817a55.24,55.24,0,0,1-1.607-6.144,44.411,44.411,0,0,1-.8-6.3c-.039-.812-.051-1.47-.039-1.925a2.84,2.84,0,0,1,.049-.706c.054,0,.09,1,.23,2.615a58.615,58.615,0,0,0,.889,6.254c.483,2.42,1.062,4.581,1.5,6.14q.309,1.084.527,1.846A2.865,2.865,0,0,1,567.879,200.731Z" transform="translate(-564.518 -183.188)" fill="#263238"/>
            </g>
          </g>
          <g id="Group_641" data-name="Group 641" transform="translate(19.609 41.983)">
            <g id="Group_640" data-name="Group 640">
              <path id="Path_370" data-name="Path 370" d="M575.746,220.906c-.09.027-.349-.57-.58-1.334a3.217,3.217,0,0,1-.256-1.432c.089-.027.349.57.58,1.334A3.227,3.227,0,0,1,575.746,220.906Z" transform="translate(-574.879 -218.139)" fill="#263238"/>
            </g>
          </g>
          <g id="Group_643" data-name="Group 643" transform="translate(21.542 40.585)">
            <g id="Group_642" data-name="Group 642">
              <path id="Path_371" data-name="Path 371" d="M578.236,220.048a6,6,0,0,1-.06-4.058,13.644,13.644,0,0,1,.014,2.03A13.674,13.674,0,0,1,578.236,220.048Z" transform="translate(-577.851 -215.99)" fill="#263238"/>
            </g>
          </g>
          <g id="Group_645" data-name="Group 645" transform="translate(0 25.116)">
            <g id="Group_644" data-name="Group 644">
              <path id="Path_372" data-name="Path 372" d="M559.55,199.614c-.042.084-3.394-1.506-7.485-3.551s-7.376-3.771-7.334-3.854,3.392,1.506,7.485,3.551S559.592,199.531,559.55,199.614Z" transform="translate(-544.73 -192.206)" fill="#263238"/>
            </g>
          </g>
        </g>
        <g id="Group_695" data-name="Group 695" transform="translate(51.119 21.887)">
          <g id="Group_677" data-name="Group 677" transform="translate(0 4.318)">
            <g id="Group_676" data-name="Group 676">
              <g id="Group_675" data-name="Group 675">
                <g id="Group_674" data-name="Group 674">
                  <g id="Group_673" data-name="Group 673">
                    <g id="Group_649" data-name="Group 649">
                      <g id="Group_648" data-name="Group 648">
                        <g id="Group_647" data-name="Group 647">
                          <path id="Path_373" data-name="Path 373" d="M573.9,140.165c.075-3.29.093-6.756.093-6.756s-4.22-.813-4.955-6.366c-.7-5.3,1.26-17.721,1.26-17.721h0c6.165-2.33,12.571-.218,16.8,4.777h0l-1.048,26.714a5.735,5.735,0,0,1-6.205,5.311h0A6.058,6.058,0,0,1,573.9,140.165Z" transform="translate(-568.887 -108.375)" fill="#b78876"/>
                        </g>
                      </g>
                    </g>
                    <g id="Group_657" data-name="Group 657" transform="translate(0.817 9.235)">
                      <g id="Group_652" data-name="Group 652" transform="translate(0.273 1.019)">
                        <g id="Group_651" data-name="Group 651">
                          <g id="Group_650" data-name="Group 650">
                            <path id="Path_374" data-name="Path 374" d="M570.564,124.765a.71.71,0,0,0,.665.733.678.678,0,0,0,.747-.62.71.71,0,0,0-.665-.734A.679.679,0,0,0,570.564,124.765Z" transform="translate(-570.563 -124.141)" fill="#263238"/>
                          </g>
                        </g>
                      </g>
                      <g id="Group_656" data-name="Group 656">
                        <g id="Group_655" data-name="Group 655">
                          <g id="Group_654" data-name="Group 654">
                            <g id="Group_653" data-name="Group 653">
                              <path id="Path_375" data-name="Path 375" d="M570.153,123.285c.085.095.633-.289,1.4-.267s1.312.418,1.4.326c.042-.04-.044-.209-.283-.393a1.95,1.95,0,0,0-1.116-.376,1.873,1.873,0,0,0-1.114.328C570.2,123.078,570.111,123.243,570.153,123.285Z" transform="translate(-570.143 -122.574)" fill="#263238"/>
                            </g>
                          </g>
                        </g>
                      </g>
                    </g>
                    <g id="Group_665" data-name="Group 665" transform="translate(8.773 9.719)">
                      <g id="Group_660" data-name="Group 660" transform="translate(0.061 1.018)">
                        <g id="Group_659" data-name="Group 659">
                          <g id="Group_658" data-name="Group 658">
                            <path id="Path_376" data-name="Path 376" d="M582.47,125.506a.709.709,0,0,0,.665.733.678.678,0,0,0,.747-.62.71.71,0,0,0-.665-.734A.679.679,0,0,0,582.47,125.506Z" transform="translate(-582.469 -124.882)" fill="#263238"/>
                          </g>
                        </g>
                      </g>
                      <g id="Group_664" data-name="Group 664">
                        <g id="Group_663" data-name="Group 663">
                          <g id="Group_662" data-name="Group 662">
                            <g id="Group_661" data-name="Group 661">
                              <path id="Path_377" data-name="Path 377" d="M582.385,124.027c.086.095.634-.289,1.4-.267s1.313.418,1.4.327c.042-.04-.043-.21-.284-.393a1.941,1.941,0,0,0-1.115-.376,1.864,1.864,0,0,0-1.114.328C582.428,123.82,582.344,123.985,582.385,124.027Z" transform="translate(-582.375 -123.317)" fill="#263238"/>
                            </g>
                          </g>
                        </g>
                      </g>
                    </g>
                    <g id="Group_669" data-name="Group 669" transform="translate(3.937 9.667)">
                      <g id="Group_668" data-name="Group 668">
                        <g id="Group_667" data-name="Group 667">
                          <g id="Group_666" data-name="Group 666">
                            <path id="Path_378" data-name="Path 378" d="M576.87,129.589a5.017,5.017,0,0,0-1.234-.256c-.194-.025-.378-.069-.407-.2a.994.994,0,0,1,.145-.574l.615-1.469a25.449,25.449,0,0,0,1.394-3.848,25.527,25.527,0,0,0-1.7,3.727q-.309.774-.591,1.479a1.128,1.128,0,0,0-.121.762.489.489,0,0,0,.313.293,1.327,1.327,0,0,0,.33.055A4.987,4.987,0,0,0,576.87,129.589Z" transform="translate(-574.94 -123.238)" fill="#263238"/>
                          </g>
                        </g>
                      </g>
                    </g>
                    <g id="Group_672" data-name="Group 672" transform="translate(5.107 23.25)">
                      <g id="Group_671" data-name="Group 671">
                        <g id="Group_670" data-name="Group 670">
                          <path id="Path_379" data-name="Path 379" d="M576.739,145.907a14.072,14.072,0,0,0,7.457-1.784s-1.9,3.752-7.417,3.092Z" transform="translate(-576.739 -144.123)" fill="#a36957"/>
                        </g>
                      </g>
                    </g>
                  </g>
                </g>
              </g>
            </g>
          </g>
          <g id="Group_679" data-name="Group 679" transform="translate(8.55 11.521)">
            <g id="Group_678" data-name="Group 678">
              <path id="Path_380" data-name="Path 380" d="M584.708,120.474c-.156.239-.737.133-1.387.016s-1.227-.246-1.285-.526.607-.639,1.475-.472S584.867,120.248,584.708,120.474Z" transform="translate(-582.032 -119.45)" fill="#263238"/>
            </g>
          </g>
          <g id="Group_681" data-name="Group 681" transform="translate(0.803 10.823)">
            <g id="Group_680" data-name="Group 680">
              <path id="Path_381" data-name="Path 381" d="M572.956,118.978c-.059.278-.68.379-1.4.416s-1.346-.015-1.43-.287.521-.69,1.383-.728S573.017,118.708,572.956,118.978Z" transform="translate(-570.121 -118.376)" fill="#263238"/>
            </g>
          </g>
          <g id="Group_682" data-name="Group 682" transform="translate(5.407 22.132)">
            <path id="Path_382" data-name="Path 382" d="M577.673,135.794a.385.385,0,0,0-.422.193.434.434,0,1,0,.259-.207" transform="translate(-577.2 -135.765)" fill="#a36957"/>
          </g>
          <g id="Group_684" data-name="Group 684" transform="translate(5.163 22.075)">
            <g id="Group_683" data-name="Group 683">
              <path id="Path_383" data-name="Path 383" d="M577.72,135.839c.034-.031-.122-.218-.455-.145a.579.579,0,0,0-.418.408.654.654,0,0,0,.23.691.642.642,0,0,0,.732,0,.549.549,0,0,0,.235-.542c-.067-.343-.321-.4-.328-.35-.029.044.088.162.066.365a.288.288,0,0,1-.155.239.33.33,0,0,1-.33-.014.344.344,0,0,1-.117-.315.33.33,0,0,1,.176-.241C577.536,135.838,577.7,135.886,577.72,135.839Z" transform="translate(-576.825 -135.677)" fill="#263238"/>
            </g>
          </g>
          <g id="Group_694" data-name="Group 694" transform="translate(1.09)">
            <g id="Group_685" data-name="Group 685">
              <path id="Path_384" data-name="Path 384" d="M585.123,118.3c-.658,1.525-2.263,2.7-2.041,4.345.144,1.062.825,2.053.693,3.117-.167,1.336-1.554,2.262-1.751,3.593-.241,1.634,1.348,2.9,1.983,4.428.924,2.22-.258,4.717-.286,7.121a7.635,7.635,0,0,0,6.76,7.426,4.124,4.124,0,0,0,3.927-1.6c.635-1.053.509-2.39.889-3.558.568-1.74,2.226-3.015,2.576-4.812.637-3.276-3.322-5.987-3.061-9.314.111-1.421.989-2.661,1.362-4.038a5.916,5.916,0,0,0-1.162-5.263c-.977-1.162-2.395-1.926-3.227-3.2-.944-1.44-.976-3.266-1.333-4.95a12.47,12.47,0,0,0-19.806-7.3s-.946,4.287,3.454,5,6.44-.111,6.936,1.653a4.663,4.663,0,0,0,1.318,4.028C584.175,116.949,585.885,116.538,585.123,118.3Z" transform="translate(-570.563 -101.736)" fill="#263238"/>
            </g>
            <g id="Group_687" data-name="Group 687" transform="translate(14.258 11.989)">
              <g id="Group_686" data-name="Group 686">
                <path id="Path_385" data-name="Path 385" d="M599.809,154.478a1.806,1.806,0,0,1-.4-.042,5.947,5.947,0,0,1-1.119-.3,7.9,7.9,0,0,1-3.4-2.52,8.918,8.918,0,0,1-1.448-2.576,10.345,10.345,0,0,1-.591-3.339,13.6,13.6,0,0,1,.469-3.714,16.214,16.214,0,0,1,.622-1.882,18.74,18.74,0,0,0,.714-1.869,3.513,3.513,0,0,0-.006-1.908,10.375,10.375,0,0,0-.74-1.781,11.884,11.884,0,0,1-.758-1.763,3.809,3.809,0,0,1-.137-1.869,13.226,13.226,0,0,1,1.443-3.062,5.826,5.826,0,0,0,.589-2.771,6.547,6.547,0,0,0-1.45-3.837,11.606,11.606,0,0,0-1.1-1.076,4.5,4.5,0,0,1,1.205.99,6.523,6.523,0,0,1,1.59,3.912,6.018,6.018,0,0,1-.576,2.9,13.472,13.472,0,0,0-1.389,3,5.481,5.481,0,0,0,.885,3.426,10.581,10.581,0,0,1,.767,1.839,3.856,3.856,0,0,1,.008,2.084,18.686,18.686,0,0,1-.728,1.906,16,16,0,0,0-.615,1.842,13.459,13.459,0,0,0-.477,3.624,9.385,9.385,0,0,0,1.915,5.772,8.024,8.024,0,0,0,3.265,2.546C599.257,154.384,599.817,154.44,599.809,154.478Z" transform="translate(-592.485 -120.169)" fill="#455a64"/>
              </g>
            </g>
            <g id="Group_689" data-name="Group 689" transform="translate(1.573 1.962)">
              <g id="Group_688" data-name="Group 688">
                <path id="Path_386" data-name="Path 386" d="M592.343,116.269a4.608,4.608,0,0,1-.969.144,10.1,10.1,0,0,1-2.679-.07,5.093,5.093,0,0,1-3.38-2.051,11.008,11.008,0,0,1-.887-2.183,3.608,3.608,0,0,0-1.482-1.828,10.551,10.551,0,0,0-4.562-1.191,7.922,7.922,0,0,1-3.791-1.18,3.758,3.758,0,0,1-1.552-2.172,2.336,2.336,0,0,1-.05-.733.746.746,0,0,1,.053-.251,4.775,4.775,0,0,0,.125.952,3.744,3.744,0,0,0,1.561,2.008,7.9,7.9,0,0,0,3.69,1.067A10.564,10.564,0,0,1,583.129,110a3.914,3.914,0,0,1,1.607,1.993,11.244,11.244,0,0,0,.841,2.135,4.912,4.912,0,0,0,3.163,1.984,11.381,11.381,0,0,0,2.626.174A6.6,6.6,0,0,1,592.343,116.269Z" transform="translate(-572.981 -104.752)" fill="#455a64"/>
              </g>
            </g>
            <g id="Group_691" data-name="Group 691" transform="translate(2.766 1.117)">
              <g id="Group_690" data-name="Group 690">
                <path id="Path_387" data-name="Path 387" d="M591.37,110.518a1.978,1.978,0,0,1-.762.113,4.663,4.663,0,0,1-3.262-1.3,6.183,6.183,0,0,1-1.009-1.346c-.587-.989-1.151-2.209-2.367-2.713a7.779,7.779,0,0,0-3.644-.321,11.138,11.138,0,0,1-3.11-.026,3.874,3.874,0,0,1-1.919-.86,2.208,2.208,0,0,1-.382-.429c-.073-.109-.106-.169-.1-.176.027-.021.182.209.563.5a3.994,3.994,0,0,0,1.875.726,11.719,11.719,0,0,0,3.043-.049,7.835,7.835,0,0,1,3.808.321,3.761,3.761,0,0,1,1.552,1.29,17.227,17.227,0,0,1,.947,1.577,6.1,6.1,0,0,0,.937,1.3,4.475,4.475,0,0,0,1.119.826,4.824,4.824,0,0,0,1.949.544C591.095,110.526,591.366,110.489,591.37,110.518Z" transform="translate(-574.816 -103.454)" fill="#455a64"/>
              </g>
            </g>
            <g id="Group_693" data-name="Group 693" transform="translate(18.932 13.809)">
              <g id="Group_692" data-name="Group 692">
                <path id="Path_388" data-name="Path 388" d="M604.262,154.053c-.033-.015.174-.434.414-1.234a11.2,11.2,0,0,0,.433-3.486,10.711,10.711,0,0,0-1.387-4.966c-.475-.852-1.2-1.611-1.787-2.546a4.6,4.6,0,0,1-.656-1.57,3.548,3.548,0,0,1,.144-1.755,20.536,20.536,0,0,0,1.158-3.1,4.274,4.274,0,0,0-.844-2.819,12.973,12.973,0,0,1-.7-1.293,4.65,4.65,0,0,1-.368-1.358,12.043,12.043,0,0,1,.074-2.48,6.561,6.561,0,0,0-.308-3.456,3.134,3.134,0,0,0-.768-1.018c0-.005.03.007.079.037a1.314,1.314,0,0,1,.208.148,2.406,2.406,0,0,1,.6.775,6.444,6.444,0,0,1,.428,3.534,12.212,12.212,0,0,0-.033,2.425,6.158,6.158,0,0,0,1.054,2.526,8.592,8.592,0,0,1,.708,1.383,3.279,3.279,0,0,1,.2,1.642,19.448,19.448,0,0,1-1.164,3.158,3.227,3.227,0,0,0-.135,1.592,4.3,4.3,0,0,0,.605,1.456c.558.9,1.285,1.673,1.776,2.565a10.74,10.74,0,0,1,1.356,5.117,10.52,10.52,0,0,1-.547,3.532,7.686,7.686,0,0,1-.375.9A1.282,1.282,0,0,1,604.262,154.053Z" transform="translate(-599.67 -122.968)" fill="#455a64"/>
              </g>
            </g>
          </g>
        </g>
        <g id="Group_705" data-name="Group 705" transform="translate(44.495 99.268)">
          <g id="Group_696" data-name="Group 696" transform="translate(0.105 0.166)">
            <path id="Path_389" data-name="Path 389" d="M563.5,309.5s-4.38-41.523-4.631-56.866,6.9-30.482,6.9-30.482l28.021-1.185s5.539,15.568,5.638,22.107c.193,12.707-3.376,25.257-2.965,35.337L597.4,309.5" transform="translate(-558.865 -220.967)" fill="#263238"/>
          </g>
          <g id="Group_698" data-name="Group 698" transform="translate(3.823 37.652)">
            <g id="Group_697" data-name="Group 697">
              <path id="Path_390" data-name="Path 390" d="M600.336,278.6a3.746,3.746,0,0,1-.457.346l-.255.18c-.088.074-.173.168-.272.262a4.173,4.173,0,0,0-.624.7,15.51,15.51,0,0,0-2.193,5.558,18.683,18.683,0,0,1-1.419,3.951,7.126,7.126,0,0,1-.622.983c-.121.156-.232.323-.366.473l-.432.431a6.967,6.967,0,0,1-2.107,1.352c-1.569.687-3.339,1.014-4.957,1.825a7.83,7.83,0,0,0-3.6,4.1c-.789,1.763-1.268,3.613-1.926,5.34a9.677,9.677,0,0,1-2.925,4.436,8.031,8.031,0,0,1-4.585,1.437c-1.509.088-2.906.044-4.159.234a6.571,6.571,0,0,0-3.137,1.184,4.367,4.367,0,0,0-1.458,2.052,3.079,3.079,0,0,0-.109,1.595c.072.366.175.54.152.55a1.67,1.67,0,0,1-.219-.534,3.027,3.027,0,0,1,.049-1.649,4.457,4.457,0,0,1,1.465-2.161,6.7,6.7,0,0,1,3.219-1.272c1.276-.208,2.689-.178,4.176-.278a7.783,7.783,0,0,0,4.415-1.4,9.417,9.417,0,0,0,2.8-4.306c.646-1.707,1.122-3.56,1.927-5.361a8.146,8.146,0,0,1,3.755-4.256c1.683-.835,3.454-1.151,4.983-1.815a6.709,6.709,0,0,0,2.029-1.284l.414-.408c.129-.142.236-.3.354-.451a6.867,6.867,0,0,0,.608-.944,18.773,18.773,0,0,0,1.435-3.881c.656-2.457,1.362-4.468,2.319-5.575a4.143,4.143,0,0,1,.66-.691c.1-.092.195-.183.287-.254l.269-.17A3.631,3.631,0,0,1,600.336,278.6Z" transform="translate(-564.582 -278.602)" fill="#fafafa"/>
            </g>
          </g>
          <g id="Group_700" data-name="Group 700" transform="translate(1.147 18.437)">
            <g id="Group_699" data-name="Group 699">
              <path id="Path_391" data-name="Path 391" d="M599.071,249.059a3.361,3.361,0,0,1,.036.556,6.9,6.9,0,0,1-.194,1.589,10.276,10.276,0,0,1-3.166,4.894,18.806,18.806,0,0,1-3.282,2.4c-1.255.745-2.641,1.455-4.06,2.256a21.229,21.229,0,0,0-4.153,2.92,16.041,16.041,0,0,0-3.146,4.421,40.808,40.808,0,0,1-2.728,4.806,11.484,11.484,0,0,1-1.779,1.967,11.214,11.214,0,0,1-2.115,1.409,26.2,26.2,0,0,1-4.354,1.669c-1.391.431-2.687.811-3.821,1.286a14.906,14.906,0,0,0-2.914,1.561,9.064,9.064,0,0,0-1.83,1.687,8.736,8.736,0,0,0-1.1,1.824,3.413,3.413,0,0,1,.181-.527,6.441,6.441,0,0,1,.813-1.378,8.9,8.9,0,0,1,1.823-1.759,14.759,14.759,0,0,1,2.932-1.629c1.143-.495,2.447-.892,3.83-1.333A26.321,26.321,0,0,0,574.34,276a10.968,10.968,0,0,0,2.049-1.378,11.2,11.2,0,0,0,1.72-1.915,41.214,41.214,0,0,0,2.7-4.771,16.288,16.288,0,0,1,3.217-4.5,21.316,21.316,0,0,1,4.228-2.951c1.432-.8,2.819-1.5,4.071-2.226a18.884,18.884,0,0,0,3.262-2.332,10.361,10.361,0,0,0,3.2-4.751A10.052,10.052,0,0,0,599.071,249.059Z" transform="translate(-560.467 -249.059)" fill="#fafafa"/>
            </g>
          </g>
          <g id="Group_702" data-name="Group 702">
            <g id="Group_701" data-name="Group 701">
              <path id="Path_392" data-name="Path 392" d="M558.956,254.744a.421.421,0,0,1-.057-.126,2.791,2.791,0,0,1-.061-1.947,6.375,6.375,0,0,1,4.119-3.8c1.153-.4,2.462-.635,3.826-.993a7.166,7.166,0,0,0,5.3-3.944,20.023,20.023,0,0,0,.972-2.337,25.439,25.439,0,0,1,2.062-4.987,7.964,7.964,0,0,1,4.243-3.3,38.821,38.821,0,0,1,4.868-1.234,16.123,16.123,0,0,0,4.233-1.441,8.864,8.864,0,0,0,2.865-2.581,9.676,9.676,0,0,0,1.82-5.268,15.079,15.079,0,0,0-.139-2.079,6.866,6.866,0,0,1,.27,2.081,9.608,9.608,0,0,1-1.757,5.4,9.041,9.041,0,0,1-2.923,2.687,16.239,16.239,0,0,1-4.3,1.5,39.509,39.509,0,0,0-4.823,1.24,7.646,7.646,0,0,0-4.071,3.168,25.5,25.5,0,0,0-2.037,4.918,20.124,20.124,0,0,1-1,2.375,7.439,7.439,0,0,1-5.517,4.067c-1.383.349-2.684.573-3.821.948a6.3,6.3,0,0,0-4.068,3.609,3.179,3.179,0,0,0-.124,1.507C558.913,254.559,558.971,254.738,558.956,254.744Z" transform="translate(-558.703 -220.711)" fill="#fafafa"/>
            </g>
          </g>
          <g id="Group_704" data-name="Group 704" transform="translate(4.718 69.143)">
            <g id="Group_703" data-name="Group 703">
              <path id="Path_393" data-name="Path 393" d="M598.58,327.019a1.843,1.843,0,0,1,.045.408,4.336,4.336,0,0,1-.12,1.175,6.677,6.677,0,0,1-2.458,3.513,10.96,10.96,0,0,1-2.579,1.532,34.109,34.109,0,0,1-3.238,1.119,26.759,26.759,0,0,0-3.517,1.285,10.16,10.16,0,0,0-3.2,2.335c-.949.994-1.768,2.079-2.676,3.038a12.247,12.247,0,0,1-3,2.346,13.17,13.17,0,0,1-6.185,1.608,12.264,12.264,0,0,1-4.258-.708,7.793,7.793,0,0,1-1.08-.463,1.862,1.862,0,0,1-.358-.2,1.884,1.884,0,0,1,.386.137,10.464,10.464,0,0,0,1.094.4,12.839,12.839,0,0,0,4.211.593,13.136,13.136,0,0,0,6.038-1.641,12.054,12.054,0,0,0,2.908-2.3c.89-.944,1.7-2.03,2.672-3.045a10.43,10.43,0,0,1,3.3-2.4,26.331,26.331,0,0,1,3.568-1.283c1.15-.35,2.243-.674,3.221-1.08a10.91,10.91,0,0,0,2.54-1.461,6.711,6.711,0,0,0,2.479-3.359A7.68,7.68,0,0,0,598.58,327.019Z" transform="translate(-565.957 -327.019)" fill="#fafafa"/>
            </g>
          </g>
        </g>
        <g id="Group_708" data-name="Group 708" transform="translate(50.738 49.524)">
          <path id="Path_394" data-name="Path 394" d="M596.206,176.931l-5.418.128a8.862,8.862,0,0,1-1.225,3.074,93.542,93.542,0,0,1-8.916-22.636c.127-.423.277-.891.465-1.414a6.005,6.005,0,0,0-.072-2.382c-.152-.942-.416-2.211-.495-2.8-.241-1.789-.529-2.07-1.154-1.868-.849.275.349,5.026-.347,5.128-.374.055-.831-1.572-.964-2.907s-.736-5.443-1.178-5.716c-.647-.4-1.211.233-1.047,1.563.165,1.346.374,5.359-.332,5.413s-1.279-6.756-1.279-6.756.11-1.482-.707-1.446c-1.474.064-.322,7.243-.2,7.923.088.473-.678.56-.745.047-.07-.529-.425-6.81-1.925-6.76-1.152.039.892,5.916.245,7.279s-1.1-4.627-2.2-4.544c-.409.031-.712.111.04,3.5a76.488,76.488,0,0,0,2.629,7.945c1.742,9.4,9.39,39.464,21.379,33.96,6.708-3.08,9.43-16.729,9.43-16.729Z" transform="translate(-568.301 -144.258)" fill="#b78876"/>
          <g id="Group_707" data-name="Group 707" transform="translate(4.514)">
            <g id="Group_706" data-name="Group 706">
              <path id="Path_395" data-name="Path 395" d="M575.511,152.668a.369.369,0,0,0,.156-.021.348.348,0,0,0,.245-.375c-.016-.4-.079-.992-.172-1.752a25.267,25.267,0,0,1-.3-2.771c-.008-.544.005-1.13.036-1.75a6.107,6.107,0,0,1,.095-.937c.051-.295.248-.632.475-.591l.025,0h.011c.232-.01.412.17.487.446a2.56,2.56,0,0,1,.085.87v.021a52.7,52.7,0,0,0,.7,5.431c.053.243.107.487.182.734a3.513,3.513,0,0,0,.135.373,1.157,1.157,0,0,0,.11.193.354.354,0,0,0,.272.17.486.486,0,0,0,.409-.341,1.961,1.961,0,0,0,.122-.4,6,6,0,0,0,.1-.793,23.727,23.727,0,0,0-.044-3.253,7.524,7.524,0,0,1-.068-1.629.9.9,0,0,1,.32-.607.352.352,0,0,1,.28-.036.662.662,0,0,1,.155.067.212.212,0,0,1,.072.1,8.129,8.129,0,0,1,.451,1.634c.115.576.215,1.162.307,1.755s.176,1.193.246,1.8a12.48,12.48,0,0,0,.3,1.85,6.147,6.147,0,0,0,.293.919,1.644,1.644,0,0,0,.268.46.386.386,0,0,0,.389.142.416.416,0,0,0,.266-.292,3.2,3.2,0,0,0,.068-1.012c-.014-.323-.04-.641-.068-.961-.046-.548-.1-1.089-.117-1.623a5.471,5.471,0,0,1,.02-.782,1.247,1.247,0,0,1,.079-.34.307.307,0,0,1,.062-.1c.01-.01.017-.006.025-.016l.085-.024c.431-.178.575.422.689.906.1.5.163,1.026.265,1.539.172,1.024.39,2.042.5,3.021a3.5,3.5,0,0,1-.057,1.4l-.457,1.4-.014.042.01.044a75.235,75.235,0,0,0,2.91,9.4c1.03,2.775,2.059,5.174,2.968,7.136s1.718,3.476,2.28,4.507l.676,1.163a2.771,2.771,0,0,0,.251.391,2.715,2.715,0,0,0-.2-.42c-.155-.294-.363-.689-.627-1.188-.528-1.047-1.309-2.572-2.185-4.543s-1.881-4.372-2.887-7.147a77.3,77.3,0,0,1-2.845-9.373l0,.085.456-1.376a3.781,3.781,0,0,0,.08-1.556c-.116-1.017-.329-2.005-.5-3.035-.1-.509-.162-1.031-.267-1.564a3.086,3.086,0,0,0-.265-.805.785.785,0,0,0-.359-.362.8.8,0,0,0-.513-.021l-.109.031a.557.557,0,0,0-.148.084.631.631,0,0,0-.165.231,1.6,1.6,0,0,0-.109.444,5.77,5.77,0,0,0-.022.839c.019.552.072,1.1.118,1.644.027.317.053.633.067.945a3.063,3.063,0,0,1-.048.874c-.016.068-.049.055-.012.088l0,0c0-.021.005.033,0,.024v-.007a.041.041,0,0,1,0-.022c0-.006.018-.029.009-.031a.1.1,0,0,1-.039-.036,1.394,1.394,0,0,1-.2-.353,5.976,5.976,0,0,1-.276-.863,12.262,12.262,0,0,1-.293-1.8c-.073-.612-.158-1.215-.252-1.812s-.2-1.187-.314-1.77a8.07,8.07,0,0,0-.494-1.737.585.585,0,0,0-.2-.228,1.01,1.01,0,0,0-.243-.1.709.709,0,0,0-.55.076,1.218,1.218,0,0,0-.481.847,3.085,3.085,0,0,0-.011.891c.033.278.059.55.081.825a23.583,23.583,0,0,1,.059,3.2,5.776,5.776,0,0,1-.094.751,1.678,1.678,0,0,1-.1.337.42.42,0,0,1-.071.122c-.023.054-.044-.012-.042.075.033-.066,0-.029-.024-.085a.919.919,0,0,1-.077-.135,3.246,3.246,0,0,1-.123-.333c-.072-.231-.128-.47-.18-.707a54.039,54.039,0,0,1-.735-5.389v.021a2.789,2.789,0,0,0-.106-.967.984.984,0,0,0-.254-.433.675.675,0,0,0-.482-.176l.036,0a.561.561,0,0,0-.561.269,1.4,1.4,0,0,0-.2.505,6.051,6.051,0,0,0-.087.977c-.023.626-.028,1.214-.01,1.765a23.2,23.2,0,0,0,.359,2.784c.113.756.2,1.342.234,1.738a.307.307,0,0,1-.19.34C575.563,152.654,575.51,152.66,575.511,152.668Z" transform="translate(-575.241 -144.228)" fill="#a36957"/>
            </g>
          </g>
        </g>
        <path id="Path_396" data-name="Path 396" d="M503.456,208.229a13.97,13.97,0,0,0-3.768.432c-3.359.884-9.157,4.4-9.4,8.739H494.5s-2.358,5.02-1.665,4.555a54.186,54.186,0,0,0,5.378-4.844Z" transform="translate(-490.291 -117.077)" fill="#b78876"/>
        <g id="Group_715" data-name="Group 715" transform="translate(69.221)">
          <g id="Group_710" data-name="Group 710">
            <g id="Group_709" data-name="Group 709">
              <path id="Path_397" data-name="Path 397" d="M598.111,83.668c-.093.008-.475-3.474-.854-7.777s-.609-7.8-.516-7.807.475,3.473.853,7.777S598.2,83.659,598.111,83.668Z" transform="translate(-596.72 -68.084)" fill="#263238"/>
            </g>
          </g>
          <g id="Group_712" data-name="Group 712" transform="translate(6.879 0.212)">
            <g id="Group_711" data-name="Group 711">
              <path id="Path_398" data-name="Path 398" d="M620.284,68.411c.077.054-2.769,4.184-6.354,9.223s-6.555,9.082-6.631,9.027,2.769-4.183,6.356-9.223S620.208,68.357,620.284,68.411Z" transform="translate(-607.297 -68.41)" fill="#263238"/>
            </g>
          </g>
          <g id="Group_714" data-name="Group 714" transform="translate(12.642 18.921)">
            <g id="Group_713" data-name="Group 713">
              <path id="Path_399" data-name="Path 399" d="M631.059,97.184c.019.091-3.3.851-7.416,1.7s-7.466,1.457-7.485,1.365,3.3-.851,7.417-1.7S631.04,97.092,631.059,97.184Z" transform="translate(-616.158 -97.175)" fill="#263238"/>
            </g>
          </g>
        </g>
      </g>
    </g>
    <g id="Folder" transform="translate(142.425 122.428)">
      <g id="Group_721" data-name="Group 721" transform="translate(0)">
        <g id="Group_717" data-name="Group 717" transform="translate(56.19 22.136)">
          <path id="Path_400" data-name="Path 400" d="M284.977,230.253l-23,118.242-3.011,15.479,153.535-.757c6.89-.034,13-6.152,15.214-15.242l27.225-111.632c1.683-6.9-2.01-14.077-7.24-14.072l-155.4.163C288.875,222.437,285.876,225.638,284.977,230.253Z" transform="translate(-258.968 -222.27)" fill="#e8505b"/>
        </g>
        <g id="Group_718" data-name="Group 718" transform="translate(56.19 22.136)" opacity="0.5">
          <path id="Path_401" data-name="Path 401" d="M284.977,230.253l-23,118.242-3.011,15.479,153.535-.757c6.89-.034,13-6.152,15.214-15.242l27.225-111.632c1.683-6.9-2.01-14.077-7.24-14.072l-155.4.163C288.875,222.437,285.876,225.638,284.977,230.253Z" transform="translate(-258.968 -222.27)"/>
        </g>
        <g id="Group_719" data-name="Group 719">
          <path id="Path_402" data-name="Path 402" d="M367.572,328.585l-16.256-131a10.31,10.31,0,0,0-9.989-9.355l-35.646.116a9.714,9.714,0,0,0-7.041,3.123l-16.927,17.993-99.138.518c-6.058.031-10.713,5.764-9.909,12.2l15.092,121.074a10.311,10.311,0,0,0,9.977,9.348l172.776-.341c19.243.4,21.08-5.284,21.08-5.284C369.538,351.873,367.574,328.6,367.572,328.585Z" transform="translate(-172.575 -188.235)" fill="#d81f29"/>
        </g>
        <g id="Group_720" data-name="Group 720" transform="translate(69.791 72.372)" opacity="0.5">
          <path id="Path_403" data-name="Path 403" d="M330.587,342.015l-5.827,6.258L279.88,307.9l5.827-6.258Z" transform="translate(-279.88 -300.254)" fill="#fff"/>
          <path id="Path_404" data-name="Path 404" d="M323.3,299.509l6.44,5.793-40.608,43.613-6.44-5.794Z" transform="translate(-280.864 -299.509)" fill="#fff"/>
        </g>
      </g>
    </g>
    <g id="Speech_Bubble" data-name="Speech Bubble" transform="translate(341.167 37.809)">
      <g id="Group_730" data-name="Group 730">
        <g id="Group_726" data-name="Group 726" transform="translate(15.583 11.949)">
          <g id="Group_723" data-name="Group 723">
            <g id="Group_722" data-name="Group 722">
              <path id="Path_405" data-name="Path 405" d="M507.447,94.247a1.214,1.214,0,0,1-.735-1.064l-.26-6.038a1.213,1.213,0,0,1,1.491-1.233,3.772,3.772,0,0,0,2.937-.58,3.4,3.4,0,0,0,1.518-2.224,3.476,3.476,0,0,0-.73-2.612,3.873,3.873,0,0,0-2.563-1.543,4.547,4.547,0,0,0-4.617,3.276,1.213,1.213,0,1,1-2.342-.636,6.992,6.992,0,0,1,7.237-5.052,6.261,6.261,0,0,1,4.221,2.492,5.908,5.908,0,0,1,1.19,4.466,5.828,5.828,0,0,1-2.567,3.852,6.356,6.356,0,0,1-3.292,1.074l.2,4.654a1.215,1.215,0,0,1-1.69,1.168Z" transform="translate(-502.103 -76.504)" fill="#d81f29"/>
            </g>
          </g>
          <g id="Group_725" data-name="Group 725" transform="translate(5.14 19.285)">
            <g id="Group_724" data-name="Group 724">
              <path id="Path_406" data-name="Path 406" d="M511.989,107.08a.993.993,0,1,1-1.058-.922A.993.993,0,0,1,511.989,107.08Z" transform="translate(-510.006 -106.155)" fill="#d81f29"/>
            </g>
          </g>
        </g>
        <g id="Group_729" data-name="Group 729">
          <g id="Group_728" data-name="Group 728">
            <g id="Group_727" data-name="Group 727">
              <path id="Path_407" data-name="Path 407" d="M478.171,79.31a2.505,2.505,0,0,0,.059-.4c.031-.283.073-.668.127-1.163a13.689,13.689,0,0,1,.314-1.869c.086-.364.13-.769.263-1.179s.261-.85.4-1.313a22.363,22.363,0,0,1,3.234-6.2A21.81,21.81,0,0,1,502.736,58.7c.5.047.99.181,1.491.268a10.223,10.223,0,0,1,1.5.361,20.66,20.66,0,0,1,5.817,2.637,21.757,21.757,0,0,1,8.6,10.8,21.238,21.238,0,0,1,1.275,7.42,20.858,20.858,0,0,1-1.361,7.637l-.293.743-.039.1.04.092c1.632,3.757,3.231,7.442,4.782,11.013l.273-.311-9.74-3.742-.12-.046-.094.091a21.778,21.778,0,0,1-9.2,5.311A21.632,21.632,0,0,1,488.1,98.345a22.284,22.284,0,0,1-5.484-5.106,21.57,21.57,0,0,1-4.161-9.973q-.116-.952-.2-1.692-.019-.73-.033-1.243c-.01-.319-.019-.571-.025-.762a1.333,1.333,0,0,0-.021-.259,1.446,1.446,0,0,0-.016.258c0,.191-.006.442-.01.764q0,.516,0,1.249l.172,1.706a23.7,23.7,0,0,0,1.112,4.593,23.945,23.945,0,0,0,2.982,5.528,22.452,22.452,0,0,0,5.523,5.216,21.9,21.9,0,0,0,17.827,2.846,22.135,22.135,0,0,0,9.383-5.386l-.215.045,9.735,3.758.49.189-.217-.5-4.775-11.016v.19l.3-.759a21.3,21.3,0,0,0,1.389-7.807,21.69,21.69,0,0,0-1.311-7.582,22.148,22.148,0,0,0-8.787-11,21.021,21.021,0,0,0-5.93-2.667,10.567,10.567,0,0,0-1.523-.362c-.511-.087-1.011-.22-1.517-.267a21.426,21.426,0,0,0-13.526,2.645,21.881,21.881,0,0,0-6.879,6.081,22.26,22.26,0,0,0-3.2,6.3q-.2.7-.387,1.331c-.128.414-.167.824-.246,1.192a12.874,12.874,0,0,0-.274,1.887c-.036.5-.064.886-.085,1.171A2.783,2.783,0,0,0,478.171,79.31Z" transform="translate(-478.144 -58.132)" fill="#263238"/>
            </g>
          </g>
        </g>
      </g>
    </g>
  </g>
</svg>
