<svg xmlns="http://www.w3.org/2000/svg" xmlns:xlink="http://www.w3.org/1999/xlink" width="1052.399" height="866.31" viewBox="0 0 1052.399 866.31">
  <defs>
    <clipPath id="clip-path">
      <rect id="Rectangle_8" data-name="Rectangle 8" width="778.769" height="440.099" fill="#fff" stroke="#1a2e35" stroke-miterlimit="10" stroke-width="0.69"/>
    </clipPath>
    <linearGradient id="linear-gradient" y1="0.5" x2="1" y2="0.5" gradientUnits="objectBoundingBox">
      <stop offset="0" stop-color="#260005"/>
      <stop offset="0.063" stop-color="#3a0005"/>
      <stop offset="0.152" stop-color="#500005"/>
      <stop offset="0.25" stop-color="#5f0005"/>
      <stop offset="0.362" stop-color="#690005"/>
      <stop offset="0.521" stop-color="#6c0005"/>
      <stop offset="0.643" stop-color="#680005"/>
      <stop offset="0.754" stop-color="#5d0005"/>
      <stop offset="0.86" stop-color="#4b0005"/>
      <stop offset="0.962" stop-color="#310005"/>
      <stop offset="1" stop-color="#260005"/>
    </linearGradient>
    <linearGradient id="linear-gradient-5" x1="1.099" y1="0.864" x2="0.072" y2="0.064" gradientUnits="objectBoundingBox">
      <stop offset="0" stop-color="#6c0005"/>
      <stop offset="0.025" stop-color="#770005"/>
      <stop offset="0.109" stop-color="#980008"/>
      <stop offset="0.195" stop-color="#b20009"/>
      <stop offset="0.284" stop-color="#c4000b"/>
      <stop offset="0.377" stop-color="#cf000b"/>
      <stop offset="0.479" stop-color="#d3000c"/>
    </linearGradient>
    <linearGradient id="linear-gradient-6" x1="0.049" y1="0.034" x2="0.981" y2="0.941" gradientUnits="objectBoundingBox">
      <stop offset="0.003" stop-color="#6c0005"/>
      <stop offset="0.054" stop-color="#850006"/>
      <stop offset="0.126" stop-color="#a10008"/>
      <stop offset="0.203" stop-color="#b7000a"/>
      <stop offset="0.287" stop-color="#c6000b"/>
      <stop offset="0.384" stop-color="#d0000b"/>
      <stop offset="0.521" stop-color="#d3000c"/>
      <stop offset="0.623" stop-color="#cf000b"/>
      <stop offset="0.716" stop-color="#c4000b"/>
      <stop offset="0.805" stop-color="#b20009"/>
      <stop offset="0.891" stop-color="#980008"/>
      <stop offset="0.975" stop-color="#770005"/>
      <stop offset="1" stop-color="#6c0005"/>
    </linearGradient>
    <linearGradient id="linear-gradient-7" x1="-0.043" y1="0.058" x2="0.989" y2="0.95" gradientUnits="objectBoundingBox">
      <stop offset="0.003" stop-color="#6c0005"/>
      <stop offset="0.054" stop-color="#850006"/>
      <stop offset="0.126" stop-color="#a10008"/>
      <stop offset="0.203" stop-color="#b7000a"/>
      <stop offset="0.287" stop-color="#c6000b"/>
      <stop offset="0.384" stop-color="#d0000b"/>
      <stop offset="0.521" stop-color="#d3000c"/>
    </linearGradient>
    <linearGradient id="linear-gradient-8" x1="0.021" y1="0.032" x2="0.977" y2="0.983" xlink:href="#linear-gradient-6"/>
    <linearGradient id="linear-gradient-9" x1="0.065" y1="0.004" x2="1.011" y2="0.94" xlink:href="#linear-gradient-6"/>
    <clipPath id="clip-path-2">
      <path id="SVGID" d="M1031.135,479.186c-11.924-11.96-122.752-121.918-122.752-121.918l21.074-.015-.767-20.294,99.8,99.125S1032.952,449.363,1031.135,479.186Zm-30.727,77.324L796.5,352.6s-14.733,11.078-20.661,19.955c44.171,44.9,168.941,168.758,204.613,204.613C988.98,569.6,1000.407,556.511,1000.407,556.511Zm-159.328,11.55,19.619-1.646S786,491.47,742.62,447.263c-3.26,16.191.387,41.194.387,41.194l97.384,98.266Zm119.734,23.166C925.54,556.09,808.509,438.354,761.3,391.716c-6.348,7.485-12.34,28.278-12.34,28.278L933.015,604.046S952.679,597.312,960.814,591.227Zm64.233-81.206L842.991,327.965A108.261,108.261,0,0,0,814.71,340.3c54.367,54.324,174.5,174.448,198,198C1020.472,525.656,1025.047,510.021,1025.047,510.021Z" transform="translate(-741.265 -327.965)" fill="none"/>
    </clipPath>
    <radialGradient id="radial-gradient" cx="151.763" cy="43.767" r="525.436" gradientTransform="matrix(0.288, 0.008, -0.002, 0.079, 108.113, 39.05)" gradientUnits="userSpaceOnUse">
      <stop offset="0" stop-color="#fff"/>
      <stop offset="1" stop-color="#fff" stop-opacity="0"/>
    </radialGradient>
    <clipPath id="clip-path-3">
      <path id="Path_58" data-name="Path 58" d="M678.61,411.133a60.038,60.038,0,0,1-6.751,16.033c-5.061,8.441-7.171,14.346-22.784,14.769s-23.627,13.079-30.378,51.052-10.548,79.746.844,106.327,45.147,24.048,67.087,16.033,27-32.912,27.424-59.913.423-69.618-3.8-91.137-16.456-26.158-21.94-27.845S690,424.635,690,424.635Z" transform="translate(-612.27 -411.133)" fill="#fff" stroke="#1a2e35" stroke-linecap="round" stroke-linejoin="round" stroke-width="0.485"/>
    </clipPath>
    <clipPath id="clip-path-4">
      <path id="Path_62" data-name="Path 62" d="M667.112,438.366a32.149,32.149,0,0,0-4.9-1.917c-5.484-1.69,1.687-11.815,1.687-11.815l-11.392-13.5a60.035,60.035,0,0,1-6.751,16.033c-4.3,7.172-6.5,12.5-16.637,14.2a46.525,46.525,0,0,1,6.934,15.332c2.531,10.971,8.015,28.691,18.143,24.473C663.837,477.157,671.157,454.047,667.112,438.366Z" transform="translate(-629.124 -411.133)" fill="#fff" stroke="#1a2e35" stroke-linecap="round" stroke-linejoin="round" stroke-width="0.485"/>
    </clipPath>
    <clipPath id="clip-path-5">
      <path id="Path_68" data-name="Path 68" d="M663.366,423.005a65.657,65.657,0,0,1-14.162.143c-6.331-.844-16.879,1.69-23.63,8.438s-12.656,28.691-15.189,34.178-3.374,8.015-3.374,8.015l31.222,13.5,13.079-37.129" transform="translate(-607.011 -422.992)" fill="#fff" stroke="#1a2e35" stroke-linecap="round" stroke-linejoin="round" stroke-width="0.485"/>
    </clipPath>
    <clipPath id="clip-path-6">
      <ellipse id="Ellipse_7" data-name="Ellipse 7" cx="36.919" cy="21.203" rx="36.919" ry="21.203" transform="translate(0 71.603) rotate(-75.869)" fill="#fff" stroke="#1a2e35" stroke-linecap="round" stroke-linejoin="round" stroke-width="0.485"/>
    </clipPath>
    <clipPath id="clip-path-7">
      <rect id="Rectangle_15" data-name="Rectangle 15" width="178.197" height="288.302" fill="#fff" stroke="#1a2e35" stroke-miterlimit="10" stroke-width="0.528"/>
    </clipPath>
    <clipPath id="clip-path-8">
      <rect id="Rectangle_22" data-name="Rectangle 22" width="259.656" height="480.936" transform="translate(480.936 0) rotate(90)" fill="#fff" stroke="#1a2e35" stroke-miterlimit="10" stroke-width="0.652"/>
    </clipPath>
    <linearGradient id="linear-gradient-14" x1="1.156" y1="0.797" x2="0.129" y2="-0.004" xlink:href="#linear-gradient-5"/>
    <linearGradient id="linear-gradient-15" x1="0.08" y1="-0.009" x2="1.012" y2="0.898" xlink:href="#linear-gradient-6"/>
    <linearGradient id="linear-gradient-16" x1="0.015" y1="-0.011" x2="1.048" y2="0.881" xlink:href="#linear-gradient-7"/>
    <linearGradient id="linear-gradient-17" x1="0.054" y1="-0.013" x2="1.01" y2="0.938" xlink:href="#linear-gradient-6"/>
    <linearGradient id="linear-gradient-18" x1="0.098" y1="-0.042" x2="1.044" y2="0.895" xlink:href="#linear-gradient-6"/>
    <clipPath id="clip-path-9">
      <path id="SVGID-2" data-name="SVGID" d="M894.069,482.96c-3.377-3.387-34.757-34.52-34.757-34.52l5.969-.005-.219-5.744,28.26,28.064S894.584,474.517,894.069,482.96Zm-8.7,21.894L827.634,447.12s-4.172,3.137-5.849,5.65c12.506,12.715,47.833,47.782,57.933,57.933A80.9,80.9,0,0,0,885.368,504.854Zm-45.111,3.27,5.556-.466s-21.15-21.219-33.434-33.737c-.922,4.585.11,11.665.11,11.665l27.572,27.822Zm33.9,6.56c-9.988-9.949-43.121-43.284-56.488-56.49-1.8,2.12-3.494,8.007-3.494,8.007l52.112,52.112S871.856,516.407,874.158,514.684Zm18.186-22.993L840.8,440.145a30.663,30.663,0,0,0-8,3.492c15.393,15.383,49.406,49.393,56.06,56.062A38.228,38.228,0,0,0,892.344,491.691Z" transform="translate(-811.996 -440.145)" fill="none"/>
    </clipPath>
    <radialGradient id="radial-gradient-2" cx="42.969" cy="12.392" r="148.77" gradientTransform="matrix(0.288, 0.008, -0.002, 0.079, 30.611, 11.056)" xlink:href="#radial-gradient"/>
    <linearGradient id="linear-gradient-19" x1="-651.721" y1="49.339" x2="-651.721" y2="48.339" gradientUnits="objectBoundingBox">
      <stop offset="0.002"/>
      <stop offset="0.087" stop-color="#270002"/>
      <stop offset="0.2" stop-color="#540004"/>
      <stop offset="0.317" stop-color="#7b0007"/>
      <stop offset="0.438" stop-color="#9b0008"/>
      <stop offset="0.563" stop-color="#b3000a"/>
      <stop offset="0.694" stop-color="#c5000b"/>
      <stop offset="0.834" stop-color="#cf000b"/>
      <stop offset="1" stop-color="#d3000c"/>
    </linearGradient>
    <linearGradient id="linear-gradient-24" x1="1.147" y1="0.814" x2="0.12" y2="0.013" xlink:href="#linear-gradient-5"/>
    <linearGradient id="linear-gradient-25" x1="0.075" y1="0.002" x2="1.008" y2="0.909" xlink:href="#linear-gradient-6"/>
    <linearGradient id="linear-gradient-26" x1="0.006" y1="0.006" x2="1.039" y2="0.898" xlink:href="#linear-gradient-7"/>
    <linearGradient id="linear-gradient-27" x1="0.049" y1="-0.002" x2="1.005" y2="0.949" xlink:href="#linear-gradient-6"/>
    <linearGradient id="linear-gradient-28" x1="0.093" y1="-0.03" x2="1.039" y2="0.906" xlink:href="#linear-gradient-6"/>
    <clipPath id="clip-path-10">
      <path id="SVGID-3" data-name="SVGID" d="M812.82,462.372c-3.662-3.67-37.685-37.425-37.685-37.425l6.471-.005-.234-6.231,30.636,30.429S813.376,453.218,812.82,462.372Zm-9.435,23.737-62.594-62.594s-4.524,3.4-6.343,6.127c13.558,13.782,51.86,51.8,62.811,62.811A87.666,87.666,0,0,0,803.386,486.109Zm-48.909,3.545,6.022-.5s-22.932-23.005-36.247-36.576c-1,4.97.12,12.646.12,12.646l29.894,30.164Zm36.755,7.113c-10.829-10.788-46.753-46.928-61.246-61.246-1.95,2.3-3.787,8.68-3.787,8.68l56.5,56.5S788.734,498.635,791.232,496.767Zm19.718-24.93-55.886-55.886a33.273,33.273,0,0,0-8.683,3.787c16.69,16.677,53.567,53.552,60.782,60.782A41.479,41.479,0,0,0,810.95,471.837Z" transform="translate(-723.836 -415.951)" fill="none"/>
    </clipPath>
    <radialGradient id="radial-gradient-3" cx="46.588" cy="13.436" r="161.297" gradientTransform="matrix(0.288, 0.008, -0.002, 0.079, 33.188, 11.987)" xlink:href="#radial-gradient"/>
  </defs>
  <g id="Group_111" data-name="Group 111" transform="translate(-600.515 -184.304)">
    <path id="Path_30" data-name="Path 30" d="M1549.138,253.148c-110.384-105.937-267.645-76.861-354.1,3.249C1131.9,314.9,1032.452,400,955.459,396.288c-76.234-3.67-163.508-56.638-258.317-15.926-93.581,40.182-119.158,173.026-76.861,274.6,42.481,102.014,197.383,184.8,384.938,262.061,78.948,32.522,151.848,43.225,217.549,42.519,0,0,169.662-1.751,233.428-42.563,49.941-31.961,71.2-52.95,125.181-134.432,40.847-61.664,68.1-148.387,71.175-232.366C1656.305,447.562,1631.615,332.305,1549.138,253.148Z" transform="translate(0 0.282)" fill="#d81f29"/>
    <path id="Path_31" data-name="Path 31" d="M1549.138,252.967c-110.384-105.937-267.645-76.861-354.1,3.247-63.14,58.5-162.585,143.6-239.578,139.893-76.234-3.672-163.508-56.638-258.317-15.928-93.581,40.185-119.158,173.029-76.861,274.605,42.481,102.014,197.383,184.8,384.938,262.064,78.948,32.522,151.848,43.225,217.549,42.517,0,0,169.662-1.749,233.428-42.56,49.941-31.964,71.2-52.951,125.181-134.432,40.847-61.666,68.1-148.39,71.175-232.369C1656.305,447.377,1631.615,332.121,1549.138,252.967Z" fill="#fff" opacity="0.8"/>
    <g id="Group_20" data-name="Group 20" transform="translate(627.454 993.641)">
      <ellipse id="Ellipse_2" data-name="Ellipse 2" cx="476.961" cy="28.358" rx="476.961" ry="28.358" transform="translate(0 0.257)" fill="#d81f29"/>
      <ellipse id="Ellipse_3" data-name="Ellipse 3" cx="476.961" cy="28.358" rx="476.961" ry="28.358" fill="#fff" opacity="0.6"/>
    </g>
    <g id="Group_23" data-name="Group 23" transform="translate(617.743 421.288)">
      <path id="Rectangle_6" data-name="Rectangle 6" d="M10.456,0H837.079a10.456,10.456,0,0,1,10.456,10.456V550.124a0,0,0,0,1,0,0H0a0,0,0,0,1,0,0V10.456A10.456,10.456,0,0,1,10.456,0Z" transform="translate(70.485)" fill="#d81f29" stroke="#6a0005" stroke-miterlimit="10" stroke-width="0.921"/>
      <g id="Group_22" data-name="Group 22" transform="translate(104.868 42.979)">
        <rect id="Rectangle_7" data-name="Rectangle 7" width="778.769" height="440.099" fill="#fff"/>
        <g id="Group_21" data-name="Group 21" clip-path="url(#clip-path)">
          <path id="Path_32" data-name="Path 32" d="M1345.418,695.1V319.441L701.232,695.1Z" transform="translate(-566.649 -255.005)" fill="#d81f29" opacity="0.4"/>
        </g>
        <rect id="Rectangle_9" data-name="Rectangle 9" width="778.769" height="440.099" fill="none" stroke="#1a2e35" stroke-miterlimit="10" stroke-width="0.69"/>
      </g>
      <rect id="Rectangle_10" data-name="Rectangle 10" width="582.471" height="28.699" transform="translate(204.96 523.642)" fill="#d81f29" stroke="#6a0005" stroke-miterlimit="10" stroke-width="0.921"/>
      <rect id="Rectangle_11" data-name="Rectangle 11" width="582.471" height="14.881" transform="translate(204.96 537.459)" fill="#d81f29" stroke="#6a0005" stroke-miterlimit="10" stroke-width="0.921"/>
      <path id="Path_33" data-name="Path 33" d="M608.039,500.7s9.564,11.693,38.263,21.257h911.971s21.257-5.314,30.824-20.194Z" transform="translate(-606.093 68.651)" fill="#d81f29" stroke="#6a0005" stroke-miterlimit="10" stroke-width="0.921"/>
      <rect id="Rectangle_12" data-name="Rectangle 12" width="985.066" height="22.349" rx="2.698" transform="translate(0 548.406)" fill="#d81f29" stroke="#6a0005" stroke-miterlimit="10" stroke-width="0.921"/>
      <circle id="Ellipse_4" data-name="Ellipse 4" cx="7.44" cy="7.44" r="7.44" transform="translate(486.629 9.197)" fill="#1a2e35"/>
      <path id="Path_34" data-name="Path 34" d="M877.843,285.421H691.834a3.718,3.718,0,0,1-3.718-3.718h0a3.718,3.718,0,0,1,3.718-3.721H877.843a3.72,3.72,0,0,1,3.721,3.721h0A3.72,3.72,0,0,1,877.843,285.421Z" transform="translate(-482.092 -276.225)" fill="#f24051" stroke="#6a0005" stroke-miterlimit="10" stroke-width="0.921"/>
      <path id="Path_35" data-name="Path 35" d="M1026.736,285.421H840.73a3.718,3.718,0,0,1-3.721-3.718h0a3.719,3.719,0,0,1,3.721-3.721h186.006a3.718,3.718,0,0,1,3.721,3.721h0A3.718,3.718,0,0,1,1026.736,285.421Z" transform="translate(-251.529 -276.225)" fill="#f24051" stroke="#6a0005" stroke-miterlimit="10" stroke-width="0.921"/>
      <path id="Path_36" data-name="Path 36" d="M965.922,378.08h0a2.126,2.126,0,0,1-2.125-2.126V314.306a2.128,2.128,0,0,1,2.125-2.126h0a2.128,2.128,0,0,1,2.128,2.126v61.648A2.126,2.126,0,0,1,965.922,378.08Z" transform="translate(-55.196 -223.267)" fill="#f24051" stroke="#6a0005" stroke-miterlimit="10" stroke-width="0.921"/>
      <path id="Path_37" data-name="Path 37" d="M639.359,378.08h0a2.124,2.124,0,0,1-2.125-2.126V314.306a2.126,2.126,0,0,1,2.125-2.126h0a2.127,2.127,0,0,1,2.125,2.126v61.648A2.126,2.126,0,0,1,639.359,378.08Z" transform="translate(-560.883 -223.267)" fill="#f24051" stroke="#6a0005" stroke-miterlimit="10" stroke-width="0.921"/>
    </g>
    <g id="Group_37" data-name="Group 37" transform="translate(959.219 550.345)">
      <g id="Group_28" data-name="Group 28" transform="translate(1.354 0.082)">
        <g id="Group_24" data-name="Group 24" transform="translate(72.091)">
          <path id="Path_38" data-name="Path 38" d="M986.51,479.185,770.084,340.3l28.28-12.337,185.5,108.117Z" transform="translate(-770.084 -327.965)" fill="url(#linear-gradient)"/>
        </g>
        <g id="Group_25" data-name="Group 25" transform="translate(33.219 24.637)">
          <path id="Path_39" data-name="Path 39" d="M991.7,523.329,754.831,357.589l20.66-19.957L1004.038,495.05Z" transform="translate(-754.831 -337.633)" fill="url(#linear-gradient)"/>
        </g>
        <g id="Group_26" data-name="Group 26" transform="translate(6.344 63.752)">
          <path id="Path_40" data-name="Path 40" d="M975.772,538.434,744.286,381.258l12.34-28.277,239.1,164.793Z" transform="translate(-744.286 -352.98)" fill="url(#linear-gradient)"/>
        </g>
        <g id="Group_27" data-name="Group 27" transform="translate(0 119.297)">
          <path id="Path_41" data-name="Path 41" d="M932.193,531.559,742.185,415.97l-.389-41.194L959.99,518.739Z" transform="translate(-741.797 -374.776)" fill="url(#linear-gradient)"/>
        </g>
      </g>
      <g id="Group_34" data-name="Group 34" transform="translate(0.005)">
        <g id="Group_29" data-name="Group 29" transform="translate(167.317 9.154)">
          <path id="Path_42" data-name="Path 42" d="M929.445,473.946C917.541,461.966,806.92,351.8,806.92,351.8l21.076.026-.729-20.3,99.616,99.313S931.318,444.126,929.445,473.946Z" transform="translate(-806.92 -331.525)" fill="url(#linear-gradient-5)"/>
        </g>
        <g id="Group_30" data-name="Group 30" transform="translate(34.746 24.55)">
          <path id="Path_43" data-name="Path 43" d="M959.126,562.48C923.521,526.559,798.985,402.469,754.9,357.485c5.943-8.866,20.7-19.919,20.7-19.919L979.122,541.857S967.669,554.926,959.126,562.48Z" transform="translate(-754.901 -337.566)" fill="url(#linear-gradient-6)"/>
        </g>
        <g id="Group_31" data-name="Group 31" transform="translate(0 119.107)">
          <path id="Path_44" data-name="Path 44" d="M840.159,514.315l-97.2-98.449s-3.6-25.011-.311-41.2c43.3,44.291,117.854,119.375,117.854,119.375l-19.621,1.608Z" transform="translate(-741.267 -374.669)" fill="url(#linear-gradient-7)"/>
        </g>
        <g id="Group_32" data-name="Group 32" transform="translate(7.78 63.598)">
          <path id="Path_45" data-name="Path 45" d="M928.025,565.541l-183.7-184.4s6.03-20.781,12.393-28.253c47.12,46.724,163.926,164.68,199.133,199.885C947.7,558.844,928.025,565.541,928.025,565.541Z" transform="translate(-744.32 -352.888)" fill="url(#linear-gradient-8)"/>
        </g>
        <g id="Group_33" data-name="Group 33" transform="translate(73.677)">
          <path id="Path_46" data-name="Path 46" d="M967.8,538.588c-23.454-23.594-143.359-143.943-197.625-198.371a108.276,108.276,0,0,1,28.3-12.284l181.711,182.4S975.587,525.958,967.8,538.588Z" transform="translate(-770.177 -327.933)" fill="url(#linear-gradient-9)"/>
        </g>
      </g>
      <g id="Group_36" data-name="Group 36" transform="translate(0 0.082)">
        <g id="Group_35" data-name="Group 35" clip-path="url(#clip-path-2)">
          <ellipse id="Ellipse_5" data-name="Ellipse 5" cx="151.763" cy="43.767" rx="151.763" ry="43.767" transform="translate(-31.664 118.19) rotate(-27.598)" opacity="0.57" fill="url(#radial-gradient)"/>
        </g>
      </g>
    </g>
    <g id="Group_38" data-name="Group 38" transform="translate(1251.115 544.528)">
      <path id="Path_47" data-name="Path 47" d="M918.738,356.662c3.639-2.676,7.531-7.1,7.594-11.879.064-4.682-3.626-8.81-8.489-8.382-6.746.594-12.809,11.2-14.152,17.1-.115.51-1.014,8.69-.892,8.665C902.808,362.165,914.464,359.8,918.738,356.662Z" transform="translate(-783.04 -309.05)" fill="#6a0005"/>
      <path id="Path_48" data-name="Path 48" d="M933.171,469.04a6.524,6.524,0,0,0-8.328-4.995c-5.222,1.769-7.974,11.326-7.9,16.249.005.316.482,4.034.765,5.928-.578-1.468-1.157-2.926-1.733-4.465-.846-2.21-1.667-4.569-2.477-6.853q-.566-1.8-1.142-3.634c-.413-1.228-.658-2.447-1-3.688-.461-1.827-.844-3.736-1.231-5.64,2.3-.724,9.012-2.972,11.687-5.321,2.763-2.429,5.609-6.29,5.321-10.171a6.524,6.524,0,0,0-7.475-6.2c-5.431.958-9.6,9.988-10.271,14.866-.023.158-.056,1.2-.087,2.444-.321-1.871-.65-3.736-.912-5.643-.744-5.405-1.335-10.936-1.952-16.476-.127-1.154-.273-2.3-.405-3.458,1.937-.6,9.233-2.969,12.037-5.433,2.763-2.429,5.607-6.287,5.321-10.171a6.527,6.527,0,0,0-7.477-6.2c-5.431.958-9.6,9.988-10.271,14.866-.023.176-.061,1.425-.094,2.821-.377-3-.793-6-1.295-8.95a115.232,115.232,0,0,0-3.5-15.008c.686-.206,9.294-2.811,12.409-5.548,2.765-2.429,5.609-6.29,5.321-10.171a6.524,6.524,0,0,0-7.475-6.2c-5.431.958-9.6,9.988-10.27,14.866-.049.346-.156,4.865-.14,6.478-.018-.056-.031-.117-.049-.173a85.3,85.3,0,0,0-6.03-13.877,115.746,115.746,0,0,0-7.1-11.514c-2.362-3.456-4.738-6.473-6.858-9.124-1.162-1.427-2.25-2.712-3.28-3.9l.117,0c.1,0-1.856-6.4-2.024-6.794-1.967-4.516-8.42-12.082-13.907-11.537a6.528,6.528,0,0,0-5.522,7.99c.775,3.815,4.557,6.764,7.872,8.354,3.4,1.629,11.2,1.929,13.135,1.978,1.042,1.256,2.143,2.607,3.328,4.129,2.059,2.691,4.36,5.749,6.639,9.241.609.93,1.226,1.955,1.843,2.936-1.381-1.44-3.306-3.387-3.515-3.555-3.825-3.1-13.038-6.843-17.659-3.83a6.529,6.529,0,0,0-1.218,9.636c2.444,3.028,7.159,3.9,10.836,3.785,3.836-.122,11.058-3.555,12.63-4.325,1.333,2.194,2.648,4.48,3.884,6.945a84.166,84.166,0,0,1,5.655,13.828c.082.275.135.571.214.849-.561-.831-3.96-5.158-4.233-5.433-3.461-3.5-12.208-8.232-17.131-5.744a6.525,6.525,0,0,0-2.268,9.442c2.1,3.28,6.687,4.664,10.355,4.952,4.225.331,13-2.9,13.326-3.02a114.9,114.9,0,0,1,3.058,14.588c.54,3.644.938,7.355,1.3,11.083-.754-1.063-3.914-5.084-4.174-5.347-3.463-3.5-12.21-8.234-17.131-5.747a6.524,6.524,0,0,0-2.271,9.442c2.1,3.28,6.687,4.666,10.355,4.952,4.126.324,12.544-2.732,13.252-2.992.163,1.695.334,3.384.484,5.082.494,5.543.966,11.1,1.6,16.576.219,1.9.507,3.757.782,5.622-1.18-1.557-3.379-4.348-3.6-4.567-3.461-3.5-12.21-8.234-17.131-5.747a6.529,6.529,0,0,0-2.271,9.442c2.1,3.28,6.69,4.666,10.355,4.954,3.685.288,10.818-2.128,12.816-2.837.487,3.1,1.037,6.162,1.723,9.152.323,1.284.571,2.615.95,3.828.359,1.231.711,2.452,1.063,3.657.813,2.472,1.56,4.773,2.375,7.054.4,1.157.81,2.238,1.218,3.354-.958-1.756-2.526-4.513-2.694-4.748-2.893-3.986-10.824-9.988-16.063-8.275a6.524,6.524,0,0,0-3.675,8.989c1.577,3.56,5.9,5.624,9.485,6.466,3.948.925,12.45-.731,13.487-.938,1.012,2.729,2.018,5.38,3.01,7.842,3.114,7.8,6,14.172,8.089,18.609s3.392,6.945,3.392,6.945l.01.02.015.028a1.937,1.937,0,0,0,3.4-1.861s-1.318-2.4-3.479-6.746-5.156-10.589-8.405-18.242c-.943-2.2-1.9-4.559-2.87-6.985.974-.464,8.754-4.228,11.356-7.33C931.815,477.081,934.043,472.832,933.171,469.04Z" transform="translate(-855.801 -293.53)" fill="#6a0005"/>
      <path id="Path_49" data-name="Path 49" d="M870.4,375.155c.005,0,8.242-5.094,10.617-8.7,2.023-3.071,3.749-7.544,2.447-11.214a6.524,6.524,0,0,0-8.846-4c-4.987,2.357-6.621,12.167-5.981,17.05C868.691,368.71,870.312,375.208,870.4,375.155Z" transform="translate(-836.132 -286.954)" fill="#6a0005"/>
      <path id="Path_50" data-name="Path 50" d="M923.074,356.662c4.271,3.142,15.931,5.5,15.939,5.5.12.025-.777-8.155-.895-8.665-1.343-5.9-7.4-16.5-14.152-17.1-4.86-.428-8.55,3.7-8.489,8.382C915.541,349.565,919.435,353.986,923.074,356.662Z" transform="translate(-763.393 -309.05)" fill="#6a0005"/>
      <path id="Path_51" data-name="Path 51" d="M1015.8,486.417c-6.769.257-13.349,10.551-14.983,16.374-.1.344-.724,4.187-1.083,6.619-.008-1.46,0-2.88-.023-4.383-.033-2.977-.153-5.943-.268-9.139q-.168-2.309-.336-4.666c-.076-1.56-.359-3.2-.533-4.814-.484-3.736-1.155-7.5-1.914-11.28,2.643-.036,11.868-.3,15.974-2.189s8.8-5.444,9.822-10.118c1-4.572-1.789-9.356-6.636-9.911-6.73-.77-14.794,8.4-17.292,13.915-.155.344-1.5,4.5-2.2,6.794-.474-2.268-.938-4.534-1.491-6.81-1.6-6.575-3.425-13.181-5.217-19.782-.548-2.021-1.073-4.039-1.606-6.06,1.447,0,12.059-.127,16.545-2.2,4.1-1.893,8.8-5.444,9.82-10.115,1-4.575-1.787-9.358-6.636-9.914-6.731-.77-14.794,8.408-17.289,13.917-.189.413-2.12,6.394-2.536,7.939-1.17-4.45-2.294-8.894-3.224-13.321a141.157,141.157,0,0,1-2.686-18.112c.8,0,11.993-.054,16.639-2.2,4.1-1.894,8.8-5.444,9.822-10.115,1-4.575-1.789-9.358-6.636-9.914-6.731-.77-14.794,8.408-17.292,13.915-.2.433-2.271,6.871-2.561,8.061-.025-.352-.094-.716-.117-1.068a103.475,103.475,0,0,1,.63-18.339c.372-3.364.917-6.56,1.516-9.656,2.2.222,11.945,1.088,16.395-.4,4.286-1.43,9.348-4.445,10.875-8.976,1.493-4.437-.752-9.5-5.51-10.581-6.6-1.5-15.628,6.731-18.714,11.932-.168.283-1.557,3.349-2.536,5.594.293-1.394.568-2.836.874-4.167,1.137-5,2.488-9.5,3.713-13.477.716-2.255,1.409-4.284,2.077-6.172,2.215-.884,11.071-4.552,14.289-7.875,3.145-3.244,6.249-8.252,5.515-12.977-.719-4.626-5.041-8.084-9.764-6.853-6.557,1.707-10.767,13.176-11.111,19.213-.031.522.443,8.739.561,8.693l.133-.051c-.678,1.8-1.386,3.746-2.115,5.885-1.318,3.96-2.768,8.448-4.019,13.436a141.665,141.665,0,0,0-3.272,16.288,104.61,104.61,0,0,0-1.039,18.558c0,.071.018.148.02.222-.67-1.868-2.719-7.029-2.92-7.406-2.854-5.334-11.5-13.963-18.166-12.755a7.393,7.393,0,0,0-3.919,2.072,7.378,7.378,0,0,0-3.917-2.072c-6.667-1.208-15.312,7.421-18.166,12.755-.2.377-2.25,5.538-2.92,7.406,0-.074.015-.15.018-.222a104.391,104.391,0,0,0-1.037-18.558,142.228,142.228,0,0,0-3.272-16.288c-1.251-4.988-2.7-9.475-4.019-13.436-.732-2.138-1.437-4.08-2.115-5.885l.133.051c.117.046.591-8.171.561-8.693-.344-6.037-4.557-17.506-11.111-19.213-4.723-1.231-9.047,2.227-9.763,6.853-.734,4.725,2.37,9.733,5.512,12.977,3.221,3.323,12.077,6.991,14.292,7.875.667,1.888,1.358,3.917,2.074,6.172,1.228,3.978,2.579,8.482,3.716,13.477.306,1.33.581,2.773.874,4.167-.981-2.245-2.37-5.311-2.536-5.594-3.089-5.2-12.111-13.436-18.716-11.932-4.758,1.083-7,6.144-5.507,10.581,1.527,4.531,6.588,7.546,10.872,8.976,4.45,1.486,14.193.619,16.394.4.6,3.1,1.144,6.292,1.519,9.656a103.233,103.233,0,0,1,.627,18.339c-.023.352-.089.716-.115,1.068-.293-1.19-2.368-7.628-2.564-8.061-2.5-5.507-10.561-14.685-17.289-13.915-4.85.556-7.635,5.339-6.639,9.914,1.022,4.671,5.721,8.222,9.822,10.115,4.646,2.143,15.847,2.2,16.642,2.2a141.171,141.171,0,0,1-2.689,18.112c-.928,4.427-2.054,8.871-3.221,13.321-.418-1.544-2.347-7.526-2.536-7.939-2.5-5.51-10.561-14.687-17.292-13.917-4.847.556-7.635,5.339-6.636,9.914,1.02,4.671,5.721,8.222,9.822,10.115,4.485,2.069,15.1,2.192,16.542,2.2-.533,2.021-1.055,4.039-1.606,6.06-1.789,6.6-3.614,13.206-5.214,19.782-.556,2.276-1.017,4.542-1.491,6.81-.7-2.3-2.044-6.45-2.2-6.794-2.5-5.51-10.561-14.685-17.292-13.915-4.85.556-7.635,5.339-6.636,9.911,1.019,4.674,5.719,8.224,9.822,10.118s13.329,2.154,15.974,2.189c-.759,3.777-1.43,7.544-1.914,11.28-.173,1.616-.456,3.254-.533,4.814q-.172,2.358-.336,4.666c-.117,3.2-.237,6.162-.268,9.139-.025,1.506-.018,2.923-.025,4.386-.357-2.434-.986-6.277-1.081-6.621-1.634-5.823-8.216-16.117-14.985-16.374-4.875-.186-8.354,4.121-8.061,8.792.3,4.773,4.409,8.994,8.176,11.486,4.062,2.689,14.287,4.4,15.941,4.666,0,3.576.033,7.059.125,10.316.268,10.311.882,18.887,1.4,24.886s.95,9.445.95,9.445l0,.031.008.038a2.378,2.378,0,1,0,4.7-.7s-.494-3.328-1.134-9.256-1.43-14.394-1.916-24.6c-.148-2.944-.252-6.063-.331-9.269,1.682-.158,11.981-1.2,16.206-3.611,3.922-2.24,8.3-6.185,8.91-10.928.6-4.643-2.589-9.17-7.467-9.3-6.771-.184-14.012,9.654-16.025,15.36-.128.364-1.165,4.852-1.644,7.156-.041-1.939-.087-3.866-.094-5.884-.036-2.905.023-5.976.064-8.953q.114-2.313.234-4.674c.046-1.588.283-3.1.418-4.671.247-2.3.617-4.664.981-7.021,3.043.145,11.693.4,15.735-1.157,4.218-1.621,9.139-4.858,10.464-9.452,1.295-4.5-1.172-9.455-5.974-10.324-6.667-1.21-15.314,7.419-18.166,12.753-.092.173-.579,1.364-1.142,2.781.428-2.291.844-4.582,1.353-6.889,1.443-6.547,3.119-13.171,4.768-19.815.344-1.384.665-2.773,1-4.159,2.513.135,11.912.507,16.183-1.134,4.218-1.621,9.139-4.857,10.462-9.452,1.3-4.5-1.172-9.455-5.974-10.324-6.664-1.21-15.311,7.419-18.163,12.753-.1.191-.678,1.611-1.31,3.206.844-3.619,1.641-7.243,2.319-10.859a142.083,142.083,0,0,0,2.355-18.785c1.414.087,12.042.665,16.66-1.109a20.745,20.745,0,0,0,8.408-5.727,20.757,20.757,0,0,0,8.407,5.727c4.62,1.774,15.248,1.2,16.662,1.109a142.073,142.073,0,0,0,2.355,18.785c.678,3.616,1.475,7.24,2.319,10.859-.632-1.6-1.208-3.015-1.31-3.206-2.852-5.334-11.5-13.963-18.166-12.753-4.8.869-7.268,5.826-5.974,10.324,1.325,4.595,6.246,7.832,10.464,9.452,4.269,1.641,13.67,1.269,16.18,1.134.339,1.386.663,2.775,1.007,4.159,1.649,6.644,3.323,13.268,4.766,19.815.512,2.306.928,4.6,1.353,6.889-.563-1.417-1.047-2.607-1.139-2.781-2.854-5.334-11.5-13.963-18.166-12.753-4.8.869-7.271,5.826-5.974,10.324,1.323,4.595,6.246,7.832,10.462,9.452,4.044,1.555,12.694,1.3,15.737,1.157.364,2.357.734,4.72.981,7.021.135,1.575.372,3.084.418,4.671q.118,2.363.234,4.674c.038,2.977.1,6.048.064,8.953-.008,2.018-.054,3.945-.094,5.884-.479-2.3-1.516-6.792-1.646-7.156-2.011-5.706-9.251-15.543-16.022-15.36-4.878.133-8.069,4.659-7.47,9.3.614,4.743,4.987,8.688,8.912,10.928,4.226,2.414,14.524,3.453,16.206,3.611-.079,3.206-.186,6.325-.331,9.269-.487,10.2-1.279,18.681-1.916,24.6s-1.134,9.256-1.134,9.256a2.378,2.378,0,0,0,4.7.7l.008-.038,0-.031s.436-3.453.95-9.445,1.126-14.575,1.394-24.886c.094-3.257.128-6.741.128-10.316,1.654-.265,11.876-1.978,15.941-4.666,3.767-2.492,7.875-6.713,8.176-11.486C1024.158,490.538,1020.679,486.231,1015.8,486.417Z" transform="translate(-807.687 -325.651)" fill="#6a0005"/>
    </g>
    <g id="Group_63" data-name="Group 63" transform="translate(602.743 702.042)">
      <g id="Group_55" data-name="Group 55">
        <g id="Group_54" data-name="Group 54">
          <path id="Path_52" data-name="Path 52" d="M629.124,423h0Z" transform="translate(-558.443 -332.422)" fill="#1a2e35"/>
          <g id="Group_51" data-name="Group 51" transform="translate(14.326 2.429)">
            <g id="Group_46" data-name="Group 46" transform="translate(0 57.911)">
              <path id="Path_53" data-name="Path 53" d="M666.272,441.439s.421,17.3,3.374,26.581a149.424,149.424,0,0,0,7.594,18.566s-10.969,5.9-16.033,6.328-11.815-22.361-11.815-37.973S655.3,434.688,666.272,441.439Z" transform="translate(-541.382 -368.867)" fill="#fff" stroke="#1a2e35" stroke-linecap="round" stroke-linejoin="round" stroke-width="0.485"/>
              <path id="Path_54" data-name="Path 54" d="M647.556,421.94s17.888-.652,24.639,4.411,9.282,27.425,11.392,36.286l2.11,8.861s-10.971,4.218-15.189,4.641a47.215,47.215,0,0,0-5.907.844s-5.484-30.8-11.815-39.66a113.523,113.523,0,0,0-10.546-13.082S639.373,420.905,647.556,421.94Z" transform="translate(-553.213 -394.706)" fill="#fff" stroke="#1a2e35" stroke-linecap="round" stroke-linejoin="round" stroke-width="0.485"/>
              <g id="Group_45" data-name="Group 45">
                <g id="Group_40" data-name="Group 40" transform="translate(13.404)">
                  <path id="Path_55" data-name="Path 55" d="M678.61,411.133a60.038,60.038,0,0,1-6.751,16.033c-5.061,8.441-7.171,14.346-22.784,14.769s-23.627,13.079-30.378,51.052-10.548,79.746.844,106.327,45.147,24.048,67.087,16.033,27-32.912,27.424-59.913.423-69.618-3.8-91.137-16.456-26.158-21.94-27.845S690,424.635,690,424.635Z" transform="translate(-612.27 -411.133)" fill="#fff"/>
                  <g id="Group_39" data-name="Group 39" clip-path="url(#clip-path-3)">
                    <path id="Path_56" data-name="Path 56" d="M627.765,443.617s-3.708,10.3,2.885,18.13,23.077,4.121,19.779,7.829-17.307,8.242-19.779,11.952-.413,6.593-.413,6.593-12.99,2.324-13.912.133,7.595-32.912,7.595-32.912Z" transform="translate(-606.101 -360.831)" fill="#d81f29" opacity="0.4"/>
                    <path id="Path_57" data-name="Path 57" d="M638.253,465.607s-9.068,9.891-8.655,12.776,8.655-3.708,7.006.413S627.949,489.51,625.89,492.8s-10.275,9.111-10.275,9.111l-2.911-22.3-.561-3.9Z" transform="translate(-612.468 -326.779)" fill="#d81f29" opacity="0.4"/>
                  </g>
                  <path id="Path_59" data-name="Path 59" d="M678.61,411.133a60.038,60.038,0,0,1-6.751,16.033c-5.061,8.441-7.171,14.346-22.784,14.769s-23.627,13.079-30.378,51.052-10.548,79.746.844,106.327,45.147,24.048,67.087,16.033,27-32.912,27.424-59.913.423-69.618-3.8-91.137-16.456-26.158-21.94-27.845S690,424.635,690,424.635Z" transform="translate(-612.27 -411.133)" fill="none" stroke="#1a2e35" stroke-linecap="round" stroke-linejoin="round" stroke-width="0.485"/>
                </g>
                <g id="Group_42" data-name="Group 42" transform="translate(56.355)">
                  <path id="Path_60" data-name="Path 60" d="M667.112,438.366a32.149,32.149,0,0,0-4.9-1.917c-5.484-1.69,1.687-11.815,1.687-11.815l-11.392-13.5a60.035,60.035,0,0,1-6.751,16.033c-4.3,7.172-6.5,12.5-16.637,14.2a46.525,46.525,0,0,1,6.934,15.332c2.531,10.971,8.015,28.691,18.143,24.473C663.837,477.157,671.157,454.047,667.112,438.366Z" transform="translate(-629.124 -411.133)" fill="#fff"/>
                  <g id="Group_41" data-name="Group 41" clip-path="url(#clip-path-4)">
                    <path id="Path_61" data-name="Path 61" d="M640.652,443.486a27.559,27.559,0,0,1-8.812,4.169l-2.617-4.36s10.528,1.3,21.053-22.9h0s3.851,7.758,9.537,11.6L647.245,433.6" transform="translate(-628.972 -413.449)" fill="#d81f29" opacity="0.4"/>
                  </g>
                  <path id="Path_63" data-name="Path 63" d="M667.112,438.366a32.149,32.149,0,0,0-4.9-1.917c-5.484-1.69,1.687-11.815,1.687-11.815l-11.392-13.5a60.035,60.035,0,0,1-6.751,16.033c-4.3,7.172-6.5,12.5-16.637,14.2a46.525,46.525,0,0,1,6.934,15.332c2.531,10.971,8.015,28.691,18.143,24.473C663.837,477.157,671.157,454.047,667.112,438.366Z" transform="translate(-629.124 -411.133)" fill="none" stroke="#1a2e35" stroke-linecap="round" stroke-linejoin="round" stroke-width="0.485"/>
                </g>
                <line id="Line_1" data-name="Line 1" y1="10.793" x2="12.142" transform="translate(36.245 68.074)" fill="none" stroke="#1a2e35" stroke-linecap="round" stroke-linejoin="round" stroke-width="0.485"/>
                <path id="Path_64" data-name="Path 64" d="M626.712,423.219s3.576,4.9,6.272,19.06,10.793,26.981,18.887,29.68,12.141,0,12.141,0" transform="translate(-576.504 -392.418)" fill="none" stroke="#1a2e35" stroke-linecap="round" stroke-linejoin="round" stroke-width="0.485"/>
                <path id="Path_65" data-name="Path 65" d="M615.105,441.6s-6.328,56.116-6.751,65.821,3.377,7.172,9.7,5.484,42.616-17.722,51.055-20.674,9.7-3.8,16.453-2.954,13.5,1.687,17.722,1.687-.423-9.7-6.751-11.392-5.907-1.267-13.079.421-18.566,6.751-30.8,9.284-22.784,3.374-24.051,2.11,7.595-37.975,7.595-37.975Z" transform="translate(-604.98 -363.961)" fill="#fff" stroke="#1a2e35" stroke-linecap="round" stroke-linejoin="round" stroke-width="0.485"/>
                <g id="Group_44" data-name="Group 44" transform="translate(0 30.222)">
                  <path id="Path_66" data-name="Path 66" d="M663.366,423.005a65.657,65.657,0,0,1-14.162.143c-6.331-.844-16.879,1.69-23.63,8.438s-12.656,28.691-15.189,34.178-3.374,8.015-3.374,8.015l31.222,13.5,13.079-37.129" transform="translate(-607.011 -422.992)" fill="#fff"/>
                  <g id="Group_43" data-name="Group 43" clip-path="url(#clip-path-5)">
                    <path id="Path_67" data-name="Path 67" d="M662.708,422.889c-5.948,1.007-13.268.627-18.484.9-7.829.41-13.6,2.885-19.369,9.478s-17.633,40.437-17.633,40.437l7.261,3.1s7.9-36.941,16.966-42.711,18.545-6.593,26.374-6.593c2.505,0,5.405-.171,7.212-.364Z" transform="translate(-606.684 -423.151)" fill="#d81f29" opacity="0.4"/>
                  </g>
                  <path id="Path_69" data-name="Path 69" d="M663.366,423.005a65.657,65.657,0,0,1-14.162.143c-6.331-.844-16.879,1.69-23.63,8.438s-12.656,28.691-15.189,34.178-3.374,8.015-3.374,8.015l31.222,13.5,13.079-37.129" transform="translate(-607.011 -422.992)" fill="none" stroke="#1a2e35" stroke-linecap="round" stroke-linejoin="round" stroke-width="0.485"/>
                </g>
                <path id="Path_70" data-name="Path 70" d="M613.557,485.719s12.816-11.468,21.586-12.144" transform="translate(-596.874 -314.441)" fill="none" stroke="#1a2e35" stroke-linecap="round" stroke-linejoin="round" stroke-width="0.485"/>
                <path id="Path_71" data-name="Path 71" d="M633.622,471.458A162.527,162.527,0,0,0,615.41,480.9" transform="translate(-594.005 -317.719)" fill="none" stroke="#1a2e35" stroke-linecap="round" stroke-linejoin="round" stroke-width="0.485"/>
              </g>
            </g>
            <g id="Group_50" data-name="Group 50" transform="translate(57.811 0)">
              <g id="Group_48" data-name="Group 48" transform="translate(10.671)">
                <ellipse id="Ellipse_6" data-name="Ellipse 6" cx="36.919" cy="21.203" rx="36.919" ry="21.203" transform="translate(0 71.603) rotate(-75.869)" fill="#fff"/>
                <g id="Group_47" data-name="Group 47" transform="translate(0)" clip-path="url(#clip-path-6)">
                  <path id="Path_72" data-name="Path 72" d="M647.925,435.247c-1.414-2.849-3.3-9.71-1.952-14.03,2.062-6.593,13.181-13.966,13.181-13.966s-4.982,1.221-10.3,2.016c-5.224.782-12.162,1.932-12.162,1.932l1.758,12.337C640.924,429.093,643.817,433.632,647.925,435.247Z" transform="translate(-629.525 -359.232)" fill="#d81f29" opacity="0.4"/>
                </g>
                <ellipse id="Ellipse_8" data-name="Ellipse 8" cx="36.919" cy="21.203" rx="36.919" ry="21.203" transform="translate(0 71.603) rotate(-75.869)" fill="none" stroke="#1a2e35" stroke-linecap="round" stroke-linejoin="round" stroke-width="0.485"/>
              </g>
              <g id="Group_49" data-name="Group 49" transform="translate(0 65.381)" opacity="0.4">
                <path id="Path_73" data-name="Path 73" d="M649.543,414.064c-1.919,3.83-7.954,15.765-14.157,19.682a20.879,20.879,0,0,1-5.691,2.459" transform="translate(-629.695 -414.064)" fill="#d81f29" opacity="0.4"/>
                <path id="Path_74" data-name="Path 74" d="M645.026,438.6s1.649,23.49,0,29.257-8.242,5.357-4.944,8.655,11.537,7.829,11.537,7.829l5.77,5.77,1.236-8.655s-4.121,1.236-8.242-13.186A175.363,175.363,0,0,1,645.026,438.6Z" transform="translate(-615.022 -376.063)" fill="#d81f29" opacity="0.4"/>
              </g>
              <path id="Path_75" data-name="Path 75" d="M653.8,408.521s-2.668,3.813-2.668,6.481c0,.78.033,1.46.079,2.036a1.861,1.861,0,0,1-2,2l-3.038-.217" transform="translate(-604.182 -357.267)" fill="none" stroke="#1a2e35" stroke-linecap="round" stroke-linejoin="round" stroke-width="0.485"/>
              <path id="Path_76" data-name="Path 76" d="M647.783,417.736s-4.577.762-6.1-4.577" transform="translate(-611.133 -350.085)" fill="none" stroke="#1a2e35" stroke-linecap="round" stroke-linejoin="round" stroke-width="0.485"/>
              <path id="Path_77" data-name="Path 77" d="M650.041,408.221l-1.524,3.053a4.475,4.475,0,0,1-5.339-1.144" transform="translate(-608.816 -357.731)" fill="none" stroke="#1a2e35" stroke-linecap="round" stroke-linejoin="round" stroke-width="0.485"/>
              <path id="Path_78" data-name="Path 78" d="M653.9,410.017l-2.288,3.051s-3.051,0-3.051-2.289" transform="translate(-600.475 -354.95)" fill="none" stroke="#1a2e35" stroke-linecap="round" stroke-linejoin="round" stroke-width="0.485"/>
            </g>
          </g>
          <g id="Group_53" data-name="Group 53">
            <g id="Group_52" data-name="Group 52">
              <path id="Path_79" data-name="Path 79" d="M739.021,417.719c5.2-15.023-7.312-30.613-25.839-30.256-18.222.349-31.487,18.444-37.639,30.855a90.371,90.371,0,0,0-14.68,19.353c-7.595,13.079-7.595,20.674-13.5,29.112s-23.207,8.861-33.332,19.83-10.128,23.63-5.484,32.068,7.595,19.407,1.687,27S598.416,563.4,603.057,580.7c2.63,9.8,9.452,13.637,16.257,14.9a17.881,17.881,0,0,1-.224-4.348c.329-7.518,4.2-42.863,5.925-58.425l-9.3-4.021s.844-2.531,3.374-8.015,8.441-27.427,15.189-34.178,17.3-9.282,23.63-8.438a65.657,65.657,0,0,0,14.162-.143c7.567-1.272,10.711-4.564,13.609-9.137l.074-.12q.337-.531.668-1.083l.076-.125c.706-1.177,1.422-2.426,2.209-3.739a63.1,63.1,0,0,0,4.7-9.641,42.253,42.253,0,0,1-2.039-12.335c8.3-.28,31.281-2.319,42.907-16a27.261,27.261,0,0,0,1.9-2.523,61.078,61.078,0,0,1-1.838,12.707c-2.724,10.824-7.931,19.8-13.943,25.271-.4.364-.8.729-1.21,1.06-.257.212-.52.4-.782.6-.367.278-.734.553-1.1.805-.283.189-.566.362-.846.535-.359.222-.716.436-1.078.629-.291.158-.584.3-.877.446q-.535.256-1.07.474c-.3.12-.594.234-.892.336-.359.122-.716.224-1.075.321-.3.079-.591.161-.89.222a13.019,13.019,0,0,1-5.808-.074c-.252-.064-.487-.178-.737-.257-.731,1.763-1.2,3.632-.739,4.987a2.669,2.669,0,0,0,1.881,1.718l.013,0a32.551,32.551,0,0,1,4.773,1.861,218.027,218.027,0,0,1-5.207,30.625c-4.22,17.72.42,34.6,5.484,46.832s20.674,19.832,26.158,12.658,3.8-14.766.423-31.645-12.235-41.347-12.235-59.913,10.969-24.471,16.453-35.442C744.9,430.336,741.406,421.967,739.021,417.719Z" transform="translate(-601.39 -387.457)" fill="#6a0005"/>
              <path id="Path_80" data-name="Path 80" d="M689.261,397.148s-19.483,17.047-38.355,18.874-20.7,1.825-20.7,1.825" transform="translate(-556.766 -372.449)" fill="none" stroke="#fff" stroke-linecap="round" stroke-linejoin="round" stroke-width="0.346"/>
              <path id="Path_81" data-name="Path 81" d="M683.887,392.132s-17.654,20.09-32.264,24.96-20.7,4.87-20.7,4.87" transform="translate(-555.655 -380.217)" fill="none" stroke="#fff" stroke-linecap="round" stroke-linejoin="round" stroke-width="0.346"/>
              <path id="Path_82" data-name="Path 82" d="M657.631,389.265s-4.87,15.22-16.435,22.526" transform="translate(-539.749 -384.656)" fill="none" stroke="#fff" stroke-linecap="round" stroke-linejoin="round" stroke-width="0.346"/>
              <path id="Path_83" data-name="Path 83" d="M673.866,411.72s-.609,19.481-11.568,22.526-23.133-3.046-37.137,4.261-17.044,21.917-15.829,31.049" transform="translate(-589.466 -349.884)" fill="none" stroke="#fff" stroke-linecap="round" stroke-linejoin="round" stroke-width="0.346"/>
              <path id="Path_84" data-name="Path 84" d="M611.3,498.105s-9.741-12.783-4.87-29.221,8.522-22.526,8.522-22.526" transform="translate(-595.695 -296.247)" fill="none" stroke="#fff" stroke-linecap="round" stroke-linejoin="round" stroke-width="0.346"/>
            </g>
            <path id="Path_85" data-name="Path 85" d="M657.748,424.142s3.045,23.135-7.3,37.746-3.655,34.7-3.655,34.7" transform="translate(-534.386 -330.649)" fill="none" stroke="#fff" stroke-linecap="round" stroke-linejoin="round" stroke-width="0.346"/>
            <path id="Path_86" data-name="Path 86" d="M661.871,415.781s.609,6.7-7.913,23.744S643,462.049,642.39,474.226" transform="translate(-537.9 -343.596)" fill="none" stroke="#fff" stroke-linecap="round" stroke-linejoin="round" stroke-width="0.346"/>
          </g>
        </g>
      </g>
      <g id="Group_62" data-name="Group 62" transform="translate(30.876 143.347)">
        <path id="Path_87" data-name="Path 87" d="M674.577,499.922s13.668-1.323,21.6,2.2,9.7,9.259,11.463,3.968,1.764-8.377-4.85-11.9-9.259-1.323-11.9-3.968a19.567,19.567,0,0,0-4.409-3.527s-7.054-.882-7.5,3.086-7.054,5.291-7.054,5.291Z" transform="translate(-523.03 -377.261)" fill="#fff" stroke="#1a2e35" stroke-miterlimit="10" stroke-width="0.485"/>
        <path id="Path_88" data-name="Path 88" d="M822.262,454.168c-4.641-10.548-23.989-3.3-46.411,14.769-29.025,23.388-51.587,28.829-63.776,29.784,0-.13.01-.257.013-.385-6.328-2.969-15.207-3.079-25.977-1.353-.324-.489-.657-.971-.973-1.465-20.25-31.645-25.737-37.129-32.486-31.645S638.3,477.8,640.835,503.956a35.738,35.738,0,0,0,1.172,6.093A170.915,170.915,0,0,0,613.5,527.2a77.339,77.339,0,0,0,4.123,13.043c11.359,26.5,44.938,24.063,66.883,16.1a65.041,65.041,0,0,0,21.3,7.1c17.378,2.174,29.135,1.537,36.005-1.1l11.672,9.534s27.845-19.83,45.988-51.052A257.88,257.88,0,0,0,814.909,490.2C822.137,473.886,824.591,459.459,822.262,454.168Z" transform="translate(-613.505 -435.07)" fill="#6a0005"/>
        <g id="Group_59" data-name="Group 59" transform="translate(62.691)">
          <g id="Group_56" data-name="Group 56" transform="translate(0 37.076)">
            <path id="Path_89" data-name="Path 89" d="M646.789,481.624a118.3,118.3,0,0,0,7.962,10.933l79.129-14.343-24.952-19.962-70.657,10.326C640.787,472.32,643.606,476.647,646.789,481.624Z" transform="translate(-637.849 -458.252)" fill="#d81f29"/>
            <path id="Path_90" data-name="Path 90" stroke="#1a2e35" d="M646.624,481.624a118.279,118.279,0,0,0,7.961,10.933l79.129-14.343-24.952-19.962L638.1,468.578C640.622,472.32,643.44,476.647,646.624,481.624Z" fill="#fff" transform="translate(-638.104 -458.252)" stroke-linecap="round" stroke-linejoin="round" stroke-width="0.528" opacity="0.5"/>
          </g>
          <g id="Group_58" data-name="Group 58" transform="translate(14.249)">
            <g id="Group_57" data-name="Group 57" transform="translate(0.008)">
              <path id="Path_91" data-name="Path 91" d="M656.028,457.214,643.7,511.721q1.3,1.7,2.645,3.364l79.129-14.343L741.158,443.7Z" transform="translate(-643.698 -443.704)" fill="#d81f29" stroke="#6a0005" stroke-miterlimit="10" stroke-width="0.921"/>
              <path id="Path_92" data-name="Path 92" d="M671,471.06a8.1,8.1,0,1,1,5.528-10.3A8.268,8.268,0,0,1,671,471.06Z" transform="translate(-618.3 -425.855)" fill="#d81f29" stroke="#6a0005" stroke-miterlimit="10" stroke-width="0.921"/>
            </g>
            <path id="Path_93" data-name="Path 93" stroke="#1a2e35" d="M656.025,457.214l-12.33,54.508q1.3,1.7,2.643,3.364l79.131-14.343L741.153,443.7Z" fill="#fff" transform="translate(-643.695 -443.704)" stroke-linecap="round" stroke-linejoin="round" stroke-width="0.528" opacity="0.5"/>
            <path id="Path_94" data-name="Path 94" d="M671,471.06a8.1,8.1,0,1,1,5.528-10.3A8.268,8.268,0,0,1,671,471.06Z" transform="translate(-618.292 -425.855)" fill="#fff" stroke="#1a2e35" stroke-linecap="round" stroke-linejoin="round" stroke-width="0.528"/>
          </g>
        </g>
        <g id="Group_60" data-name="Group 60" transform="translate(78.262 115.3)">
          <path id="Path_95" data-name="Path 95" d="M691.622,496.492s-10.9,8.109-17.055,11.463-8.107,2.238-13.979,7.827-10.9,9.506-12.3,11.744-3.076,4.473-3.915-.561a14.893,14.893,0,0,1,5.592-13.7c3.914-2.8,9.226-3.912,9.226-7.549s2.515-6.708,5.591-6.708,5.031,3.074,10.9,0,9.506-10.064,9.506-10.064Z" transform="translate(-644.214 -488.946)" fill="#fff" stroke="#1a2e35" stroke-miterlimit="10" stroke-width="0.485"/>
        </g>
        <g id="Group_61" data-name="Group 61" transform="translate(29.198 49.079)">
          <path id="Path_96" data-name="Path 96" d="M624.962,474.226s12.057,28.831,39.838,41.936" transform="translate(-624.962 -445.52)" fill="none" stroke="#fff" stroke-miterlimit="10" stroke-width="0.346"/>
          <path id="Path_97" data-name="Path 97" d="M661.735,515.268s17.243-8.622,42.535-52.306" transform="translate(-568.018 -462.962)" fill="none" stroke="#fff" stroke-miterlimit="10" stroke-width="0.346"/>
          <path id="Path_98" data-name="Path 98" d="M643.584,470.724s18.265,26.787,39.573,35.919" transform="translate(-596.125 -450.942)" fill="none" stroke="#fff" stroke-miterlimit="10" stroke-width="0.346"/>
        </g>
      </g>
    </g>
    <g id="Group_68" data-name="Group 68" transform="translate(862.196 641.569)">
      <rect id="Rectangle_13" data-name="Rectangle 13" width="195.582" height="369.432" rx="7.674" fill="#6a0005"/>
      <g id="Group_65" data-name="Group 65" transform="translate(8.692 40.565)">
        <rect id="Rectangle_14" data-name="Rectangle 14" width="178.197" height="288.302" fill="#fff"/>
        <g id="Group_64" data-name="Group 64" clip-path="url(#clip-path-7)">
          <path id="Path_99" data-name="Path 99" d="M877.461,454.759,711.346,551.631H877.461Z" transform="translate(-699.265 -263.329)" fill="#d81f29" opacity="0.4"/>
        </g>
        <rect id="Rectangle_16" data-name="Rectangle 16" width="178.197" height="288.302" fill="none" stroke="#1a2e35" stroke-miterlimit="10" stroke-width="0.528"/>
      </g>
      <g id="Group_66" data-name="Group 66" transform="translate(75.777 15.103)">
        <path id="Path_100" data-name="Path 100" d="M774.314,374.937H735.572a2.641,2.641,0,0,1-2.643-2.64h0a2.642,2.642,0,0,1,2.643-2.643h38.742a2.641,2.641,0,0,1,2.64,2.643h0A2.641,2.641,0,0,1,774.314,374.937Z" transform="translate(-732.929 -369.654)" fill="#d81f29"/>
        <path id="Path_101" data-name="Path 101" d="M774.314,374.937H735.572a2.641,2.641,0,0,1-2.643-2.64h0a2.642,2.642,0,0,1,2.643-2.643h38.742a2.641,2.641,0,0,1,2.64,2.643h0A2.641,2.641,0,0,1,774.314,374.937Z" transform="translate(-732.929 -369.654)" fill="#d81f29" opacity="0.4"/>
      </g>
      <path id="Path_102" data-name="Path 102" d="M758.553,505.578a10.566,10.566,0,1,0-10.566,10.566A10.565,10.565,0,0,0,758.553,505.578Z" transform="translate(-650.196 -160.432)" fill="#d81f29" stroke="#6a0005" stroke-miterlimit="10" stroke-width="0.869"/>
      <g id="Group_67" data-name="Group 67" transform="translate(92.436 339.79)">
        <rect id="Rectangle_17" data-name="Rectangle 17" width="10.71" height="10.71" fill="#d81f29" stroke="#6a0005" stroke-miterlimit="10" stroke-width="0.869"/>
        <rect id="Rectangle_18" data-name="Rectangle 18" width="10.71" height="10.71" fill="#d81f29" stroke="#6a0005" stroke-miterlimit="10" stroke-width="0.869" opacity="0.6"/>
      </g>
      <rect id="Rectangle_19" data-name="Rectangle 19" width="10.71" height="10.71" transform="translate(92.436 339.79)" stroke-width="0.528" stroke="#1a2e35" stroke-linecap="round" stroke-linejoin="round" fill="none"/>
    </g>
    <g id="Group_72" data-name="Group 72" transform="translate(1029.321 726.903)">
      <g id="Group_71" data-name="Group 71" transform="translate(0 0)">
        <path id="Rectangle_20" data-name="Rectangle 20" d="M11.183,0H273.806a11.183,11.183,0,0,1,11.183,11.183V527.13a11.182,11.182,0,0,1-11.182,11.182H11.183A11.183,11.183,0,0,1,0,527.13V11.183A11.183,11.183,0,0,1,11.183,0Z" transform="translate(538.312 0) rotate(90)" fill="#d81f29" stroke="#6a0005" stroke-miterlimit="10" stroke-width="0.869"/>
        <g id="Group_70" data-name="Group 70" transform="translate(28.688 12.666)">
          <rect id="Rectangle_21" data-name="Rectangle 21" width="259.656" height="480.936" transform="translate(480.936 0) rotate(90)" fill="#fff"/>
          <g id="Group_69" data-name="Group 69" transform="translate(0 0)" clip-path="url(#clip-path-8)">
            <path id="Path_103" data-name="Path 103" d="M1184.955,422.643,829.116,630.153h355.839Z" transform="translate(-704.019 -370.497)" fill="#d81f29" opacity="0.4"/>
          </g>
          <rect id="Rectangle_23" data-name="Rectangle 23" width="259.656" height="480.936" transform="translate(480.936 0) rotate(90)" fill="none" stroke="#1a2e35" stroke-miterlimit="10" stroke-width="0.652"/>
        </g>
        <path id="Path_104" data-name="Path 104" d="M976.236,459.413a3.912,3.912,0,1,1,3.912-3.912A3.911,3.911,0,0,1,976.236,459.413Z" transform="translate(-453.57 -313.008)" fill="#1a2e35"/>
      </g>
      <rect id="Rectangle_24" data-name="Rectangle 24" width="19.092" height="2.602" rx="0.374" transform="translate(471.049 2.602) rotate(-180)" fill="#af0" stroke="#1a2e35" stroke-miterlimit="10" stroke-width="0.653"/>
      <path id="Path_105" data-name="Path 105" d="M923.438,399.814H956.4a1.3,1.3,0,0,0,1.3-1.3h0a1.3,1.3,0,0,0-1.3-1.3h-32.96a1.3,1.3,0,0,0-1.3,1.3h0A1.3,1.3,0,0,0,923.438,399.814Z" transform="translate(-531.287 -397.211)" fill="#af0" stroke="#1a2e35" stroke-miterlimit="10" stroke-width="0.653"/>
    </g>
    <g id="Group_77" data-name="Group 77" transform="translate(1365.213 811.98)">
      <path id="Path_106" data-name="Path 106" d="M1019.891,516.064c0,3.81-22.735,6.9-50.782,6.9s-50.782-3.086-50.782-6.9,22.735-6.894,50.782-6.894S1019.891,512.256,1019.891,516.064Z" transform="translate(-873.075 -308.92)" fill="#d81f29"/>
      <g id="Group_76" data-name="Group 76">
        <g id="Group_73" data-name="Group 73" transform="translate(52.333)">
          <path id="Path_107" data-name="Path 107" d="M921.106,535.6c0,57.994,45.942,105.009,45.942,105.009s45.939-47.015,45.939-105.009S967.048,430.6,967.048,430.6,921.106,477.61,921.106,535.6Z" transform="translate(-921.106 -430.595)" fill="#6a0005"/>
          <line id="Line_2" data-name="Line 2" y1="210.019" transform="translate(45.941)" fill="none" stroke="#fff" stroke-miterlimit="10" stroke-width="0.738"/>
          <line id="Line_3" data-name="Line 3" x1="25.722" y1="22.456" transform="translate(20.22 52.195)" fill="none" stroke="#fff" stroke-miterlimit="10" stroke-width="0.738"/>
          <line id="Line_4" data-name="Line 4" y1="46.137" x2="31.847" transform="translate(46.35 63.219)" fill="none" stroke="#fff" stroke-miterlimit="10" stroke-width="0.738"/>
          <line id="Line_5" data-name="Line 5" x1="37.971" y1="33.888" transform="translate(7.971 95.474)" fill="none" stroke="#fff" stroke-miterlimit="10" stroke-width="0.738"/>
          <line id="Line_6" data-name="Line 6" y1="33.48" x2="37.563" transform="translate(46.35 122.829)" fill="none" stroke="#fff" stroke-miterlimit="10" stroke-width="0.738"/>
          <line id="Line_7" data-name="Line 7" x1="29.397" y1="23.272" transform="translate(16.953 156.309)" fill="none" stroke="#fff" stroke-miterlimit="10" stroke-width="0.738"/>
        </g>
        <g id="Group_74" data-name="Group 74" transform="translate(0 117.275)">
          <path id="Path_108" data-name="Path 108" d="M921.076,539.841C943.388,565,981.4,567.721,981.4,567.721s1.843-38.07-20.467-63.229-60.328-27.881-60.328-27.881S898.766,514.682,921.076,539.841Z" transform="translate(-900.571 -476.612)" fill="#6a0005"/>
          <line id="Line_8" data-name="Line 8" x1="80.795" y1="91.108" transform="translate(0.037 0)" fill="none" stroke="#fff" stroke-miterlimit="10" stroke-width="0.738"/>
          <line id="Line_9" data-name="Line 9" x1="19.798" y2="0.154" transform="translate(8.959 32.384)" fill="none" stroke="#fff" stroke-miterlimit="10" stroke-width="0.738"/>
          <line id="Line_10" data-name="Line 10" x1="3.934" y1="32.266" transform="translate(38.351 15.016)" fill="none" stroke="#fff" stroke-miterlimit="10" stroke-width="0.738"/>
          <line id="Line_11" data-name="Line 11" x1="29.509" y1="0.093" transform="translate(20.295 56.025)" fill="none" stroke="#fff" stroke-miterlimit="10" stroke-width="0.738"/>
          <line id="Line_12" data-name="Line 12" y1="28.974" x2="3.415" transform="translate(60.348 38.677)" fill="none" stroke="#fff" stroke-miterlimit="10" stroke-width="0.738"/>
          <line id="Line_13" data-name="Line 13" x1="21.705" y2="1.213" transform="translate(47.596 77.747)" fill="none" stroke="#fff" stroke-miterlimit="10" stroke-width="0.738"/>
        </g>
        <g id="Group_75" data-name="Group 75" transform="translate(114.266 119.143)">
          <path id="Path_109" data-name="Path 109" d="M968.706,502.476c-23.423,24.127-23.3,62.24-23.3,62.24s38.1-1,61.523-25.128,23.3-62.242,23.3-62.242S992.13,478.349,968.706,502.476Z" transform="translate(-945.408 -477.345)" fill="#6a0005"/>
          <line id="Line_14" data-name="Line 14" y1="87.37" x2="84.824" transform="translate(0 0.001)" fill="none" stroke="#fff" stroke-miterlimit="10" stroke-width="0.738"/>
          <line id="Line_15" data-name="Line 15" x1="1.631" y1="19.731" transform="translate(53.042 11.326)" fill="none" stroke="#fff" stroke-miterlimit="10" stroke-width="0.738"/>
          <line id="Line_16" data-name="Line 16" y1="6.331" x2="31.882" transform="translate(40.827 39.329)" fill="none" stroke="#fff" stroke-miterlimit="10" stroke-width="0.738"/>
          <line id="Line_17" data-name="Line 17" x1="2.109" y1="29.434" transform="translate(30.467 24.384)" fill="none" stroke="#fff" stroke-miterlimit="10" stroke-width="0.738"/>
          <line id="Line_18" data-name="Line 18" x2="29.148" y2="1.243" transform="translate(21.863 65.193)" fill="none" stroke="#fff" stroke-miterlimit="10" stroke-width="0.738"/>
          <line id="Line_19" data-name="Line 19" x1="2.83" y1="21.555" transform="translate(9.633 53.32)" fill="none" stroke="#fff" stroke-miterlimit="10" stroke-width="0.738"/>
        </g>
      </g>
    </g>
    <g id="Group_96" data-name="Group 96" transform="translate(1139.476 836.296)">
      <g id="Group_91" data-name="Group 91">
        <g id="Group_82" data-name="Group 82" transform="translate(0.384 0.022)">
          <g id="Group_78" data-name="Group 78" transform="translate(20.412)">
            <path id="Path_110" data-name="Path 110" d="M881.433,482.961l-61.278-39.323,8.007-3.493,52.523,30.612Z" transform="translate(-820.155 -440.145)" fill="url(#linear-gradient)"/>
          </g>
          <g id="Group_79" data-name="Group 79" transform="translate(9.405 6.976)">
            <path id="Path_111" data-name="Path 111" d="M882.9,495.459l-67.066-46.927,5.85-5.65,64.71,44.57Z" transform="translate(-815.837 -442.882)" fill="url(#linear-gradient)"/>
          </g>
          <g id="Group_80" data-name="Group 80" transform="translate(1.796 18.05)">
            <path id="Path_112" data-name="Path 112" d="M878.393,499.736l-65.542-44.5,3.494-8.006,67.7,46.659Z" transform="translate(-812.851 -447.227)" fill="url(#linear-gradient)"/>
          </g>
          <g id="Group_81" data-name="Group 81" transform="translate(0 33.777)">
            <path id="Path_113" data-name="Path 113" d="M866.054,497.79l-53.8-32.728-.11-11.663,61.778,40.761Z" transform="translate(-812.146 -453.398)" fill="url(#linear-gradient)"/>
          </g>
        </g>
        <g id="Group_88" data-name="Group 88" transform="translate(0.002)">
          <g id="Group_83" data-name="Group 83" transform="translate(47.373 2.592)">
            <path id="Path_114" data-name="Path 114" d="M865.275,481.476c-3.369-3.392-34.69-34.583-34.69-34.583l5.966.008-.206-5.747,28.207,28.118S865.805,473.032,865.275,481.476Z" transform="translate(-830.585 -441.153)" fill="url(#linear-gradient-14)"/>
          </g>
          <g id="Group_84" data-name="Group 84" transform="translate(9.836 6.95)">
            <path id="Path_115" data-name="Path 115" d="M873.682,506.545c-10.082-10.171-45.343-45.3-57.826-58.042,1.685-2.51,5.862-5.64,5.862-5.64l57.624,57.844A81.092,81.092,0,0,1,873.682,506.545Z" transform="translate(-815.856 -442.863)" fill="url(#linear-gradient-15)"/>
          </g>
          <g id="Group_85" data-name="Group 85" transform="translate(0 33.722)">
            <path id="Path_116" data-name="Path 116" d="M840,492.908l-27.519-27.876s-1.02-7.08-.089-11.665c12.258,12.541,33.37,33.8,33.37,33.8l-5.556.454Z" transform="translate(-811.996 -453.368)" fill="url(#linear-gradient-16)"/>
          </g>
          <g id="Group_86" data-name="Group 86" transform="translate(2.204 18.005)">
            <path id="Path_117" data-name="Path 117" d="M864.874,507.412,812.861,455.2s1.707-5.884,3.509-8c13.339,13.229,46.414,46.628,56.381,56.595C870.445,505.516,864.874,507.412,864.874,507.412Z" transform="translate(-812.861 -447.201)" fill="url(#linear-gradient-17)"/>
          </g>
          <g id="Group_87" data-name="Group 87" transform="translate(20.861)">
            <path id="Path_118" data-name="Path 118" d="M876.137,499.779c-6.642-6.68-40.59-40.756-55.955-56.167a30.681,30.681,0,0,1,8.013-3.476l51.449,51.643A38.164,38.164,0,0,1,876.137,499.779Z" transform="translate(-820.182 -440.136)" fill="url(#linear-gradient-18)"/>
          </g>
        </g>
        <g id="Group_90" data-name="Group 90" transform="translate(0 0.023)">
          <g id="Group_89" data-name="Group 89" clip-path="url(#clip-path-9)">
            <ellipse id="Ellipse_9" data-name="Ellipse 9" cx="42.97" cy="12.392" rx="42.97" ry="12.392" transform="translate(-8.964 33.463) rotate(-27.598)" opacity="0.57" fill="url(#radial-gradient-2)"/>
          </g>
        </g>
      </g>
      <g id="Group_95" data-name="Group 95" transform="translate(96.771 17.835)">
        <g id="Group_94" data-name="Group 94">
          <g id="Group_93" data-name="Group 93">
            <g id="Group_92" data-name="Group 92">
              <path id="Path_119" data-name="Path 119" d="M877.626,447.336l-5.079,19.02h-5.979l-2.579-11.983h-.354l-2.582,11.983h-6l-5.082-19.02h5.518l2.661,12.228h.354l2.852-12.228H866.3l2.852,12.228h.354l2.661-12.228Z" transform="translate(-849.967 -446.821)"/>
              <path id="Path_120" data-name="Path 120" d="M877.954,447.336v19.02h-5.161v-8.043h-6.114v8.043h-5.163v-19.02h5.163v6.685h6.114v-6.685Z" transform="translate(-832.083 -446.821)"/>
              <path id="Path_121" data-name="Path 121" d="M874.336,447.336v19.02h-5.163v-19.02Z" transform="translate(-820.226 -446.821)"/>
              <path id="Path_122" data-name="Path 122" d="M882.511,466.356l-2.77-5.706h-2.174v5.706H872.4v-19.02h7.962c5.107,0,6.792,3.071,6.792,6.167a6.806,6.806,0,0,1-2.88,5.788L888,466.356Zm-4.944-9.756h2.391c1.33,0,2.255-.6,2.255-2.714,0-1.741-.571-2.472-2.365-2.472h-2.281Z" transform="translate(-815.223 -446.821)"/>
              <path id="Path_123" data-name="Path 123" d="M891.1,462.036v4.32h-11.82v-19.02h5.163v14.7Z" transform="translate(-804.572 -446.821)"/>
              <path id="Path_124" data-name="Path 124" d="M890.074,447.336v19.02h-5.161v-19.02Z" transform="translate(-795.852 -446.821)"/>
              <path id="Path_125" data-name="Path 125" d="M904.131,456.1v3.1c0,4.646-2.554,7.99-7.526,7.99-5.433,0-8.749-3.887-8.749-9.646,0-4.781,2.582-10.406,8.586-10.406a7.519,7.519,0,0,1,7.335,7.172h-4.916c-.191-1.657-1.142-2.989-2.556-2.989-2.2,0-3.26,2.61-3.26,6.114,0,4.078,1.657,5.245,3.56,5.245a2.587,2.587,0,0,0,2.8-2.5v-.436h-2.989V456.1Z" transform="translate(-791.295 -447.134)"/>
              <path id="Path_126" data-name="Path 126" d="M900.483,447.336v19.02H895.32v-19.02Z" transform="translate(-779.737 -446.821)"/>
              <path id="Path_127" data-name="Path 127" d="M914.538,456.1v3.1c0,4.646-2.554,7.99-7.526,7.99-5.433,0-8.749-3.887-8.749-9.646,0-4.781,2.582-10.406,8.586-10.406a7.524,7.524,0,0,1,7.337,7.172h-4.919c-.188-1.657-1.142-2.989-2.554-2.989-2.2,0-3.259,2.61-3.259,6.114,0,4.078,1.656,5.245,3.558,5.245a2.585,2.585,0,0,0,2.8-2.5v-.436h-2.987V456.1Z" transform="translate(-775.18 -447.134)"/>
              <path id="Path_128" data-name="Path 128" d="M858.548,460.172c-1.983,0-3.1,2.582-3.1,5.951,0,4.154,1.575,5.133,3.1,5.133,1.876,0,2.826-1.412,2.908-3.8h4.809c0,5-2.8,8.451-7.661,8.451-4.511,0-8.423-3.1-8.423-9.348,0-5.163,2.582-10.7,8.423-10.7,4.891,0,7.526,3.749,7.579,7.987h-4.755C861.32,461.828,860.314,460.172,858.548,460.172Z" transform="translate(-849.635 -433.634)"/>
              <path id="Path_129" data-name="Path 129" d="M865.6,455.852c5.028,0,8.26,5.054,8.26,10.65,0,6.384-3.937,9.4-8.26,9.4-4.345,0-8.285-3.017-8.285-9.4C857.315,460.906,860.549,455.852,865.6,455.852Zm0,15.566c1.685,0,2.989-1.465,2.989-5,0-3.94-1.358-6.249-2.989-6.249-1.682,0-3.015,2.335-3.015,6.249C862.585,469.953,863.862,471.418,865.6,471.418Z" transform="translate(-838.588 -433.634)"/>
              <path id="Path_130" data-name="Path 130" d="M885.121,475.074h-5.082V464.342h-.163l-3.586,9.1h-2.852l-3.479-9.1H869.8v10.732h-5.082v-19.02H870.5l4.32,10.923h.219l4.32-10.923h5.76Z" transform="translate(-827.129 -433.321)"/>
              <path id="Path_131" data-name="Path 131" d="M888.427,462.792c0,4.592-2.905,7.118-6.71,7.118h-2.635v5.163h-5.163v-19.02h7.8C886.118,456.054,888.427,458.689,888.427,462.792Zm-4.972.028c0-1.713-.543-2.691-2.77-2.691h-1.6v5.706h1.9C882.56,465.835,883.454,464.775,883.454,462.82Z" transform="translate(-812.878 -433.321)"/>
              <path id="Path_132" data-name="Path 132" d="M892.371,470.754v4.32h-11.82v-19.02h5.163v14.7Z" transform="translate(-802.607 -433.321)"/>
              <path id="Path_133" data-name="Path 133" d="M891.343,456.054v19.02h-5.161v-19.02Z" transform="translate(-793.887 -433.321)"/>
              <path id="Path_134" data-name="Path 134" d="M901.427,471.893h-6.3l-.869,3.181h-5.405l6.193-19.02h6.468l6.168,19.02H902.3Zm-1.142-4.047-1.82-6.575h-.382l-1.82,6.575Z" transform="translate(-789.759 -433.321)"/>
              <path id="Path_135" data-name="Path 135" d="M913.233,456.054v19.02h-4.728l-6.33-10.813h-.163v10.813h-5.135v-19.02h5.191l5.867,10.189h.191V456.054Z" transform="translate(-777.326 -433.321)"/>
              <path id="Path_136" data-name="Path 136" d="M912.572,460.172c-1.983,0-3.1,2.582-3.1,5.951,0,4.154,1.575,5.133,3.1,5.133,1.876,0,2.826-1.412,2.908-3.8h4.809c0,5-2.8,8.451-7.663,8.451-4.508,0-8.423-3.1-8.423-9.348,0-5.163,2.582-10.7,8.423-10.7,4.891,0,7.528,3.749,7.582,7.987h-4.755C915.345,461.828,914.338,460.172,912.572,460.172Z" transform="translate(-765.982 -433.634)"/>
              <path id="Path_137" data-name="Path 137" d="M916.7,460.32v2.961H923.5v4.21H916.7v3.316h7.065v4.266H911.54v-19.02h12.228v4.266Z" transform="translate(-754.62 -433.321)"/>
            </g>
            <path id="Path_138" data-name="Path 138" d="M902.03,464.269v14.465l-2.556-2.309-2.609,2.309V456.06l5.335,8.209Z" transform="translate(-777.344 -433.312)" fill="url(#linear-gradient-19)"/>
          </g>
        </g>
      </g>
    </g>
    <g id="Group_110" data-name="Group 110" transform="translate(914.799 774.635)">
      <g id="Group_101" data-name="Group 101" transform="translate(0.415 0.026)">
        <g id="Group_97" data-name="Group 97" transform="translate(22.13)">
          <path id="Path_139" data-name="Path 139" d="M799.12,462.372l-66.438-42.634,8.681-3.787,56.945,33.19Z" transform="translate(-732.682 -415.951)" fill="url(#linear-gradient)"/>
        </g>
        <g id="Group_98" data-name="Group 98" transform="translate(10.197 7.563)">
          <path id="Path_140" data-name="Path 140" d="M800.714,475.924,728,425.045l6.342-6.126L804.5,467.242Z" transform="translate(-728 -418.919)" fill="url(#linear-gradient)"/>
        </g>
        <g id="Group_99" data-name="Group 99" transform="translate(1.947 19.57)">
          <path id="Path_141" data-name="Path 141" d="M795.824,480.56l-71.061-48.25,3.788-8.681,73.4,50.588Z" transform="translate(-724.763 -423.63)" fill="url(#linear-gradient)"/>
        </g>
        <g id="Group_100" data-name="Group 100" transform="translate(0 36.622)">
          <path id="Path_142" data-name="Path 142" d="M782.446,478.45l-58.328-35.483L724,430.321l66.98,44.194Z" transform="translate(-723.999 -430.321)" fill="url(#linear-gradient)"/>
        </g>
      </g>
      <g id="Group_107" data-name="Group 107" transform="translate(0.002)">
        <g id="Group_102" data-name="Group 102" transform="translate(51.362 2.811)">
          <path id="Path_143" data-name="Path 143" d="M781.6,460.764c-3.655-3.677-37.614-37.5-37.614-37.5l6.471.008-.224-6.231,30.58,30.488S782.177,451.609,781.6,460.764Z" transform="translate(-743.99 -417.044)" fill="url(#linear-gradient-24)"/>
        </g>
        <g id="Group_103" data-name="Group 103" transform="translate(10.665 7.536)">
          <path id="Path_144" data-name="Path 144" d="M790.714,487.942c-10.931-11.027-49.158-49.12-62.693-62.928,1.825-2.722,6.356-6.116,6.356-6.116l62.474,62.714A87.974,87.974,0,0,1,790.714,487.942Z" transform="translate(-728.021 -418.898)" fill="url(#linear-gradient-25)"/>
        </g>
        <g id="Group_104" data-name="Group 104" transform="translate(0 36.563)">
          <path id="Path_145" data-name="Path 145" d="M754.193,473.157l-29.835-30.223s-1.106-7.676-.1-12.646c13.291,13.6,36.179,36.645,36.179,36.645l-6.022.494Z" transform="translate(-723.836 -430.288)" fill="url(#linear-gradient-26)"/>
        </g>
        <g id="Group_105" data-name="Group 105" transform="translate(2.387 19.524)">
          <path id="Path_146" data-name="Path 146" d="M781.166,488.882l-56.393-56.608s1.853-6.379,3.8-8.673c14.465,14.343,50.323,50.552,61.129,61.361C787.206,486.826,781.166,488.882,781.166,488.882Z" transform="translate(-724.773 -423.602)" fill="url(#linear-gradient-27)"/>
        </g>
        <g id="Group_106" data-name="Group 106" transform="translate(22.617)">
          <path id="Path_147" data-name="Path 147" d="M793.376,480.607c-7.2-7.243-44.008-44.186-60.665-60.894a33.2,33.2,0,0,1,8.688-3.772l55.782,55.993A41.451,41.451,0,0,1,793.376,480.607Z" transform="translate(-732.711 -415.941)" fill="url(#linear-gradient-28)"/>
        </g>
      </g>
      <g id="Group_109" data-name="Group 109" transform="translate(0 0.025)">
        <g id="Group_108" data-name="Group 108" clip-path="url(#clip-path-10)">
          <ellipse id="Ellipse_10" data-name="Ellipse 10" cx="46.588" cy="13.436" rx="46.588" ry="13.436" transform="translate(-9.72 36.282) rotate(-27.598)" opacity="0.57" fill="url(#radial-gradient-3)"/>
        </g>
      </g>
    </g>
  </g>
</svg>
