<svg xmlns="http://www.w3.org/2000/svg" width="201" height="201" viewBox="0 0 201 201">
  <g id="Group_115" data-name="Group 115" transform="translate(-30.445 -25.689)">
    <path id="Path_175" data-name="Path 175" d="M96.535,197.564a85.333,85.333,0,0,1-51.749-17.289,3.3,3.3,0,1,1,3.973-5.265,79.479,79.479,0,1,0,77.085-137.4,3.3,3.3,0,1,1,2.432-6.128A86.076,86.076,0,0,1,96.535,197.564Z" transform="translate(34.412 14.687)" fill="#6a0005"/>
    <path id="Path_176" data-name="Path 176" d="M56.3,171.287a3.3,3.3,0,0,1-2.56-1.213A86.067,86.067,0,0,1,120.474,29.654a87.307,87.307,0,0,1,12.271.87,3.3,3.3,0,1,1-.929,6.525,80.706,80.706,0,0,0-11.342-.8A79.469,79.469,0,0,0,58.857,165.906a3.3,3.3,0,0,1-2.553,5.382Z" transform="translate(10.473 10.473)" fill="#6a0005"/>
    <path id="Path_177" data-name="Path 177" d="M60.439,50.42a3.3,3.3,0,0,1-3.3-3.3V32.953a3.3,3.3,0,1,1,6.594,0V47.121A3.3,3.3,0,0,1,60.439,50.42Z" transform="translate(70.508 10.473)" fill="#6a0005"/>
    <path id="Path_178" data-name="Path 178" d="M69.855,51.567A3.3,3.3,0,0,1,67,46.622l7.086-12.275a3.3,3.3,0,0,1,5.713,3.3L72.713,49.917A3.3,3.3,0,0,1,69.855,51.567Z" transform="translate(95.385 18.516)" fill="#6a0005"/>
    <path id="Path_179" data-name="Path 179" d="M76.755,54.7A3.3,3.3,0,0,1,75.1,48.546L87.377,41.46a3.3,3.3,0,0,1,3.3,5.713L78.4,54.259A3.3,3.3,0,0,1,76.755,54.7Z" transform="translate(113.598 40.489)" fill="#6a0005"/>
    <path id="Path_180" data-name="Path 180" d="M93.449,58.978H79.277a3.3,3.3,0,1,1,0-6.594H93.449a3.3,3.3,0,0,1,0,6.594Z" transform="translate(120.263 70.508)" fill="#6a0005"/>
    <path id="Path_181" data-name="Path 181" d="M89.023,75.484a3.284,3.284,0,0,1-1.646-.441L75.1,67.958a3.3,3.3,0,0,1,3.3-5.713l12.271,7.086a3.3,3.3,0,0,1-1.649,6.154Z" transform="translate(113.598 95.384)" fill="#6a0005"/>
    <path id="Path_182" data-name="Path 182" d="M76.945,87.566a3.305,3.305,0,0,1-2.858-1.649L67,73.642a3.3,3.3,0,0,1,5.713-3.3L79.8,82.622a3.294,3.294,0,0,1-1.209,4.5A3.251,3.251,0,0,1,76.945,87.566Z" transform="translate(95.385 113.597)" fill="#6a0005"/>
    <path id="Path_183" data-name="Path 183" d="M60.439,91.988a3.3,3.3,0,0,1-3.3-3.3V74.517a3.3,3.3,0,0,1,6.594,0V88.693A3.294,3.294,0,0,1,60.439,91.988Z" transform="translate(70.508 120.264)" fill="#6a0005"/>
    <path id="Path_184" data-name="Path 184" d="M49.069,87.566a3.3,3.3,0,0,1-2.851-4.945L53.3,70.347a3.3,3.3,0,1,1,5.713,3.3L51.927,85.917A3.3,3.3,0,0,1,49.069,87.566Z" transform="translate(40.491 113.597)" fill="#6a0005"/>
    <path id="Path_185" data-name="Path 185" d="M40.756,75.484A3.3,3.3,0,0,1,39.1,69.331l12.275-7.086a3.3,3.3,0,1,1,3.3,5.713L42.4,75.044A3.3,3.3,0,0,1,40.756,75.484Z" transform="translate(18.516 95.384)" fill="#6a0005"/>
    <path id="Path_186" data-name="Path 186" d="M51.881,58.978H37.709a3.3,3.3,0,1,1,0-6.594H51.881a3.3,3.3,0,0,1,0,6.594Z" transform="translate(10.473 70.508)" fill="#6a0005"/>
    <path id="Path_187" data-name="Path 187" d="M53.024,54.7a3.284,3.284,0,0,1-1.646-.441L39.1,47.173a3.3,3.3,0,0,1,3.3-5.713l12.271,7.086A3.3,3.3,0,0,1,53.024,54.7Z" transform="translate(18.516 40.489)" fill="#6a0005"/>
    <path id="Path_188" data-name="Path 188" d="M56.159,51.567A3.305,3.305,0,0,1,53.3,49.917L46.218,37.646a3.3,3.3,0,1,1,5.709-3.3l7.086,12.275a3.3,3.3,0,0,1-2.855,4.945Z" transform="translate(40.491 18.516)" fill="#6a0005"/>
    <g id="Group_114" data-name="Group 114" transform="translate(30.445 25.689)">
      <path id="Path_189" data-name="Path 189" d="M60.439,156.181a3.3,3.3,0,1,1,0-6.594,94.011,94.011,0,0,0,93.9-93.908,3.3,3.3,0,0,1,6.594,0A100.614,100.614,0,0,1,60.439,156.181Z" transform="translate(40.063 44.819)" fill="#d81f29"/>
      <path id="Path_190" data-name="Path 190" d="M33.744,129.486a3.3,3.3,0,0,1-3.3-3.3,100.614,100.614,0,0,1,100.5-100.5,3.3,3.3,0,0,1,0,6.594,94.011,94.011,0,0,0-93.908,93.9A3.3,3.3,0,0,1,33.744,129.486Z" transform="translate(-30.445 -25.689)" fill="#d81f29"/>
      <path id="Path_191" data-name="Path 191" d="M67.993,76.946A13.711,13.711,0,1,1,81.7,63.233,13.726,13.726,0,0,1,67.993,76.946Zm0-20.828a7.117,7.117,0,1,0,7.115,7.115A7.126,7.126,0,0,0,67.993,56.118Z" transform="translate(32.509 37.265)" fill="#d81f29"/>
      <path id="Path_192" data-name="Path 192" d="M62.116,79.848a3.012,3.012,0,0,1-2.148-1.027,3.3,3.3,0,0,1,0-4.664c.062-.062.124-.12.189-.178,1.329-1.213,24.553-23.136,33.474-31.562a3.3,3.3,0,1,1,4.53,4.792L66,77.539C64.872,78.606,63.55,79.848,62.116,79.848Z" transform="translate(44.977 16.11)" fill="#d81f29"/>
      <path id="Path_193" data-name="Path 193" d="M60.439,82.127a3.3,3.3,0,0,1-3.3-3.3V58.539a3.3,3.3,0,0,1,6.594,0V78.828A3.3,3.3,0,0,1,60.439,82.127Z" transform="translate(40.063 52.373)" fill="#d81f29"/>
    </g>
  </g>
</svg>
