<svg xmlns="http://www.w3.org/2000/svg" width="193.926" height="200.697" viewBox="0 0 193.926 200.697">
  <g id="Group_113" data-name="Group 113" transform="translate(-276.628 -27.441)">
    <path id="Path_162" data-name="Path 162" d="M325.031,108.749a3.51,3.51,0,0,1-2.485-1.029L306.87,92.04a3.511,3.511,0,0,1-.435-4.441A170.2,170.2,0,0,1,327.178,62.85c10.152-10.156,20.777-18.681,29.916-24.015,10.691-6.239,18.126-7.4,22.09-3.428,8.44,8.44-8.308,32.874-27.443,52.006a170.247,170.247,0,0,1-24.749,20.739A3.522,3.522,0,0,1,325.031,108.749ZM313.912,89.14l11.534,11.538a168.842,168.842,0,0,0,21.321-18.235C369.7,59.516,376.4,42.562,374.214,40.376c-.431-.431-4.185-.951-13.58,4.534-8.63,5.035-18.747,13.172-28.487,22.913A168.587,168.587,0,0,0,313.912,89.14Z" transform="translate(84.193 16.313)" fill="#d81f29"/>
    <path id="Path_163" data-name="Path 163" d="M329.452,85.962a7.331,7.331,0,0,1-5.21-2.159L304.35,63.911a7.367,7.367,0,0,1,0-10.42l5.486-5.482a7.54,7.54,0,0,1,10.416,0l19.892,19.9a7.362,7.362,0,0,1,0,10.416L334.658,83.8A7.315,7.315,0,0,1,329.452,85.962ZM315.041,52.9a.334.334,0,0,0-.233.082l-5.489,5.485a.374.374,0,0,0,0,.474l19.9,19.892a.374.374,0,0,0,.47,0l5.489-5.486v-.474l-19.9-19.9A.345.345,0,0,0,315.041,52.9Z" transform="translate(73.677 53.266)" fill="#d81f29"/>
    <path id="Path_164" data-name="Path 164" d="M305.331,96a3.517,3.517,0,0,1-3.436-2.776,3.636,3.636,0,0,0-2.826-2.826,3.512,3.512,0,0,1-2.694-4.177L300.948,65a3.51,3.51,0,0,1,4.1-2.714c.551.1,12.458,2.089,21.243-10.4a3.522,3.522,0,0,1,2.574-1.479,3.486,3.486,0,0,1,2.787,1.017l9.228,9.228a3.516,3.516,0,0,1-.462,5.361C327.75,74.911,329.979,87.1,330,87.225A3.512,3.512,0,0,1,327.3,91.34l-21.224,4.577A3.443,3.443,0,0,1,305.331,96Zm-1.467-11.161a10.5,10.5,0,0,1,2.011,1.576,10.667,10.667,0,0,1,1.58,2.015l15.358-3.312a29.106,29.106,0,0,1,10.3-22.3l-3.638-3.634c-7.974,9.03-17.213,10.412-22.3,10.292Z" transform="translate(56.682 66.123)" fill="#d81f29"/>
    <path id="Path_165" data-name="Path 165" d="M304.771,80.237a10.728,10.728,0,0,1-7.582-18.316,10.98,10.98,0,0,1,15.168,0,10.728,10.728,0,0,1-7.586,18.316Zm0-14.426a3.695,3.695,0,0,0-2.613,6.309,3.781,3.781,0,0,0,5.229,0,3.7,3.7,0,0,0-2.617-6.309Z" transform="translate(50.199 90.616)" fill="#d81f29"/>
    <path id="Path_166" data-name="Path 166" d="M323.107,53.561a3.491,3.491,0,0,1-2.485-1.029l-7.268-7.267a3.514,3.514,0,1,1,4.969-4.969l7.268,7.264a3.515,3.515,0,0,1-2.485,6Z" transform="translate(102.884 34.077)" fill="#d81f29"/>
    <path id="Path_167" data-name="Path 167" d="M415.924,114.09H290.153a3.515,3.515,0,1,1,0-7.031A16.526,16.526,0,0,0,306.66,90.553V70.528a3.517,3.517,0,0,1,3.517-3.517H438.192a3.519,3.519,0,0,1,3.517,3.517v17.78A25.811,25.811,0,0,1,415.924,114.09ZM306.916,107.06H415.924a18.774,18.774,0,0,0,18.755-18.751V74.042H313.691V90.553A23.451,23.451,0,0,1,306.916,107.06Z" transform="translate(28.845 114.048)" fill="#6a0005"/>
    <path id="Path_168" data-name="Path 168" d="M305.031,160.882a23.074,23.074,0,0,1-16.247-6.736,24.445,24.445,0,0,1-7.306-17.326V119.2a3.515,3.515,0,1,1,7.031,0v17.621a17.365,17.365,0,0,0,5.2,12.306,15.873,15.873,0,0,0,11.627,4.721,16.586,16.586,0,0,0,16.193-16.5V117.32a3.517,3.517,0,0,1,3.517-3.517h89.833V54.289a3.515,3.515,0,0,1,7.031,0V117.32a3.516,3.516,0,0,1-3.517,3.513H328.557v16.511a23.652,23.652,0,0,1-23.091,23.534C305.318,160.882,305.179,160.882,305.031,160.882Z" transform="translate(13.979 67.256)" fill="#6a0005"/>
    <path id="Path_169" data-name="Path 169" d="M298.974,157.509a3.517,3.517,0,0,1-3.517-3.517V49.783a15.328,15.328,0,0,0-15.315-15.311,3.515,3.515,0,0,1,0-7.031h133.4a22.37,22.37,0,0,1,22.346,22.342,3.515,3.515,0,1,1-7.031,0,15.331,15.331,0,0,0-15.315-15.311H296.4a22.261,22.261,0,0,1,6.087,15.311V153.992A3.516,3.516,0,0,1,298.974,157.509Z" transform="translate(0 0)" fill="#6a0005"/>
    <path id="Path_170" data-name="Path 170" d="M373.261,40.514H292.007a3.517,3.517,0,1,1,0-7.035h81.254a3.517,3.517,0,1,1,0,7.035Z" transform="translate(34.188 17.403)" fill="#6a0005"/>
    <path id="Path_171" data-name="Path 171" d="M364.41,45.319h-72.4a3.517,3.517,0,1,1,0-7.035h72.4a3.517,3.517,0,0,1,0,7.035Z" transform="translate(34.188 31.251)" fill="#6a0005"/>
    <path id="Path_172" data-name="Path 172" d="M341.594,50.124H292.007a3.517,3.517,0,1,1,0-7.035h49.587a3.517,3.517,0,0,1,0,7.035Z" transform="translate(34.188 45.1)" fill="#6a0005"/>
    <path id="Path_173" data-name="Path 173" d="M329.315,54.926H292.007a3.515,3.515,0,1,1,0-7.031h37.308a3.515,3.515,0,0,1,0,7.031Z" transform="translate(34.188 58.952)" fill="#6a0005"/>
    <path id="Path_174" data-name="Path 174" d="M310.024,59.731H292.007a3.515,3.515,0,1,1,0-7.031h18.017a3.515,3.515,0,1,1,0,7.031Z" transform="translate(34.188 72.801)" fill="#6a0005"/>
  </g>
</svg>
