<svg xmlns="http://www.w3.org/2000/svg" width="446.329" height="251" viewBox="0 0 446.329 251">
  <g id="Group_143" data-name="Group 143" transform="translate(-29.462 -179.952)">
    <path id="Path_233" data-name="Path 233" d="M252.63,430.952c-98.8,0-186.12-48.047-222.448-122.4a7.063,7.063,0,0,1,0-6.215C66.51,227.991,153.828,179.952,252.63,179.952a292.524,292.524,0,0,1,65.988,7.456,7.069,7.069,0,1,1-3.193,13.772,278.771,278.771,0,0,0-62.795-7.089c-92.041,0-173.3,43.6-208.184,111.357C79.33,373.216,160.589,416.813,252.63,416.813s173.3-43.6,208.176-111.365c-19.2-37.2-53.824-68.487-97.9-88.325a7.069,7.069,0,1,1,5.809-12.89c48.3,21.736,86.069,56.58,106.36,98.108a7.063,7.063,0,0,1,0,6.215C438.743,382.905,351.433,430.952,252.63,430.952Z" transform="translate(0 0)" fill="#6a0005"/>
    <path id="Path_234" data-name="Path 234" d="M252.625,365.916c-98.373,0-185.48-34.048-221.91-86.74a7.077,7.077,0,0,1,0-8.042C67.145,218.45,154.252,184.4,252.625,184.4s185.472,34.048,221.9,86.732a7.077,7.077,0,0,1,0,8.042C438.1,331.868,350.991,365.916,252.625,365.916ZM45.269,275.155c35.18,46,117.525,76.622,207.357,76.622S424.8,321.156,459.974,275.155c-35.172-46-117.517-76.614-207.349-76.614S80.441,229.154,45.269,275.155Z" transform="translate(0.005 30.293)" fill="#6a0005"/>
    <path id="Path_235" data-name="Path 235" d="M136.889,365.288a90.421,90.421,0,1,1,90.417-90.425A90.531,90.531,0,0,1,136.889,365.288Zm0-166.7a76.282,76.282,0,1,0,76.278,76.278A76.368,76.368,0,0,0,136.889,198.584Z" transform="translate(115.741 30.586)" fill="#d81f29"/>
    <path id="Path_236" data-name="Path 236" d="M97.638,281.019A45.459,45.459,0,0,1,52.23,235.611a7.07,7.07,0,1,1,14.139,0A31.265,31.265,0,1,0,97.638,204.35a7.07,7.07,0,1,1,0-14.139,45.4,45.4,0,0,1,0,90.808Z" transform="translate(154.993 69.837)" fill="#d81f29"/>
    <path id="Path_237" data-name="Path 237" d="M62.563,220.492a7.072,7.072,0,0,1-7.074-7.074,19.97,19.97,0,0,1,19.956-19.948,7.07,7.07,0,0,1,0,14.139,5.819,5.819,0,0,0-5.816,5.809A7.071,7.071,0,0,1,62.563,220.492Z" transform="translate(177.185 92.029)" fill="#d81f29"/>
  </g>
</svg>
