<svg xmlns="http://www.w3.org/2000/svg" width="269.907" height="375.627" viewBox="0 0 269.907 375.627">
  <g id="Group_145" data-name="Group 145" transform="translate(-200.572 -239.775)">
    <path id="Path_238" data-name="Path 238" d="M228.047,308.554a23.566,23.566,0,0,1-23.542-23.535,6.157,6.157,0,1,1,12.315,0,11.223,11.223,0,1,0,11.227-11.233,6.158,6.158,0,1,1,0-12.315,23.542,23.542,0,0,1,0,47.083Z" transform="translate(22.811 125.837)" fill="#d81f29"/>
    <path id="Path_239" data-name="Path 239" d="M252.943,308.554a23.542,23.542,0,0,1,0-47.083,6.158,6.158,0,1,1,0,12.315,11.227,11.227,0,1,0,11.227,11.233,6.157,6.157,0,1,1,12.315,0A23.566,23.566,0,0,1,252.943,308.554Z" transform="translate(167.25 125.837)" fill="#d81f29"/>
    <path id="Path_240" data-name="Path 240" d="M228.047,331.716a6.157,6.157,0,1,1,0-12.315,11.223,11.223,0,1,0-11.227-11.227,6.157,6.157,0,1,1-12.315,0,23.538,23.538,0,1,1,23.542,23.542Z" transform="translate(22.811 260.218)" fill="#d81f29"/>
    <path id="Path_241" data-name="Path 241" d="M252.943,331.716a23.538,23.538,0,1,1,23.542-23.542,6.157,6.157,0,1,1-12.315,0A11.224,11.224,0,1,0,252.943,319.4a6.157,6.157,0,1,1,0,12.315Z" transform="translate(167.25 260.218)" fill="#d81f29"/>
    <path id="Path_242" data-name="Path 242" d="M439.9,509.58H231.152A30.616,30.616,0,0,1,200.572,479V288.607a30.622,30.622,0,0,1,30.58-30.587H439.9a30.617,30.617,0,0,1,30.58,30.587V479A30.612,30.612,0,0,1,439.9,509.58ZM231.152,270.335a18.288,18.288,0,0,0-18.265,18.272V479a18.282,18.282,0,0,0,18.265,18.265H439.9A18.282,18.282,0,0,0,458.164,479V288.607A18.288,18.288,0,0,0,439.9,270.335Z" transform="translate(0 105.821)" fill="#6a0005"/>
    <path id="Path_243" data-name="Path 243" d="M252.62,386.573a37.67,37.67,0,0,1-24.637-66.239v-27.9a24.636,24.636,0,1,1,49.273,0v27.9a37.67,37.67,0,0,1-24.636,66.239Zm0-106.468A12.338,12.338,0,0,0,240.3,292.433v30.872a6.16,6.16,0,0,1-2.543,4.978,25.173,25.173,0,0,0-10.574,20.543,25.439,25.439,0,0,0,50.878,0,25.173,25.173,0,0,0-10.574-20.543,6.141,6.141,0,0,1-2.543-4.978V292.433A12.338,12.338,0,0,0,252.62,280.1Z" transform="translate(82.906 162.488)" fill="#d81f29"/>
    <path id="Path_244" data-name="Path 244" d="M213.222,376.156A6.158,6.158,0,0,1,207.061,370V330.6a90.931,90.931,0,0,1,90.828-90.828c48.879,0,89.6,39.732,90.8,88.57a6.159,6.159,0,1,1-12.315.3c-1.027-42.208-36.237-76.555-78.486-76.555A78.606,78.606,0,0,0,219.376,330.6V370A6.152,6.152,0,0,1,213.222,376.156Z" transform="translate(37.636 0)" fill="#d81f29"/>
  </g>
</svg>
