<svg xmlns="http://www.w3.org/2000/svg" width="200.864" height="201" viewBox="0 0 200.864 201">
  <g id="Group_112" data-name="Group 112" transform="translate(-274.016 -168.414)">
    <path id="Path_148" data-name="Path 148" d="M311.509,242.864a77.206,77.206,0,0,1-10.823-.765,3.3,3.3,0,0,1,.928-6.527,70.068,70.068,0,0,0,9.895.7,69.072,69.072,0,0,0,55.663-27.813,3.3,3.3,0,1,1,5.268,3.961A75.6,75.6,0,0,1,311.509,242.864Z" transform="translate(62.939 102.257)" fill="#6a0005"/>
    <path id="Path_149" data-name="Path 149" d="M325.323,249.741a3.268,3.268,0,0,1-1.26-.251,76.628,76.628,0,0,1-41.774-42.546,3.3,3.3,0,0,1,6.134-2.41A70.026,70.026,0,0,0,326.586,243.4a3.3,3.3,0,0,1-1.263,6.342Z" transform="translate(21.236 89.853)" fill="#6a0005"/>
    <path id="Path_150" data-name="Path 150" d="M284.725,260.2a3.3,3.3,0,0,1-3.258-2.821,76.3,76.3,0,0,1,43.3-80.116,3.3,3.3,0,0,1,2.781,5.981,69.672,69.672,0,0,0-39.55,73.188,3.3,3.3,0,0,1-2.789,3.735A3.554,3.554,0,0,1,284.725,260.2Z" transform="translate(17.587 22.56)" fill="#6a0005"/>
    <path id="Path_151" data-name="Path 151" d="M379.627,282.622a3.254,3.254,0,0,1-1.267-.255,3.3,3.3,0,0,1-1.773-4.31,69.629,69.629,0,0,0-64.254-96.364,70.149,70.149,0,0,0-10.98.859,3.3,3.3,0,0,1-1.034-6.509,76.244,76.244,0,0,1,88.2,75.238,75.714,75.714,0,0,1-5.847,29.313A3.292,3.292,0,0,1,379.627,282.622Z" transform="translate(62.115 17.656)" fill="#6a0005"/>
    <path id="Path_152" data-name="Path 152" d="M321.616,243.633a27.593,27.593,0,1,1,27.591-27.595A27.32,27.32,0,0,1,346.488,228a3.3,3.3,0,0,1-5.938-2.865,20.805,20.805,0,0,0,2.064-9.1,20.974,20.974,0,1,0-13.277,19.538,3.294,3.294,0,1,1,2.421,6.127A27.471,27.471,0,0,1,321.616,243.633Z" transform="translate(52.832 52.898)" fill="#d81f29"/>
    <path id="Path_153" data-name="Path 153" d="M303.994,199.315a3.3,3.3,0,0,1-3.295-3.3v-24.3a3.3,3.3,0,0,1,6.593,0v24.3A3.3,3.3,0,0,1,303.994,199.315Z" transform="translate(70.455 0.033)" fill="#6a0005"/>
    <path id="Path_154" data-name="Path 154" d="M303.994,246.028a3.294,3.294,0,0,1-3.295-3.295V218.44a3.3,3.3,0,1,1,6.593,0v24.293A3.3,3.3,0,0,1,303.994,246.028Z" transform="translate(70.455 123.386)" fill="#6a0005"/>
    <path id="Path_155" data-name="Path 155" d="M335.332,233.05a3.285,3.285,0,0,1-2.333-.968l-17.176-17.176a3.3,3.3,0,1,1,4.66-4.663l17.179,17.179a3.3,3.3,0,0,1-2.33,5.628Z" transform="translate(107.837 107.903)" fill="#6a0005"/>
    <path id="Path_156" data-name="Path 156" d="M341.641,201.717h-24.3a3.3,3.3,0,0,1,0-6.6h24.3a3.3,3.3,0,0,1,0,6.6Z" transform="translate(105.697 70.518)" fill="#6a0005"/>
    <path id="Path_157" data-name="Path 157" d="M374.448,369.37a100.466,100.466,0,1,1,37.828-193.546,3.3,3.3,0,0,1-2.479,6.109,93.938,93.938,0,1,0,31.039,20.616,94.841,94.841,0,0,0-12.014-10.168,3.3,3.3,0,0,1,3.826-5.373A102.176,102.176,0,0,1,445.5,197.889,100.434,100.434,0,0,1,374.448,369.37Z" transform="translate(0)" fill="#6a0005"/>
    <path id="Path_158" data-name="Path 158" d="M303.994,232.681a3.3,3.3,0,0,1-3.295-3.3V205.09a3.3,3.3,0,0,1,6.593,0v24.293A3.3,3.3,0,0,1,303.994,232.681Z" transform="translate(70.455 88.143)" fill="#d81f29"/>
    <path id="Path_159" data-name="Path 159" d="M289.84,228.332a3.295,3.295,0,0,1-2.333-5.624l17.183-17.183a3.3,3.3,0,0,1,4.66,4.663L292.17,227.367A3.28,3.28,0,0,1,289.84,228.332Z" transform="translate(33.074 95.438)" fill="#6a0005"/>
    <path id="Path_160" data-name="Path 160" d="M307.015,204.734a3.28,3.28,0,0,1-2.33-.965L287.506,186.59a3.3,3.3,0,1,1,4.664-4.66l17.176,17.179a3.295,3.295,0,0,1-2.33,5.625Z" transform="translate(33.074 33.138)" fill="#6a0005"/>
    <path id="Path_161" data-name="Path 161" d="M339.239,285.549a51.888,51.888,0,1,1,11.049-102.6,3.3,3.3,0,1,1-1.394,6.444,45.3,45.3,0,1,0,35.64,44.265,45.076,45.076,0,0,0-21.275-38.407,3.3,3.3,0,1,1,3.5-5.588,51.893,51.893,0,0,1-27.522,95.883Z" transform="translate(35.21 35.275)" fill="#d81f29"/>
  </g>
</svg>
