<svg xmlns="http://www.w3.org/2000/svg" width="16.727" height="24.364" viewBox="0 0 16.727 24.364">
  <g id="Geo_Location" data-name="Geo Location" transform="translate(-840.661 -792.75)">
    <path id="Path_240" data-name="Path 240" d="M25.035,17.069A3.035,3.035,0,1,0,22,14.035,3.038,3.038,0,0,0,25.035,17.069Zm0-5.311a2.276,2.276,0,1,1-2.276,2.276A2.279,2.279,0,0,1,25.035,11.759Z" transform="translate(824.063 785.414)" fill="#d81f29" stroke="#d81f29" stroke-width="0.5"/>
    <path id="Path_241" data-name="Path 241" d="M24.67,19.8c1.766-2.51,3.6-5.61,3.6-7.64a7.159,7.159,0,0,0-14.318,0c0,2.03,1.838,5.13,3.6,7.64C14.767,20.585,13,22.224,13,24.091c0,2.676,3.564,4.773,8.114,4.773s8.114-2.1,8.114-4.773C29.227,22.224,27.46,20.585,24.67,19.8ZM21.114,5.955a6.212,6.212,0,0,1,6.2,6.2c0,1.941-2.032,5.17-3.835,7.654h0c-.976,1.345-1.886,2.472-2.369,3.057-.483-.585-1.393-1.711-2.369-3.056l0,0c-1.8-2.484-3.834-5.712-3.834-7.653A6.212,6.212,0,0,1,21.114,5.955Zm0,21.955c-3.881,0-7.159-1.748-7.159-3.818,0-1.469,1.676-2.837,4.2-3.462,1.328,1.813,2.485,3.165,2.6,3.3a.477.477,0,0,0,.723,0c.114-.132,1.27-1.484,2.6-3.3,2.523.626,4.2,1.994,4.2,3.462C28.273,26.161,24.994,27.909,21.114,27.909Z" transform="translate(827.911 788)" fill="#d81f29" stroke="#d81f29" stroke-width="0.5"/>
  </g>
</svg>
