<svg id="Image_Upload" data-name="Image Upload" xmlns="http://www.w3.org/2000/svg" width="24.205" height="19.364" viewBox="0 0 24.205 19.364">
  <path id="Path_238" data-name="Path 238" d="M24.969,9H9.236A4.236,4.236,0,0,0,5,13.236V24.128a4.236,4.236,0,0,0,4.236,4.236H24.969a4.236,4.236,0,0,0,4.236-4.236V13.236A4.236,4.236,0,0,0,24.969,9ZM6.21,13.236A3.026,3.026,0,0,1,9.236,10.21H24.969a3.026,3.026,0,0,1,3.026,3.026V23.287l-5.622-5.64a.605.605,0,0,0-.43-.175h0a.605.605,0,0,0-.43.175L15.287,23.88l-3.806-3.812a.605.605,0,0,0-.859,0L6.241,24.449a2.874,2.874,0,0,1-.03-.321ZM24.969,27.154H9.236a3.026,3.026,0,0,1-2.56-1.428l4.375-4.375,3.806,3.812a.605.605,0,0,0,.859,0l6.227-6.227,5.942,5.954a3.026,3.026,0,0,1-2.917,2.263Z" transform="translate(-5 -9)" fill="#d81f29"/>
  <path id="Path_239" data-name="Path 239" d="M16.5,18A1.5,1.5,0,1,0,15,16.5,1.5,1.5,0,0,0,16.5,18Zm0-2.253a.751.751,0,1,1-.751.751A.751.751,0,0,1,16.5,15.751Z" transform="translate(-8.375 -10.91)" fill="#d81f29"/>
</svg>
