<svg xmlns="http://www.w3.org/2000/svg" width="12.697" height="22.312" viewBox="0 0 12.697 22.312">
  <path id="Magic_Tag" data-name="Magic Tag" d="M31.523,20.789a9.872,9.872,0,0,0,2.107.6c1.22.2,9.067.649,7.559-2.569-.582-1.242-2.621-1.387-3.774-1.364a10.093,10.093,0,0,0-6.02,2.176q-.118.093-.235.2a.529.529,0,0,1-.61.053c-1.255-.725-1.911-1.928-.433-4.11a6.864,6.864,0,0,1,3.362-2.093c2.275-.758,5.334-1.02,7.419.336.228.148.437-.214.212-.363-3.161-2.094-8.872-1.055-11.364,1.75-1.761,1.983-1.113,3.561.358,4.617a.536.536,0,0,1,.108.781c-1.412,1.712-2.155,4.07.282,5.356a6.118,6.118,0,0,0,1.061.43.525.525,0,0,1,.355.608,3.7,3.7,0,0,0,1.406,3.737.51.51,0,0,1,.186.515,2.711,2.711,0,0,0-.055.418c-.091,1.813,1.335,2.528,2.849,2.98.3.089.41-.355.127-.459a3.37,3.37,0,0,1-2.278-2.138.531.531,0,0,1,.645-.631,4.648,4.648,0,0,0,.872.134c1.179.07,3.252-.369,3.265-1.925.01-1.264-1.375-1.656-2.369-1.424a4.373,4.373,0,0,0-2.447,1.7.542.542,0,0,1-.82.079,2.859,2.859,0,0,1-.745-2.875.536.536,0,0,1,.594-.393,17.07,17.07,0,0,0,4.026-.019c.942-.111,3.438-.3,3.527-1.716.08-1.285-2.1-1.784-2.974-1.874a5.588,5.588,0,0,0-4.706,1.738,4.916,4.916,0,0,0-.738,1.089,3.659,3.659,0,0,1-.4-.139c-3.157-1.327-2.5-3.449-.953-5.069A.542.542,0,0,1,31.523,20.789Zm.867-1.107a8.914,8.914,0,0,1,.79-.481,9.8,9.8,0,0,1,2.912-1.016,9.212,9.212,0,0,1,2.028-.147c3.364-.064,2.009,2.373,1.742,2.54-1.662,1.035-5.828.445-7.3.061l-.01,0A.533.533,0,0,1,32.39,19.682ZM34.8,30.193c.068-.079.141-.158.221-.238.82-1.007,3.216-1.558,3.122.031-.063,1.072-2.4,1.176-3.006,1.069A.534.534,0,0,1,34.8,30.193Zm-1.3-4.706a4.319,4.319,0,0,1,.955-.841,5.521,5.521,0,0,1,3.833-.64c4.428,1.676-1.885,2.353-2.817,2.356-.487,0-1.029.015-1.573-.009A.532.532,0,0,1,33.493,25.487Z" transform="translate(-28.684 -12.543)" fill="#d81f29"/>
</svg>
