<svg xmlns="http://www.w3.org/2000/svg" width="22.589" height="16.068" viewBox="0 0 22.589 16.068">
  <path id="Plain_Text" data-name="Plain Text" d="M4.193-62.119l5.853-15.844h1.166l5.82,15.844H15.418l-1.211-3.442H7.041l-1.2,3.442Zm3.353-4.866H13.7l-3.061-8.746ZM21.524-61.9a3.69,3.69,0,0,1-2.551-.875,3.023,3.023,0,0,1-.981-2.377q0-3.308,5.046-3.308h2.489q0-3.88-2.893-3.88a3.831,3.831,0,0,0-3.218,1.716l-1.009-.8a4.806,4.806,0,0,1,4.1-2.142,4.041,4.041,0,0,1,3.168,1.228A4.787,4.787,0,0,1,26.783-69v6.885H25.572v-2.3a4,4,0,0,1-1.648,1.889A4.681,4.681,0,0,1,21.524-61.9Zm.146-1.189a3.443,3.443,0,0,0,1.637-.4,3.617,3.617,0,0,0,1.222-1.026,5.117,5.117,0,0,0,.734-1.374,4.4,4.4,0,0,0,.264-1.475H23.206a6.084,6.084,0,0,0-2.831.5,1.808,1.808,0,0,0-.914,1.727,1.871,1.871,0,0,0,.611,1.547A2.465,2.465,0,0,0,21.669-63.084Z" transform="translate(-4.193 77.963)" fill="#d81f29"/>
</svg>
