<svg xmlns="http://www.w3.org/2000/svg" width="10.418" height="16.805" viewBox="0 0 10.418 16.805">
  <path id="Question_Icon" data-name="Question Icon" d="M4.535-4.969v-1.7a3.946,3.946,0,0,1,.217-1.371,2.544,2.544,0,0,1,.563-.932,4.21,4.21,0,0,1,.762-.6q.416-.258.832-.48a6.494,6.494,0,0,0,.762-.475,1.9,1.9,0,0,0,.563-.662,2.054,2.054,0,0,0,.217-.973,2.015,2.015,0,0,0-.727-1.7,3.178,3.178,0,0,0-1.992-.562q-2.684,0-2.684,2.813H.527a5.13,5.13,0,0,1,1.389-3.814A5.052,5.052,0,0,1,5.637-16.8a6.471,6.471,0,0,1,2.637.521A4.5,4.5,0,0,1,10.2-14.678a4.413,4.413,0,0,1,.744,2.561,5.073,5.073,0,0,1-.223,1.559,3.45,3.45,0,0,1-.568,1.119,4.564,4.564,0,0,1-.773.756,5.843,5.843,0,0,1-.855.551q-.428.223-.773.428a2.21,2.21,0,0,0-.568.469.894.894,0,0,0-.223.592v1.676ZM4.219,0V-3.094H7.348V0Z" transform="translate(-0.527 16.805)" fill="#d81f29"/>
</svg>
