<svg xmlns="http://www.w3.org/2000/svg" width="18.789" height="18.258" viewBox="0 0 18.789 18.258">
  <g id="Rating_Scale" data-name="Rating Scale" transform="translate(-4.695 -53.874)">
    <g id="Group_258" data-name="Group 258" transform="translate(4.945 54.124)">
      <g id="Group_257" data-name="Group 257" transform="translate(0 0)">
        <g id="Path_248" data-name="Path 248" transform="translate(-40.535 -54.124)" fill="#d81f29">
          <path d="M 55.13018417358398 72.00769805908203 C 55.07693099975586 72.00769805908203 55.02428436279297 71.99410247802734 54.97371292114258 71.96729278564453 C 54.83713150024414 71.89608764648438 54.70050430297852 71.82377624511719 54.56416320800781 71.75161743164063 C 54.47511291503906 71.70448303222656 54.38618087768555 71.65741729736328 54.2972526550293 71.61065673828125 C 53.80954360961914 71.35324859619141 53.32151412963867 71.09593200683594 52.83348083496094 70.83861541748047 C 52.34313201904297 70.580078125 51.852783203125 70.321533203125 51.36292266845703 70.06299591064453 C 51.05624389648438 69.90092468261719 50.74916076660156 69.73937225341797 50.44207382202148 69.57782745361328 C 50.18734741210938 69.44383239746094 49.93264389038086 69.30984497070313 49.67818450927734 69.17555999755859 C 49.59326934814453 69.22024536132813 49.50856399536133 69.26508331298828 49.4239616394043 69.30985260009766 C 49.33526229858398 69.35680389404297 49.24668121337891 69.4036865234375 49.15810394287109 69.45026397705078 C 48.67192077636719 69.70686340332031 48.18510437011719 69.96353149414063 47.69827270507813 70.22021484375 C 47.20672225952148 70.47939300537109 46.71516418457031 70.73856353759766 46.22410202026367 70.99774169921875 C 45.91819381713867 71.15940856933594 45.61175155639648 71.32061767578125 45.30530166625977 71.48182678222656 C 44.99796295166016 71.64351654052734 44.69062423706055 71.80519866943359 44.38376235961914 71.96737670898438 C 44.33356094360352 71.99368286132813 44.28158187866211 72.00693511962891 44.2288818359375 72.00693511962891 C 44.13936233520508 72.00693511962891 44.05379104614258 71.96706390380859 43.99409103393555 71.89754486083984 C 43.92935180664063 71.82215118408203 43.90115356445313 71.72056579589844 43.91671371459961 71.61880493164063 C 43.93721389770508 71.48995208740234 43.95710372924805 71.36136627197266 43.97700119018555 71.23277282714844 C 43.99686431884766 71.10440826416016 44.0167236328125 70.97604370117188 44.03706359863281 70.84815216064453 L 44.27670288085938 69.30914306640625 L 44.56061172485352 67.48582458496094 C 44.65981292724609 66.84098052978516 44.76067352294922 66.1959228515625 44.86166763305664 65.55085754394531 L 44.42361068725586 65.11740112304688 C 43.88720321655273 64.586181640625 43.3499641418457 64.05586242675781 42.81302261352539 63.52582550048828 L 42.01312255859375 62.73601531982422 C 41.76037216186523 62.48617553710938 41.50764083862305 62.23685455322266 41.25491333007813 61.98752593994141 C 41.00342178344727 61.73941421508789 40.75193405151367 61.49131393432617 40.50044250488281 61.24272537231445 C 40.41813278198242 61.16211318969727 40.38809204101563 61.02778625488281 40.42608261108398 60.90886306762695 C 40.46112060546875 60.79916381835938 40.54638290405273 60.72350311279297 40.65415191650391 60.70649337768555 L 41.03083419799805 60.64548492431641 L 41.4080924987793 60.58438491821289 C 41.95262145996094 60.49637603759766 42.49716186523438 60.40884399414063 43.04170227050781 60.32130432128906 C 43.58898162841797 60.23333358764648 44.13627243041992 60.14535522460938 44.68356323242188 60.0568962097168 C 45.32161712646484 59.95568084716797 45.95932006835938 59.85282516479492 46.59701538085938 59.74986267089844 C 46.69400405883789 59.55796051025391 46.78996658325195 59.36603546142578 46.88591384887695 59.17414474487305 C 47.14362335205078 58.66162490844727 47.40071105957031 58.14937591552734 47.65781402587891 57.63711547851563 C 47.91560363769531 57.12347412109375 48.17339324951172 56.60984420776367 48.43166351318359 56.09620666503906 C 48.59253311157227 55.77447509765625 48.75401306152344 55.45296478271484 48.91549301147461 55.13145446777344 C 49.076904296875 54.81008529663086 49.23831176757813 54.48871612548828 49.39924240112305 54.16685485839844 C 49.45194244384766 54.06052398681641 49.54702377319336 53.99932479858398 49.6599006652832 53.99932479858398 C 49.66641998291016 53.99932479858398 49.67295837402344 53.99953460693359 49.67949676513672 53.99995803833008 C 49.68537902832031 53.99961090087891 49.69125747680664 53.99943542480469 49.6971321105957 53.99943542480469 C 49.80948257446289 53.99943542480469 49.90462112426758 54.0603141784668 49.95816421508789 54.16646575927734 C 50.07834243774414 54.4029655456543 50.19676208496094 54.63980484008789 50.31518173217773 54.87664413452148 C 50.57300186157227 55.38936614990234 50.83046340942383 55.90233612060547 51.08791351318359 56.41530609130859 C 51.34534072875977 56.92822647094727 51.6027717590332 57.44114303588867 51.86069107055664 57.95405578613281 C 52.02216339111328 58.27700424194336 52.18399429321289 58.59922409057617 52.34583282470703 58.92143630981445 C 52.4845085144043 59.19754409790039 52.62319946289063 59.47367095947266 52.76156616210938 59.75007247924805 L 53.00344085693359 59.78926467895508 L 53.37469100952148 59.84939575195313 C 53.91916275024414 59.93739318847656 54.46363067626953 60.0249137878418 55.00809097290039 60.11243438720703 C 55.55545425415039 60.20042419433594 56.10281372070313 60.28841400146484 56.65018081665039 60.37688446044922 C 57.33048248291016 60.48479461669922 58.01113128662109 60.59470367431641 58.69180297851563 60.70461654663086 L 58.70389175415039 60.70656585693359 C 58.81070327758789 60.72342300415039 58.89579391479492 60.79831314086914 58.93107223510742 60.90682601928711 C 58.97013092041016 61.02692413330078 58.94131088256836 61.15857315063477 58.85766220092773 61.24221420288086 L 58.52582168579102 61.57058334350586 L 58.30451202392578 61.78956604003906 C 57.76809310913086 62.32080459594727 57.23076248168945 62.85121536254883 56.69372177124023 63.38134384155273 L 55.89388275146484 64.17109680175781 C 55.64047241210938 64.42159271240234 55.38702392578125 64.67162322998047 55.13357162475586 64.92166137695313 C 54.92106628417969 65.13130187988281 54.70857238769531 65.3409423828125 54.49606704711914 65.55087280273438 C 54.50660705566406 65.61849975585938 54.51708221435547 65.68620300292969 54.52756118774414 65.75389862060547 C 54.54737091064453 65.8819580078125 54.56718063354492 66.01001739501953 54.58748245239258 66.13758850097656 L 54.93662261962891 68.37983703613281 L 55.11116409301758 69.50075531005859 C 55.21977233886719 70.20677185058594 55.33029174804688 70.91257476806641 55.44082260131836 71.61836242675781 C 55.45656204223633 71.72125244140625 55.42829132080078 71.82340240478516 55.36333084106445 71.89906311035156 C 55.30404281616211 71.96810150146484 55.21906280517578 72.00769805908203 55.13018417358398 72.00769805908203 Z M 49.68022155761719 68.49888610839844 C 49.73258209228516 68.49888610839844 49.78345108032227 68.51136779785156 49.83572387695313 68.53703308105469 C 49.99307250976563 68.61362457275391 50.14916229248047 68.69804382324219 50.30011367797852 68.77967834472656 C 50.36237335205078 68.8133544921875 50.42460250854492 68.84701538085938 50.48700332641602 68.88017272949219 C 50.97461318969727 69.13747406005859 51.46207427978516 69.39446258544922 51.94953155517578 69.65145111083984 C 52.4423942565918 69.91129302978516 52.93525314331055 70.17112731933594 53.42860412597656 70.43145751953125 C 53.85835266113281 70.65912628173828 54.28794860839844 70.88578033447266 54.7175407409668 71.11214447021484 C 54.67910003662109 70.86531829833984 54.64057540893555 70.61863708496094 54.6020622253418 70.37201690673828 C 54.54122161865234 69.98243713378906 54.48041152954102 69.59304809570313 54.42002105712891 69.20364379882813 L 54.17442321777344 67.62824249267578 L 53.91969299316406 65.99417114257813 C 53.90910339355469 65.92973327636719 53.89884185791016 65.86378479003906 53.88858413696289 65.79784393310547 C 53.87848281860352 65.73288726806641 53.86838150024414 65.66792297363281 53.85779190063477 65.60344696044922 L 53.85331344604492 65.57493591308594 C 53.83703231811523 65.47319793701172 53.81473159790039 65.3338623046875 53.92753219604492 65.21005249023438 C 54.04058074951172 65.08636474609375 54.16253280639648 64.96975708007813 54.28048324584961 64.85698699951172 C 54.33874130249023 64.80127716064453 54.3968620300293 64.74570465087891 54.45371246337891 64.68949127197266 C 54.85675430297852 64.29229736328125 55.25915145874023 63.89474487304688 55.66156387329102 63.49718475341797 C 56.06299209594727 63.10059356689453 56.46443176269531 62.70399475097656 56.86635208129883 62.30788421630859 C 57.20728302001953 61.96953582763672 57.54937362670898 61.63176345825195 57.89118194580078 61.29426574707031 L 57.95815658569336 61.22812652587891 L 57.2535514831543 61.1148567199707 L 55.98398208618164 60.91071319580078 C 55.46467208862305 60.82754516601563 54.94528198242188 60.7438850402832 54.42588424682617 60.66021347045898 C 53.90387344360352 60.57612609863281 53.38187408447266 60.49204635620117 52.8598518371582 60.40844345092773 C 52.74819183349609 60.38886642456055 52.63835144042969 60.37152481079102 52.52851104736328 60.35419464111328 C 52.40495300292969 60.33310317993164 52.31454086303711 60.2708854675293 52.25824356079102 60.16901397705078 C 52.16522216796875 59.99665451049805 52.07853317260742 59.81989669799805 51.99469375610352 59.64895629882813 C 51.95716094970703 59.57240676879883 51.91963195800781 59.49589538574219 51.88156127929688 59.41974639892578 L 50.35153198242188 56.37133407592773 C 50.19253158569336 56.0552864074707 50.03398132324219 55.73915481567383 49.87542343139648 55.42300415039063 L 49.67694091796875 55.02742385864258 C 49.5769157409668 55.22681045532227 49.47696304321289 55.42619323730469 49.37701416015625 55.62557601928711 C 49.18887329101563 56.00088500976563 49.0007209777832 56.37619400024414 48.81210327148438 56.75149536132813 C 48.5674934387207 57.23974609375 48.32233428955078 57.72813415527344 48.07716369628906 58.21653366088867 C 47.8326530456543 58.70361328125 47.58815383911133 59.19069671630859 47.34412384033203 59.67777633666992 C 47.31179428100586 59.7414436340332 47.2797737121582 59.80500411987305 47.24775314331055 59.86856460571289 C 47.21578216552734 59.93202590942383 47.18380355834961 59.9954833984375 47.15183258056641 60.05847549438477 C 47.14649200439453 60.06916427612305 47.1409912109375 60.08088302612305 47.13545227050781 60.09268569946289 C 47.0944938659668 60.17986679077148 47.03840255737305 60.29926300048828 46.89347076416016 60.33952331542969 C 46.84756088256836 60.3521842956543 46.80280303955078 60.35800552368164 46.7595329284668 60.36362457275391 C 46.74086380004883 60.36604309082031 46.72226333618164 60.36843490600586 46.70408248901367 60.37146377563477 C 46.55055236816406 60.39673614501953 46.39532089233398 60.42196655273438 46.24009323120117 60.44718551635742 C 45.14797210693359 60.62470626831055 44.05392074584961 60.8003044128418 42.95987319946289 60.97589492797852 L 42.94304275512695 60.97859573364258 C 42.5850830078125 61.03582382202148 42.22768402099609 61.09353637695313 41.87028121948242 61.1512451171875 L 41.39615249633789 61.22769165039063 C 41.56082153320313 61.39040374755859 41.72556686401367 61.55303955078125 41.89031219482422 61.71567535400391 C 42.1929931640625 62.01448440551758 42.49567413330078 62.31329345703125 42.79787063598633 62.61257553100586 C 43.55987167358398 63.36687469482422 44.32190322875977 64.11925506591797 45.08393096923828 64.87165832519531 L 45.09580230712891 64.88337707519531 C 45.14115142822266 64.92774200439453 45.18639373779297 64.97250366210938 45.23164367675781 65.01726531982422 C 45.27657318115234 65.06171417236328 45.32150268554688 65.10616302490234 45.36692428588867 65.15060424804688 C 45.43538284301758 65.21906280517578 45.53740310668945 65.32107543945313 45.50988388061523 65.51360321044922 C 45.49027252197266 65.64116668701172 45.47036361694336 65.76691436767578 45.45046234130859 65.89266204833984 C 45.43061065673828 66.01806640625 45.41076278686523 66.14345550537109 45.39140319824219 66.26932525634766 L 45.13023376464844 67.94563293457031 L 44.86774063110352 69.63036346435547 L 44.69891357421875 70.71348571777344 L 44.63718414306641 71.10933685302734 L 45.21053314208984 70.80708312988281 C 45.57655334472656 70.61415863037109 45.94258117675781 70.42123413085938 46.3090934753418 70.22782135009766 C 47.24190139770508 69.73523712158203 48.17667388916016 69.24263763427734 49.11145401000977 68.75004577636719 L 49.44313430786133 68.57547760009766 L 49.45126342773438 68.57123565673828 C 49.51625061035156 68.53731536865234 49.58990097045898 68.49888610839844 49.68022155761719 68.49888610839844 Z" stroke="none"/>
          <path d="M 49.65990829467773 54.12432098388672 C 49.60200881958008 54.12432098388672 49.54556274414063 54.15311431884766 49.51104354858398 54.22275543212891 C 49.18912124633789 54.86660766601563 48.86526107788086 55.50851440429688 48.54334259033203 56.15235137939453 C 48.02748107910156 57.17825317382813 47.51357269287109 58.20414733886719 46.99771118164063 59.23004150390625 C 46.89219284057617 59.44106292724609 46.78668975830078 59.65209197998047 46.67979431152344 59.86312103271484 C 46.70561599731445 59.85894775390625 46.73141860961914 59.85478210449219 46.75724411010742 59.85061645507813 C 46.71845245361328 59.87970733642578 46.67967224121094 59.91073608398438 46.6408805847168 59.93981170654297 C 46.65387344360352 59.91425323486328 46.66684722900391 59.88867950439453 46.67979431152344 59.86312103271484 C 46.02103805541992 59.96949005126953 45.36227035522461 60.07579040527344 44.70351409912109 60.1802978515625 C 43.6116828918457 60.35677337646484 42.51986312866211 60.53131866455078 41.42803192138672 60.70778656005859 C 41.17592239379883 60.74851226806641 40.92575073242188 60.78923797607422 40.67364120483398 60.82996368408203 C 40.52625274658203 60.85323333740234 40.49328231811523 61.06074523925781 40.58831405639648 61.15382385253906 C 41.09253311157227 61.6522216796875 41.59675216674805 62.14868545532227 42.10097122192383 62.6470947265625 C 42.90384292602539 63.44026565551758 43.70865249633789 64.23344421386719 44.51153182983398 65.02854919433594 C 44.67271041870117 65.18804931640625 44.83388519287109 65.34751892089844 44.99506378173828 65.50700378417969 C 45.00130844116211 65.46710205078125 45.00755310058594 65.42722320556641 45.01380157470703 65.3873291015625 C 45.03125381469727 65.44938659667969 45.04677200317383 65.51338195800781 45.06422424316406 65.575439453125 C 45.04117202758789 65.55262756347656 45.01811218261719 65.52981567382813 44.99506378173828 65.50700378417969 C 44.89077377319336 66.17301940917969 44.78658294677734 66.83904266357422 44.68412399291992 67.50505065917969 C 44.50958251953125 68.62596130371094 44.33505249023438 69.74687194824219 44.1605110168457 70.8677978515625 C 44.11979293823242 71.123779296875 44.08100128173828 71.3817138671875 44.0402717590332 71.63771057128906 C 44.02029418945313 71.76834106445313 44.11116409301758 71.88192749023438 44.22887802124023 71.88192749023438 C 44.25970077514648 71.88192749023438 44.29235458374023 71.8741455078125 44.32535171508789 71.85684204101563 C 44.93817138671875 71.53298950195313 45.55293273925781 71.2110595703125 46.16575241088867 70.88719177246094 C 47.14316177368164 70.371337890625 48.12251281738281 69.85548400878906 49.09992218017578 69.33963012695313 C 49.29231262207031 69.23844909667969 49.48472213745117 69.1358642578125 49.67831802368164 69.03428649902344 C 49.64584350585938 69.01713562011719 49.61332702636719 68.99996185302734 49.58086395263672 68.98280334472656 C 49.64680099487305 68.98280334472656 49.7108039855957 68.98280334472656 49.7767333984375 68.98280334472656 C 49.7438850402832 68.99993133544922 49.71109390258789 69.01708984375 49.67831802368164 69.03428649902344 C 50.25885772705078 69.34080505371094 50.84091949462891 69.64574432373047 51.42126083374023 69.95244598388672 C 52.398681640625 70.46829223632813 53.37802124023438 70.98416137695313 54.35543060302734 71.50001525878906 C 54.58039093017578 71.61831665039063 54.80535125732422 71.73854064941406 55.03225326538086 71.85684204101563 C 55.06589889526367 71.87467956542969 55.09904861450195 71.8826904296875 55.13019180297852 71.8826904296875 C 55.24802780151367 71.8826904296875 55.33727264404297 71.76809692382813 55.31733322143555 71.63771057128906 C 55.20678329467773 70.93180847167969 55.09624099731445 70.22589111328125 54.98765182495117 69.51998901367188 C 54.81311416625977 68.39906311035156 54.63857269287109 67.27815246582031 54.46403121948242 66.1572265625 C 54.42964935302734 65.94107055664063 54.39664077758789 65.72354125976563 54.36267852783203 65.50694274902344 C 54.33956527709961 65.52978515625 54.31648635864258 65.55258941650391 54.29337310791016 65.575439453125 C 54.31083297729492 65.51338195800781 54.32634353637695 65.44938659667969 54.34379196166992 65.3873291015625 C 54.35012817382813 65.42715454101563 54.35642242431641 65.467041015625 54.36267852783203 65.50694274902344 C 54.84378433227539 65.03155517578125 55.32492446899414 64.5577392578125 55.80603408813477 64.08217620849609 C 56.60890197753906 63.28900527954102 57.41372299194336 62.49582672119141 58.21659088134766 61.70071411132813 C 58.40082168579102 61.51841735839844 58.58506393432617 61.33612823486328 58.76928329467773 61.15382385253906 C 58.86432266235352 61.05879211425781 58.83135223388672 60.85323333740234 58.68396377563477 60.82996368408203 C 57.99938201904297 60.71942138671875 57.31481170654297 60.60887145996094 56.63023376464844 60.50028228759766 C 55.53840255737305 60.32380676269531 54.44658279418945 60.14926147460938 53.35475158691406 59.97279357910156 C 53.12867736816406 59.93627166748047 52.90417098999023 59.89975738525391 52.67841720581055 59.86323547363281 C 52.69119644165039 59.88877105712891 52.70394897460938 59.91426849365234 52.71672439575195 59.93981170654297 C 52.67793273925781 59.91073608398438 52.63915252685547 59.87970733642578 52.60036087036133 59.85061645507813 C 52.62639999389648 59.85482025146484 52.65242004394531 59.85903167724609 52.67841720581055 59.86323547363281 C 52.36911773681641 59.24507904052734 52.05816268920898 58.62852478027344 51.7490119934082 58.01021575927734 C 51.233154296875 56.98432159423828 50.71924209594727 55.95843505859375 50.2033805847168 54.93254852294922 C 50.0850830078125 54.69594573974609 49.96678161621094 54.45935821533203 49.84655380249023 54.22275543212891 C 49.81150436401367 54.15326690673828 49.75498199462891 54.12444305419922 49.6971321105957 54.12444305419922 C 49.69112396240234 54.12444305419922 49.68510818481445 54.12474822998047 49.67909622192383 54.12535858154297 C 49.80038070678711 54.13834381103516 49.91809463500977 54.27157592773438 49.84460067749023 54.41474151611328 C 49.83878326416016 54.42638397216797 49.83297348022461 54.43801116943359 49.82715225219727 54.44965362548828 C 49.77704620361328 54.54934692382813 49.72698974609375 54.64901733398438 49.67694473266602 54.74871063232422 C 49.93918991088867 55.27091979980469 50.20054626464844 55.79306793212891 50.46325302124023 56.31526184082031 C 50.97328186035156 57.33145141601563 51.48332214355469 58.34765625 51.99336242675781 59.36384582519531 C 52.11747360229492 59.61207580566406 52.23577117919922 59.86418151855469 52.36764144897461 60.10854339599609 C 52.40837097167969 60.18223571777344 52.46849060058594 60.21714782714844 52.54799270629883 60.23072814941406 C 52.65854263305664 60.24816131591797 52.76908111572266 60.265625 52.87962341308594 60.28501129150391 C 53.9210319519043 60.45179748535156 54.96243286132813 60.62051391601563 56.00383377075195 60.78730773925781 C 56.74239349365234 60.90614318847656 57.48248672485352 61.02499389648438 58.22140884399414 61.14384460449219 C 58.31163024902344 61.05474090576172 58.4018440246582 60.96560668945313 58.49196243286133 60.87651824951172 C 58.52105331420898 60.985107421875 58.54820251464844 61.09176635742188 58.57729339599609 61.20036315917969 C 58.563720703125 61.19843292236328 58.55014419555664 61.19648742675781 58.53656387329102 61.19454193115234 C 58.43152618408203 61.17764282226563 58.32649993896484 61.16074371337891 58.22140884399414 61.14384460449219 C 57.79909515380859 61.56095123291016 57.37594985961914 61.9782600402832 56.95409393310547 62.39691543579102 C 56.14928436279297 63.19009399414063 55.34641265869141 63.98521423339844 54.54160308837891 64.77838134765625 C 54.36900329589844 64.94904327392578 54.18477249145508 65.11388397216797 54.01993179321289 65.29423522949219 C 53.94042205810547 65.38150024414063 53.96563339233398 65.48041534423828 53.98114395141602 65.58319091796875 C 54.00247192382813 65.71311950683594 54.0218620300293 65.84500122070313 54.0432014465332 65.97492980957031 C 54.2099723815918 67.04543304443359 54.37676239013672 68.11399841308594 54.54354095458984 69.18448638916016 C 54.65484237670898 69.90214538574219 54.76755905151367 70.6197509765625 54.87927627563477 71.33863830566406 C 54.99489212036133 71.39954376220703 55.11055374145508 71.46045684814453 55.22617340087891 71.52134704589844 C 55.13115310668945 71.59503173828125 55.0361213684082 71.66679382324219 54.94109344482422 71.74048614501953 C 54.93916320800781 71.72691345214844 54.93721389770508 71.71333312988281 54.93528366088867 71.69976806640625 C 54.91665267944336 71.57937622070313 54.89797592163086 71.45896148681641 54.87927627563477 71.33863830566406 C 54.37625503540039 71.07367706298828 53.87328338623047 70.80848693847656 53.37026214599609 70.5419921875 C 52.38897323608398 70.02420043945313 51.40962219238281 69.50834655761719 50.4283332824707 68.99055480957031 C 50.21307373046875 68.87613677978516 49.99975204467773 68.75588989257813 49.78061294555664 68.64923095703125 C 49.74394607543945 68.6312255859375 49.71111297607422 68.62388610839844 49.68021774291992 68.62388610839844 C 49.61796569824219 68.62388610839844 49.56356048583984 68.6536865234375 49.5013542175293 68.68608093261719 C 49.39081192016602 68.7442626953125 49.2802734375 68.80244445800781 49.16972351074219 68.86062622070313 C 48.23498153686523 69.35321044921875 47.30024337768555 69.84577941894531 46.367431640625 70.33837890625 C 45.73611450195313 70.67151641845703 45.10625839233398 71.00321960449219 44.47533798217773 71.33596801757813 C 44.45442962646484 71.47011566162109 44.43352127075195 71.60429382324219 44.41261291503906 71.73854064941406 C 44.31759262084961 71.66485595703125 44.22256088256836 71.59310913085938 44.12753295898438 71.5194091796875 C 44.1391716003418 71.51359558105469 44.15275192260742 71.50582885742188 44.16438293457031 71.50001525878906 C 44.2680549621582 71.44530487060547 44.37173080444336 71.39061737060547 44.47533798217773 71.33596801757813 C 44.56496810913086 70.76092529296875 44.65460205078125 70.18666839599609 44.74423217773438 69.61112976074219 C 44.91877365112305 68.49021911621094 45.09331130981445 67.37123107910156 45.26785278320313 66.25032043457031 C 45.30663299560547 65.99821472167969 45.34736251831055 65.74803161621094 45.38614273071289 65.49592590332031 C 45.40360260009766 65.37375640869141 45.35317230224609 65.31362915039063 45.27948379516602 65.23994445800781 C 45.18833160400391 65.15073394775391 45.0991325378418 65.0615234375 45.00798416137695 64.97232055664063 C 44.24195098876953 64.21598815917969 43.47593307495117 63.45966339111328 42.70990371704102 62.70139312744141 C 42.18494415283203 62.18148422241211 41.65851211547852 61.66300964355469 41.13315963745117 61.14347839355469 C 41.01492691040039 61.16249084472656 40.89668273925781 61.18145751953125 40.77836227416992 61.20037841796875 C 40.80745315551758 61.09176635742188 40.83460235595703 60.985107421875 40.86369323730469 60.87651824951172 C 40.87338256835938 60.88620758056641 40.88308334350586 60.89590454101563 40.89277267456055 60.90559387207031 C 40.97287368774414 60.98492431640625 41.05299758911133 61.064208984375 41.13315963745117 61.14347839355469 C 41.7299919128418 61.04753112792969 42.32594299316406 60.95067596435547 42.92323303222656 60.85517120361328 C 44.02281188964844 60.67869567871094 45.12240219116211 60.50222778320313 46.22004318237305 60.32380676269531 C 46.37519073486328 60.29859161376953 46.53033065795898 60.27338409423828 46.68354415893555 60.24816131591797 C 46.74172210693359 60.23847198486328 46.80378341674805 60.23459625244141 46.86001205444336 60.21908569335938 C 46.9647331237793 60.18999481201172 46.99770355224609 60.08721160888672 47.04037094116211 60.00188446044922 C 47.10437393188477 59.87582397460938 47.16836166381836 59.74783325195313 47.23236083984375 59.62178802490234 C 47.72107315063477 58.64630126953125 48.21171188354492 57.67083740234375 48.70041275024414 56.69536590576172 C 49.02653503417969 56.04648590087891 49.35121536254883 55.39759063720703 49.67694473266602 54.74871063232422 C 49.62169647216797 54.63870239257813 49.56638717651367 54.52864074707031 49.51104354858398 54.41862487792969 C 49.43852615356445 54.27230834960938 49.55715179443359 54.13768005371094 49.67909622192383 54.12535858154297 C 49.67270278930664 54.12467193603516 49.66629028320313 54.12432098388672 49.65990829467773 54.12432098388672 M 49.65987396240234 53.87432861328125 C 49.66652679443359 53.87432861328125 49.67317962646484 53.87448120117188 49.6798210144043 53.87479400634766 C 49.68559265136719 53.87455749511719 49.69136047363281 53.87443542480469 49.6971321105957 53.87443542480469 C 49.85601425170898 53.87443542480469 49.99531173706055 53.96255493164063 50.06976318359375 54.11016845703125 C 50.18990325927734 54.34658813476563 50.30844116210938 54.58365631103516 50.42699432373047 54.82074737548828 C 50.6846923828125 55.33323669433594 50.94216156005859 55.84623718261719 51.19963073730469 56.35923767089844 C 51.45705413818359 56.87212371826172 51.71446228027344 57.38501739501953 51.97236251831055 57.89790344238281 C 52.13356399536133 58.22030639648438 52.29499435424805 58.54171752929688 52.4564323425293 58.86312866210938 C 52.58592987060547 59.1209716796875 52.7154426574707 59.37882995605469 52.84469604492188 59.63691711425781 L 53.01921081542969 59.66519165039063 L 53.39462280273438 59.72599792480469 C 53.93907165527344 59.81399536132813 54.48350143432617 59.90150451660156 55.02793121337891 59.98902130126953 C 55.57533264160156 60.07701110839844 56.12272262573242 60.16500854492188 56.67012405395508 60.25348663330078 C 57.35018157958984 60.36135864257813 58.03094100952148 60.47128295898438 58.71172332763672 60.58120727539063 L 58.72381210327148 60.58316802978516 C 58.87759399414063 60.60743713378906 58.99983215332031 60.71403503417969 59.04995346069336 60.86817169189453 C 59.1033935546875 61.03254699707031 59.0626106262207 61.21405792236328 58.94605255126953 61.33061218261719 L 58.61374282836914 61.65943145751953 L 58.39243316650391 61.87842559814453 C 57.85600280761719 62.40966415405273 57.31862258911133 62.94012451171875 56.78154373168945 63.47030639648438 L 55.98173141479492 64.26002502441406 C 55.72977066040039 64.50907897949219 55.47774124145508 64.75770568847656 55.22573089599609 65.00633239746094 C 55.02695846557617 65.20242309570313 54.82817840576172 65.39853668212891 54.62941741943359 65.59486389160156 C 54.63666152954102 65.64149475097656 54.64387893676758 65.68814086914063 54.65109252929688 65.73479461669922 C 54.67088317871094 65.86268615722656 54.6906623840332 65.99055480957031 54.71093368530273 66.11795043945313 L 55.06013107299805 68.36060333251953 L 55.23467254638672 69.48152160644531 C 55.34330368041992 70.18766784667969 55.45380401611328 70.89334106445313 55.56432342529297 71.59902954101563 C 55.58564376831055 71.73844909667969 55.54690170288086 71.87715148925781 55.45816421508789 71.98049926757813 C 55.3751106262207 72.07722473144531 55.25556182861328 72.1326904296875 55.13019180297852 72.1326904296875 C 55.05630111694336 72.1326904296875 54.98395156860352 72.11419677734375 54.91515350341797 72.07772827148438 C 54.7789306640625 72.00670623779297 54.64189147949219 71.93418884277344 54.50514221191406 71.86180114746094 C 54.41637420654297 71.8148193359375 54.32772064208984 71.76790618896484 54.23907089233398 71.72128295898438 C 53.74877166748047 71.46251678466797 53.25832366943359 71.20392608642578 52.76786422729492 70.94532775878906 C 52.27994155883789 70.68806457519531 51.79202270507813 70.43079376220703 51.30457305908203 70.17354583740234 C 50.99801254272461 70.01153564453125 50.69110107421875 69.85007476806641 50.38418197631836 69.68861389160156 C 50.14876556396484 69.56477355957031 49.91334533691406 69.44093322753906 49.67814636230469 69.31687164306641 C 49.61301803588867 69.35122680664063 49.54800415039063 69.38562774658203 49.48305130004883 69.42000579833984 C 49.39404296875 69.46711730957031 49.3051643371582 69.51416015625 49.21628189086914 69.56089782714844 C 48.72788238525391 69.81866455078125 48.23865127563477 70.07661437988281 47.74943161010742 70.33455657958984 C 47.26027297973633 70.59246826171875 46.77112197875977 70.85037231445313 46.28244400024414 71.10829162597656 C 45.97601318359375 71.27023315429688 45.66898345947266 71.43175506591797 45.36194229125977 71.59327697753906 C 45.05519104003906 71.75464630126953 44.74843215942383 71.91602325439453 44.44216156005859 72.07787322998047 C 44.37355422973633 72.11386108398438 44.30202102661133 72.13193511962891 44.2288818359375 72.13193511962891 C 44.10286331176758 72.13193511962891 43.98272323608398 72.07618713378906 43.89925384521484 71.97898864746094 C 43.81074142456055 71.87590026855469 43.77206420898438 71.73773193359375 43.79314422607422 71.59989929199219 C 43.8137321472168 71.47048950195313 43.83360290527344 71.34207153320313 43.85347366333008 71.21366882324219 C 43.87336349487305 71.08511352539063 43.89324188232422 70.95657348632813 43.91361236572266 70.82852172851563 L 44.15319061279297 69.2899169921875 L 44.43710327148438 67.46659851074219 C 44.53304672241211 66.84291076660156 44.63057327270508 66.21883392333984 44.7282829284668 65.5947265625 L 44.335693359375 65.20626831054688 C 43.79929351806641 64.67505645751953 43.26210403442383 64.144775390625 42.72520065307617 63.61478424072266 L 41.92527389526367 62.82494354248047 C 41.67252349853516 62.57510375976563 41.41982269287109 62.3258056640625 41.16712188720703 62.07650375366211 C 40.91560363769531 61.82837677001953 40.66408157348633 61.58024597167969 40.41256332397461 61.33162689208984 C 40.29593276977539 61.21738433837891 40.25417327880859 61.03619384765625 40.30701065063477 60.87082672119141 C 40.35674285888672 60.71515655517578 40.47922134399414 60.60756683349609 40.63465118408203 60.58302307128906 L 41.01082229614258 60.5220947265625 L 41.38816070556641 60.46098327636719 C 41.93271255493164 60.37296295166016 42.47729110717773 60.28543853759766 43.0218620300293 60.19789123535156 C 43.56911087036133 60.10992431640625 44.11636352539063 60.02195739746094 44.66362380981445 59.93349456787109 C 45.28091430664063 59.8355712890625 45.89754104614258 59.73617553710938 46.5141487121582 59.63663482666016 C 46.59980010986328 59.46682739257813 46.68471527099609 59.29701232910156 46.76962280273438 59.12721252441406 L 46.77411270141602 59.11823272705078 C 47.03226089477539 58.60484313964844 47.2896728515625 58.09195709228516 47.54709243774414 57.57905578613281 C 47.80456161499023 57.06605529785156 48.06203079223633 56.55305480957031 48.31999206542969 56.04004669189453 C 48.48062133789063 55.71877288818359 48.64199066162109 55.39747619628906 48.80337142944336 55.07618713378906 C 48.96488189697266 54.75460815429688 49.12640380859375 54.43302154541016 49.28743362426758 54.11095428466797 C 49.36073303222656 53.96307373046875 49.5001106262207 53.87432861328125 49.65987396240234 53.87432861328125 Z M 57.69489669799805 61.31240844726563 L 57.20272064208984 61.23328399658203 L 55.964111328125 61.03413391113281 C 55.44508361816406 60.95100402832031 54.92587280273438 60.86736297607422 54.40666198730469 60.78372192382813 C 53.88447189331055 60.69961547851563 53.36228179931641 60.61549377441406 52.84009170532227 60.53186798095703 C 52.72730255126953 60.51211547851563 52.61817169189453 60.49488830566406 52.509033203125 60.47767639160156 C 52.34458160400391 60.44959259033203 52.22444152832031 60.36626434326172 52.14884185791016 60.22948455810547 C 52.05400085449219 60.05377197265625 51.96671295166016 59.87578582763672 51.88230133056641 59.70366668701172 C 51.84496307373047 59.62752532958984 51.80763244628906 59.55140686035156 51.76975250244141 59.47564697265625 L 50.23981094360352 56.42740631103516 C 50.08118438720703 56.11207580566406 49.92293167114258 55.79655456542969 49.76468276977539 55.48102569580078 L 49.67695999145508 55.30619812011719 C 49.61362457275391 55.4324951171875 49.55031967163086 55.55878448486328 49.48700332641602 55.68508148193359 C 49.29942321777344 56.05926513671875 49.11184310913086 56.43345642089844 48.92378234863281 56.80763244628906 C 48.67923355102539 57.29576110839844 48.43405151367188 57.78418731689453 48.18887329101563 58.27260589599609 C 47.94438171386719 58.75966644287109 47.69989395141602 59.24671173095703 47.45588302612305 59.7337646484375 C 47.42331314086914 59.79792785644531 47.39135360717773 59.86136627197266 47.35939407348633 59.9248046875 C 47.32735061645508 59.98838806152344 47.29532241821289 60.05196380615234 47.2632942199707 60.11505126953125 C 47.25872421264648 60.12419128417969 47.2536735534668 60.13500213623047 47.24856185913086 60.14588165283203 C 47.20612335205078 60.23621368408203 47.12712097167969 60.40435791015625 46.92692184448242 60.45996856689453 C 46.87235260009766 60.47501373291016 46.82096099853516 60.48169708251953 46.77563095092773 60.48758697509766 C 46.75846099853516 60.48981475830078 46.74134063720703 60.49198150634766 46.72461318969727 60.49476623535156 C 46.57077407836914 60.52009582519531 46.41546249389648 60.54533386230469 46.2601432800293 60.57056427001953 C 45.16795349121094 60.74810791015625 44.07381439208984 60.9237060546875 42.97968292236328 61.09931182861328 L 42.96285247802734 61.10201263427734 C 42.6046142578125 61.15929412841797 42.24701309204102 61.21703338623047 41.88941192626953 61.27477264404297 L 41.65925598144531 61.31188201904297 C 41.76440811157227 61.41573333740234 41.86957931518555 61.51955413818359 41.97475433349609 61.62338256835938 C 42.27860260009766 61.92335510253906 42.58246231079102 62.22332382202148 42.88582229614258 62.52376556396484 C 43.64775085449219 63.27797317504883 44.40972137451172 64.03030395507813 45.17170333862305 64.78264617919922 L 45.18363189697266 64.79442596435547 C 45.22885131835938 64.83867645263672 45.27438354492188 64.88371276855469 45.31990432739258 64.92874145507813 C 45.36455154418945 64.97292327880859 45.40921401977539 65.01710510253906 45.45435333251953 65.061279296875 C 45.53094100952148 65.13784790039063 45.66999435424805 65.27686309814453 45.63363265991211 65.53129577636719 C 45.61379241943359 65.66033935546875 45.59385299682617 65.78628540039063 45.57392120361328 65.91221618652344 C 45.55410385131836 66.03742980957031 45.53428268432617 66.16263580322266 45.51494216918945 66.288330078125 L 45.2530632019043 67.96922302246094 L 44.99125289916992 69.64958190917969 L 44.81966400146484 70.75042724609375 L 44.79903411865234 70.88270568847656 L 45.14975357055664 70.69781494140625 C 45.51659393310547 70.50446319580078 45.8834228515625 70.31110382080078 46.25076293945313 70.11727905273438 C 47.18356323242188 69.62467956542969 48.11837387084961 69.13206481933594 49.05317306518555 68.63945007324219 L 49.38491058349609 68.46485900878906 L 49.3934440612793 68.46040344238281 C 49.46731185913086 68.42185974121094 49.55925369262695 68.37388610839844 49.68022155761719 68.37388610839844 C 49.75112152099609 68.37388610839844 49.82198333740234 68.39102172851563 49.89082336425781 68.42483520507813 C 50.0501823425293 68.50239562988281 50.20746231079102 68.58746337890625 50.35957336425781 68.66972351074219 C 50.42157363891602 68.70325469970703 50.48354339599609 68.73677062988281 50.54567337036133 68.76980590820313 C 51.03562164306641 69.0283203125 51.52575302124023 69.28672790527344 52.0158805847168 69.54512023925781 C 52.50607299804688 69.80355834960938 52.99626159667969 70.06197357177734 53.48693084716797 70.32088470458984 C 53.84333038330078 70.50971221923828 54.19955825805664 70.69778442382813 54.55570602416992 70.88555145263672 C 54.52988815307617 70.72002410888672 54.50405120849609 70.55457305908203 54.47821426391602 70.38912963867188 C 54.41748428344727 70.00023651123047 54.35678100585938 69.61152648925781 54.29649353027344 69.22279357910156 L 54.05092239379883 67.64750671386719 L 53.79618072509766 66.01341247558594 C 53.78570175170898 65.94964599609375 53.77538299560547 65.88335418701172 53.76507186889648 65.81705474853516 C 53.75502395629883 65.75244140625 53.74497222900391 65.68782043457031 53.73444366455078 65.62369537353516 L 53.72988128662109 65.59469604492188 C 53.71189117431641 65.4822998046875 53.68178176879883 65.29417419433594 53.83513259887695 65.12586975097656 C 53.95115280151367 64.99892425537109 54.07465362548828 64.88083648681641 54.194091796875 64.76663208007813 C 54.25185394287109 64.71141052246094 54.30947113037109 64.65633392333984 54.3658332824707 64.60061645507813 C 54.76897430419922 64.20329284667969 55.17134094238281 63.8057861328125 55.57370376586914 63.40826416015625 C 55.97518157958984 63.01163482666016 56.37665176391602 62.61500549316406 56.77860260009766 62.21885299682617 C 57.08330154418945 61.91648864746094 57.38911819458008 61.61434936523438 57.69489669799805 61.31240844726563 Z" stroke="none" fill="#d81f29"/>
        </g>
      </g>
    </g>
  </g>
</svg>
