<svg xmlns="http://www.w3.org/2000/svg" width="25.654" height="19.666" viewBox="0 0 25.654 19.666">
  <g id="Table" transform="translate(-10.921 -10.549)">
    <path id="Path_242" data-name="Path 242" d="M39.012,24.7H14.241a.451.451,0,0,0-.441.441V43.924a.451.451,0,0,0,.441.441H39.012a.451.451,0,0,0,.441-.441V25.11A.471.471,0,0,0,39.012,24.7ZM23.066,38.5V34.943h7.343V38.5Zm7.312.851v4.129H23.066V39.355ZM38.571,30.5v3.593H31.228V30.5Zm-8.194,3.593H23.066V30.5h7.343v3.593Zm-8.163,0H14.651V30.5h7.564Zm-7.564.851h7.564V38.5H14.651Zm16.577,0h7.343V38.5H31.228Zm7.343-5.295H23.066v-4.1H38.571Zm-16.357-4.1v4.1H14.651v-4.1Zm-7.564,13.8h7.564v4.129H14.651Zm16.577,4.129V39.355h7.343v4.129H31.228Z" transform="translate(-2.879 -14.151)" fill="#d81f29"/>
    <path id="Path_243" data-name="Path 243" d="M50.937,62h-4.7a.441.441,0,1,0,0,.882h4.7a.451.451,0,0,0,.441-.441A.431.431,0,0,0,50.937,62Z" transform="translate(-24.794 -39.696)" fill="#d81f29"/>
    <path id="Path_244" data-name="Path 244" d="M46.041,77.182h4.7a.441.441,0,1,0,0-.882h-4.7a.451.451,0,0,0-.441.441A.431.431,0,0,0,46.041,77.182Z" transform="translate(-24.657 -49.489)" fill="#d81f29"/>
  </g>
</svg>
